<?xml version="1.0" encoding="UTF-8" standalone="no"?>
<!-- Created with Inkscape (http://www.inkscape.org/) -->

<svg
   xmlns:dc="http://purl.org/dc/elements/1.1/"
   xmlns:cc="http://creativecommons.org/ns#"
   xmlns:rdf="http://www.w3.org/1999/02/22-rdf-syntax-ns#"
   xmlns:svg="http://www.w3.org/2000/svg"
   xmlns="http://www.w3.org/2000/svg"
   xmlns:sodipodi="http://sodipodi.sourceforge.net/DTD/sodipodi-0.dtd"
   xmlns:inkscape="http://www.inkscape.org/namespaces/inkscape"
   width="186.90649mm"
   height="152.54642mm"
   viewBox="0 0 186.90649 152.54642"
   version="1.1"
   id="svg8"
   inkscape:version="0.92.2 5c3e80d, 2017-08-06"
   sodipodi:docname="aabb.svg">
  <defs
     id="defs2" />
  <sodipodi:namedview
     id="base"
     pagecolor="#ffffff"
     bordercolor="#666666"
     borderopacity="1.0"
     inkscape:pageopacity="0.0"
     inkscape:pageshadow="2"
     inkscape:zoom="0.7"
     inkscape:cx="418.71728"
     inkscape:cy="211.95953"
     inkscape:document-units="mm"
     inkscape:current-layer="layer1"
     showgrid="false"
     fit-margin-top="0"
     fit-margin-left="0"
     fit-margin-right="0"
     fit-margin-bottom="0" />
  <metadata
     id="metadata5">
    <rdf:RDF>
      <cc:Work
         rdf:about="">
        <dc:format>image/svg+xml</dc:format>
        <dc:type
           rdf:resource="http://purl.org/dc/dcmitype/StillImage" />
        <dc:title></dc:title>
      </cc:Work>
    </rdf:RDF>
  </metadata>
  <g
     inkscape:label="Layer 1"
     inkscape:groupmode="layer"
     id="layer1"
     transform="translate(-8.8060532,-55.149778)">
    <path
       style="opacity:1;fill:none;fill-opacity:1;stroke:#000000;stroke-width:1;stroke-linecap:round;stroke-linejoin:miter;stroke-miterlimit:4;stroke-dasharray:none;stroke-dashoffset:0;stroke-opacity:1"
       id="path831"
       d="m 78.559249,86.061927 c -0.07215,3.806608 -0.277156,7.609478 -0.467794,11.411556 -0.451948,7.895047 -0.691854,15.798447 -0.81757,23.704687 -0.06999,8.12289 0.03963,16.24519 -0.09389,24.36757 -0.05744,4.92343 -0.518803,9.82448 -0.873607,14.73072 -7.94e-4,0.0107 -0.01577,0.01 -0.01508,-10e-4 v 0 c 0.27083,-4.90676 0.414197,-9.8219 0.531987,-14.73448 0.08157,-8.12335 -0.04945,-16.24617 0.02782,-24.36958 0.125827,-7.91114 0.364709,-15.81966 0.829497,-23.718971 0.198194,-3.799086 0.394777,-7.598254 0.55416,-11.399194 0.0061,-0.229447 0.330607,-0.220795 0.32449,0.0087 z"
       inkscape:connector-curvature="0" />
    <path
       style="opacity:1;fill:none;fill-opacity:1;stroke:#000000;stroke-width:1;stroke-linecap:round;stroke-linejoin:miter;stroke-miterlimit:4;stroke-dasharray:none;stroke-dashoffset:0;stroke-opacity:1"
       id="path835"
       d="m 77.808478,81.815643 c 3.067732,-0.101801 6.132242,-0.285282 9.198229,-0.429713 6.353593,-0.285977 12.712409,-0.424534 19.071163,-0.529235 4.10228,-0.06896 8.20321,-0.132533 12.30375,0.01127 0.0107,-2.65e-4 0.0111,0.01484 2.6e-4,0.01511 v 0 c -4.08999,0.351591 -8.19399,0.346696 -12.29655,0.417446 -6.354134,0.112496 -12.708597,0.245219 -19.057734,0.531389 -3.072255,0.144725 -6.143964,0.336344 -9.219237,0.396973 -0.292203,0 -0.292203,-0.413237 0,-0.413237 z"
       inkscape:connector-curvature="0" />
    <path
       style="opacity:1;fill:none;fill-opacity:1;stroke:#000000;stroke-width:1;stroke-linecap:round;stroke-linejoin:miter;stroke-miterlimit:4;stroke-dasharray:none;stroke-dashoffset:0;stroke-opacity:1"
       id="path843"
       d="m 118.779,81.321388 c 0.49063,2.391227 0.56336,4.83567 0.60216,7.267662 -0.10426,6.446044 -0.6538,12.87592 -1.10052,19.3048 -0.64516,8.57044 -0.81282,17.16254 -0.79718,25.75377 0.0466,7.14272 0.30496,14.28119 0.59955,21.41719 0.0972,3.41557 0.39883,6.82831 0.36382,10.2468 0.0165,0.24019 0.0331,0.48038 0.0496,0.72057 7.9e-4,0.0107 -0.0143,0.0117 -0.0151,10e-4 v 0 c -0.0165,-0.24021 -0.0331,-0.48042 -0.0496,-0.72064 -0.46632,-3.38931 -0.52184,-6.82041 -0.73095,-10.23116 -0.32535,-7.14065 -0.63322,-14.28352 -0.68964,-21.43248 -0.032,-8.60306 0.13715,-17.20677 0.78505,-25.7889 0.44994,-6.41616 1.00722,-12.832235 1.13335,-19.265227 -0.0229,-2.412775 -0.0841,-4.831709 -0.47092,-7.218928 -0.0385,-0.226539 0.28185,-0.281022 0.32037,-0.05449 z"
       inkscape:connector-curvature="0" />
    <path
       style="opacity:1;fill:none;fill-opacity:1;stroke:#000000;stroke-width:1;stroke-linecap:round;stroke-linejoin:miter;stroke-miterlimit:4;stroke-dasharray:none;stroke-dashoffset:0;stroke-opacity:1"
       id="path847"
       d="m 76.61249,157.88069 c 3.684585,0.31058 7.377112,0.51519 11.069933,0.69705 6.597923,0.32197 13.204717,0.28308 19.806827,0.1549 4.57301,-0.071 9.1356,-0.4014 13.70371,-0.58948 1.1653,-0.0107 0.63897,-0.0549 1.58237,0.0836 0.0107,-5.3e-4 0.0116,0.0144 8e-4,0.0151 v 0 c -0.91644,0.25213 -0.40077,0.13842 -1.55549,0.30026 -4.55976,0.44808 -9.14412,0.57365 -13.72141,0.71518 -6.61409,0.1262 -13.233486,0.16829 -19.842778,-0.16986 -3.700783,-0.19312 -7.403391,-0.40035 -11.090767,-0.77796 -0.30321,-0.033 -0.256527,-0.46181 0.04668,-0.4288 z"
       inkscape:connector-curvature="0" />
    <path
       style="opacity:1;fill:none;fill-opacity:1;stroke:#000000;stroke-width:1.0516026;stroke-linecap:round;stroke-linejoin:miter;stroke-miterlimit:4;stroke-dasharray:none;stroke-dashoffset:0;stroke-opacity:1"
       id="path851"
       d="m 37.728386,181.00772 c 3.083319,0.54069 6.202412,0.85043 9.327044,1.11267 8.337784,0.56204 16.705069,0.63591 25.061403,0.76615 12.121824,0.17392 24.244751,0.27081 36.367547,0.36914 11.71974,0.0885 23.43946,0.18033 35.15931,0.25512 6.92782,0.0492 13.85581,0.0594 20.78379,0.0705 0.8996,0.18477 1.97604,-0.18305 2.8642,0.1155 0.0116,-0.002 0.0148,0.0127 0.003,0.0148 v 0 c -0.6299,0.4448 -2.18351,0.0386 -2.86713,0.22382 -6.92904,0.0213 -13.85805,-0.0226 -20.78694,-0.0598 -11.72013,-0.0748 -23.4401,-0.16604 -35.16008,-0.25623 -12.124,-0.0983 -24.248229,-0.19278 -36.371021,-0.381 -8.364626,-0.14495 -16.74035,-0.23994 -25.084536,-0.83016 -3.129594,-0.27447 -6.270401,-0.56433 -9.334628,-1.22774 -0.135126,-0.0242 -0.09733,-0.19697 0.0378,-0.1728 z"
       inkscape:connector-curvature="0" />
    <path
       style="opacity:1;fill:none;fill-opacity:1;stroke:#000000;stroke-width:1;stroke-linecap:round;stroke-linejoin:miter;stroke-miterlimit:4;stroke-dasharray:none;stroke-dashoffset:0;stroke-opacity:1"
       id="path857"
       d="m 164.09756,195.22518 c 1.3361,-0.40204 2.68851,-0.77072 4.0825,-0.88685 1.10529,0.009 1.47803,0.462 1.26004,1.53623 -0.51931,1.27415 -1.51729,2.27019 -2.46352,3.23936 -0.72401,0.7001 -1.4329,1.43218 -2.2722,1.99635 -0.22783,0.1412 -0.12622,0.0739 -0.30681,0.19875 -0.006,0.009 -0.0185,-2.7e-4 -0.0122,-0.009 v 0 c 0.0763,-0.22448 0.0256,-0.10398 0.16433,-0.3561 0.61901,-0.78746 1.41722,-1.41586 2.08366,-2.1615 0.87542,-0.91655 1.81096,-1.84183 2.33316,-3.01539 0.19163,-0.73236 0.0431,-0.93443 -0.74854,-0.95608 -1.35924,0.10463 -2.67381,0.4814 -3.98136,0.85049 -0.30851,0.0983 -0.44758,-0.33796 -0.13907,-0.4363 z"
       inkscape:connector-curvature="0" />
    <path
       style="opacity:1;fill:none;fill-opacity:1;stroke:#000000;stroke-width:1;stroke-linecap:round;stroke-linejoin:miter;stroke-miterlimit:4;stroke-dasharray:none;stroke-dashoffset:0;stroke-opacity:1"
       id="path859"
       d="m 172.83545,194.76534 c -1.234,0.53858 -2.27606,1.35784 -3.12514,2.3931 -0.71371,1.17964 -0.80532,1.80779 0.38203,2.62094 1.60484,0.71562 3.39527,0.61852 5.10653,0.48955 0.7002,-0.0789 1.39512,-0.0957 2.09039,-0.2086 0.0103,-0.003 0.0141,0.012 0.004,0.0146 v 0 c -0.67268,0.24186 -1.3305,0.53355 -2.04897,0.61624 -1.83863,0.25359 -3.75608,0.36536 -5.47402,-0.46674 -0.19557,-0.1477 -0.41625,-0.26703 -0.58673,-0.4431 -0.85848,-0.88668 -0.48805,-2.06134 0.13005,-2.95131 0.91061,-1.0919 2.01383,-1.96692 3.34086,-2.50769 0.31322,-0.12814 0.49444,0.31484 0.18121,0.44297 z"
       inkscape:connector-curvature="0" />
    <path
       style="opacity:1;fill:none;fill-opacity:1;stroke:#000000;stroke-width:1.01844442;stroke-linecap:round;stroke-linejoin:miter;stroke-miterlimit:4;stroke-dasharray:none;stroke-dashoffset:0;stroke-opacity:1"
       id="path871"
       d="m 52.305566,69.078434 c 0.08597,4.485171 0.31142,8.965397 0.521335,13.445644 0.515612,9.618419 0.749408,19.248792 0.909428,28.879512 0.22936,12.78707 -0.186086,25.5697 -0.697635,38.34348 -0.56004,12.37678 -1.195876,24.7494 -1.47955,37.13713 -0.06881,5.78592 -0.04645,3.04021 -0.07306,8.2371 1.82e-4,0.0111 -0.01492,0.0114 -0.01511,2.7e-4 v 0 c -0.198927,-5.19769 -0.127034,-2.45045 -0.191696,-8.24239 0.129778,-12.39448 0.761992,-24.77062 1.307047,-37.15129 0.494692,-12.76508 0.910587,-25.53832 0.684408,-38.31599 -0.159295,-9.62623 -0.391496,-19.251567 -0.873588,-28.867135 -0.191225,-4.485294 -0.41665,-8.975317 -0.364474,-13.466331 0,-0.200155 0.272905,-0.200155 0.272905,0 z"
       inkscape:connector-curvature="0" />
    <path
       style="opacity:1;fill:none;fill-opacity:1;stroke:#000000;stroke-width:1;stroke-linecap:round;stroke-linejoin:miter;stroke-miterlimit:4;stroke-dasharray:none;stroke-dashoffset:0;stroke-opacity:1"
       id="path875"
       d="m 46.704876,69.416545 c 1.908091,-0.05587 3.805801,-0.288157 5.702419,-0.490828 1.230826,-0.15363 2.457228,-0.246946 3.691457,-0.129937 0.01066,-5.29e-4 0.01156,0.01445 7.93e-4,0.01508 v 0 c -1.203338,0.262888 -2.416982,0.432544 -3.64771,0.531977 -1.911201,0.204925 -3.823932,0.440296 -5.74707,0.489889 -0.294293,0 -0.294293,-0.416192 0,-0.416192 z"
       inkscape:connector-curvature="0" />
    <path
       style="opacity:1;fill:none;fill-opacity:1;stroke:#000000;stroke-width:1;stroke-linecap:round;stroke-linejoin:miter;stroke-miterlimit:4;stroke-dasharray:none;stroke-dashoffset:0;stroke-opacity:1"
       id="path879"
       d="m 47.917388,68.960544 c 0.664411,-1.729557 1.405911,-3.428002 2.157134,-5.121185 0.781484,-1.735045 1.526876,-3.485565 2.220386,-5.257586 0.21617,-0.402391 0.263462,-0.900078 0.51847,-1.282371 0.15135,0.06716 0.327057,0.09523 0.454046,0.201485 0.07122,0.0596 0.635725,1.977496 0.686753,2.13405 0.534704,1.629912 1.076547,3.257182 1.570765,4.899951 0.38009,1.315998 0.783016,2.652913 0.612862,4.032329 0.0011,0.01064 -0.01389,0.01225 -0.01503,0.0016 v 0 C 55.672738,67.300347 55.470099,65.956732 55.054224,64.67635 54.561565,63.035986 54.019576,61.411688 53.4954,59.781267 53.340169,59.28398 52.822718,57.696123 52.837839,57.67964 c 0.07784,-0.08487 0.223289,-0.05648 0.334933,-0.08472 0.02711,-0.05829 -0.03095,0.124968 -0.05201,0.185701 -0.114372,0.329747 -0.241311,0.655047 -0.364985,0.981342 -0.695169,1.779146 -1.440953,3.538 -2.238031,5.274014 -0.74798,1.685819 -1.484466,3.377469 -2.147853,5.098766 -0.123198,0.319966 -0.575696,0.145736 -0.452499,-0.174228 z"
       inkscape:connector-curvature="0" />
    <path
       style="opacity:1;fill:none;fill-opacity:1;stroke:#000000;stroke-width:1;stroke-linecap:round;stroke-linejoin:miter;stroke-miterlimit:4;stroke-dasharray:none;stroke-dashoffset:0;stroke-opacity:1"
       id="path883"
       d="m 36.423205,55.948444 c -0.570484,1.108544 -1.009001,2.27434 -1.25966,3.495278 -0.12101,0.780619 0.0657,1.406266 0.72439,1.845895 0.680323,0.337108 1.401349,0.18587 2.094828,-0.02066 0.787095,-0.269854 1.403725,-0.789146 1.928246,-1.418452 0.475607,-0.633167 0.66503,-1.389438 0.767125,-2.160172 0.04982,-0.443117 0.06665,-0.893048 -0.07988,-1.318705 -0.233346,-0.262966 0.161422,-0.02779 0.168032,-0.01236 0.03001,0.07008 -0.03933,0.147392 -0.05489,0.222023 -0.02191,0.105185 -0.03832,0.211444 -0.05748,0.317164 -0.167179,1.1812 -0.231976,2.37386 -0.296468,3.564146 -0.08346,1.458497 -0.0859,2.919233 -0.02286,4.378277 0.05112,1.137105 0.156141,2.270464 0.255672,3.404016 0.08664,0.685313 0.145783,1.288042 -0.305133,1.846601 -0.715582,0.58089 -1.64854,0.73864 -2.535251,0.87213 -0.74345,0.08871 -1.479,0.146971 -1.971643,-0.490858 -0.310028,-0.99614 0.368096,-1.921483 0.91341,-2.701157 0.344094,-0.499467 0.794523,-0.88523 1.267246,-1.254205 0.0071,-0.0079 0.01839,0.0021 0.01125,0.01011 v 0 c -0.306158,0.494255 -0.632198,0.973593 -0.962941,1.451814 -0.407564,0.660972 -0.955064,1.420289 -0.858848,2.237169 0.286303,0.525518 1.049809,0.350189 1.538227,0.323821 0.786384,-0.116795 1.613434,-0.248936 2.271061,-0.728396 0.398063,-0.426786 0.244851,-0.992116 0.204418,-1.529432 -0.100087,-1.139933 -0.20492,-2.279726 -0.256189,-3.423237 -0.06265,-1.473248 -0.06005,-2.948003 0.02612,-4.420581 0.07035,-1.207273 0.136199,-2.418805 0.32485,-3.614534 0.07083,-0.367842 0.325009,-1.451113 0.723619,-0.584695 0.169051,0.487024 0.15489,0.998373 0.09052,1.505675 -0.122886,0.841404 -0.337376,1.665711 -0.859547,2.356369 -0.576207,0.688064 -1.246825,1.264187 -2.110499,1.559213 -0.820314,0.250166 -1.658382,0.400746 -2.450835,-0.02866 -0.780124,-0.558792 -1.043064,-1.318898 -0.889376,-2.271692 0.26185,-1.255614 0.713399,-2.453986 1.309965,-3.590351 0.126186,-0.24929 0.478735,-0.07084 0.35255,0.178451 z"
       inkscape:connector-curvature="0" />
    <path
       style="opacity:1;fill:none;fill-opacity:1;stroke:#000000;stroke-width:1;stroke-linecap:round;stroke-linejoin:miter;stroke-miterlimit:4;stroke-dasharray:none;stroke-dashoffset:0;stroke-opacity:1"
       id="path885"
       d="m 45.069191,157.52656 c 1.449464,-0.1563 2.901643,-0.27759 4.358259,-0.33838 0.943356,0.007 0.487388,-0.0291 1.368708,0.0972 0.01066,-5.3e-4 0.01154,0.0145 7.93e-4,0.0151 v 0 c -0.858088,0.22403 -0.411548,0.13398 -1.341424,0.26106 -1.444628,0.15783 -2.891443,0.29375 -4.337523,0.43738 -0.334034,0.0345 -0.382903,-0.43784 -0.04887,-0.47239 z"
       inkscape:connector-curvature="0" />
    <path
       style="opacity:1;fill:none;fill-opacity:1;stroke:#000000;stroke-width:1;stroke-linecap:round;stroke-linejoin:miter;stroke-miterlimit:4;stroke-dasharray:none;stroke-dashoffset:0;stroke-opacity:1"
       id="path887"
       d="m 57.684937,158.53228 c 1.318609,0.11862 2.641613,0.17148 3.960674,0.2838 0.705133,0.039 1.388624,0.18213 2.058744,0.39661 0.01064,0.001 0.009,0.0162 -0.0016,0.015 v 0 c -0.694465,0.0694 -1.389891,0.0822 -2.08693,0.032 -1.32756,-0.0651 -2.655679,-0.13151 -3.979413,-0.25426 -0.334584,-0.0343 -0.28607,-0.50748 0.04851,-0.47317 z"
       inkscape:connector-curvature="0" />
    <path
       style="opacity:1;fill:none;fill-opacity:1;stroke:#000000;stroke-width:1;stroke-linecap:round;stroke-linejoin:miter;stroke-miterlimit:4;stroke-dasharray:none;stroke-dashoffset:0;stroke-opacity:1"
       id="path889"
       d="m 71.226211,159.10939 c 1.499528,-0.122 2.997269,-0.25995 4.491961,-0.43162 0.490132,-0.0774 0.969049,-0.0956 1.458367,-0.0303 0.0105,-0.002 0.01333,0.0129 0.0028,0.0148 v 0 c -0.444193,0.24375 -0.902139,0.37192 -1.410441,0.42888 -1.498142,0.1956 -3.003626,0.32475 -4.510606,0.43089 -0.291846,0.0227 -0.323945,-0.39003 -0.0321,-0.41273 z"
       inkscape:connector-curvature="0" />
    <path
       style="opacity:1;fill:none;fill-opacity:1;stroke:#000000;stroke-width:1;stroke-linecap:round;stroke-linejoin:miter;stroke-miterlimit:4;stroke-dasharray:none;stroke-dashoffset:0;stroke-opacity:1"
       id="path891"
       d="m 45.299394,82.946157 c 1.517536,0.02265 3.035234,0.01365 4.552736,0.03852 0.801507,-0.01717 1.589878,0.104251 2.375638,0.242056 0.01069,5.29e-4 0.01003,0.01556 -5.29e-4,0.01511 v 0 c -0.79011,0.07065 -1.581097,0.125606 -2.375197,0.119139 -1.520147,0.02328 -3.040877,0.02146 -4.560903,-0.01053 -0.285877,-0.0059 -0.277514,-0.410208 0.0084,-0.404294 z"
       inkscape:connector-curvature="0" />
    <path
       style="opacity:1;fill:none;fill-opacity:1;stroke:#000000;stroke-width:1;stroke-linecap:round;stroke-linejoin:miter;stroke-miterlimit:4;stroke-dasharray:none;stroke-dashoffset:0;stroke-opacity:1"
       id="path893"
       d="m 61.476355,84.643665 c 1.260385,-0.02698 2.520339,-0.0072 3.777186,0.09112 0.576821,0.06398 1.120775,0.184221 1.701274,0.203549 0.01069,2.65e-4 0.01019,0.01548 -5.3e-4,0.01511 v 0 c -0.580117,-0.01931 -1.1333,0.06398 -1.713354,0.07207 -1.252447,-0.01032 -2.504993,-0.03637 -3.757499,-0.01484 -0.259514,0.005 -0.266618,-0.361984 -0.0071,-0.367009 z"
       inkscape:connector-curvature="0" />
    <g
       id="g964">
      <path
         inkscape:connector-curvature="0"
         d="m 97.377966,86.33271 c -1.130946,-0.08196 -2.262635,-0.130524 -3.396499,-0.112348 -1.185426,0.03191 -2.345579,0.27263 -3.477773,0.610116 -1.715572,0.540518 -3.225432,1.500672 -4.646179,2.579542 -1.709986,1.367232 -3.070777,3.073109 -4.234965,4.912458 -1.043996,1.682684 -1.573292,3.548827 -1.794272,5.498859 -0.158258,1.857403 0.321881,3.614133 1.026247,5.310043 0.755349,1.64693 1.811052,3.12646 2.897397,4.56721 1.155583,1.46244 2.370452,2.87463 3.476021,4.37604 1.116952,1.52126 1.903648,3.22384 2.45019,5.02169 0.519213,1.84385 0.456951,3.74608 0.279765,5.63132 -0.20565,1.96039 -0.724873,3.86236 -1.286359,5.74507 -0.594495,1.84952 -1.149207,3.70979 -1.628701,5.59241 -0.47762,1.88678 -0.711157,3.81778 -0.843499,5.7556 -0.131813,1.82283 0.06809,3.6294 0.445886,5.40992 0.404188,1.78173 1.157364,3.43339 2.110774,4.98166 0.999829,1.59019 2.437064,2.71106 4.044268,3.63006 1.588669,0.83022 3.311003,1.30698 5.094393,1.42389 1.527868,0.0285 2.85909,-0.64222 4.14405,-1.39083 1.69629,-1.02591 3.15222,-2.36654 4.50741,-3.80007 1.29527,-1.42395 2.35658,-3.03273 3.36403,-4.66646 0.98422,-1.55529 1.66102,-3.2545 2.17608,-5.01319 0.48311,-1.74071 0.59245,-3.53764 0.55988,-5.33394 -0.0676,-1.87352 -0.3597,-3.7269 -0.66817,-5.57272 -0.3475,-1.8337 -0.61699,-3.68014 -0.8585,-5.53032 -0.22321,-1.76124 -0.41099,-3.52709 -0.56725,-5.29549 -0.14935,-1.57006 -0.22705,-3.14465 -0.15939,-4.72067 0.0764,-1.56651 0.65802,-2.98133 1.39545,-4.33975 0.84452,-1.42357 1.86632,-2.73046 2.84865,-4.05948 0.87885,-1.15038 1.69141,-2.34382 2.30495,-3.65685 0.51512,-1.15572 0.65007,-2.39129 0.64343,-3.64162 -0.0659,-1.612573 -0.50013,-3.171528 -0.98281,-4.701041 -0.68367,-2.137537 -1.81514,-4.05814 -3.13705,-5.854973 -1.43051,-1.89521 -3.26089,-3.373998 -5.26847,-4.610751 -1.61644,-0.928386 -3.37347,-1.524846 -5.23651,-1.614387 -1.32103,6.9e-5 -2.28069,0.735412 -3.213075,1.580206 -0.666686,0.616492 -0.363238,0.291391 -0.915419,0.970539 -0.0062,0.0087 -0.01852,1.6e-5 -0.01236,-0.0087 v 0 c 0.463455,-0.760671 0.22573,-0.370927 0.713232,-1.169201 0.924382,-1.085258 1.961492,-1.896007 3.449292,-1.94741 1.97519,0.05582 3.83561,0.660524 5.54943,1.644705 2.08118,1.276829 3.97442,2.809372 5.45614,4.771226 1.36207,1.855473 2.52991,3.837083 3.23526,6.042771 0.50333,1.591977 0.95184,3.21532 1.01561,4.894326 0.004,1.34729 -0.14614,2.67807 -0.70516,3.92154 -0.63477,1.35084 -1.46436,2.58392 -2.37233,3.76706 -0.96451,1.30491 -1.96827,2.58759 -2.80088,3.98314 -0.69222,1.27004 -1.24443,2.58965 -1.3147,4.05668 -0.0664,1.54739 0.0158,3.09339 0.16039,4.63491 0.15534,1.75918 0.34335,3.51572 0.56643,5.26762 0.24268,1.84221 0.51151,3.68092 0.85763,5.50698 0.31377,1.87793 0.61004,3.76376 0.67674,5.66995 0.0323,1.86311 -0.0839,3.7268 -0.5876,5.53145 -0.5339,1.81447 -1.23456,3.56729 -2.2506,5.17223 -1.03313,1.67022 -2.12018,3.31559 -3.44751,4.77083 -1.39903,1.47796 -2.90394,2.85806 -4.65468,3.91481 -1.40029,0.81111 -2.8542,1.51614 -4.515757,1.47055 -1.880012,-0.13414 -3.696073,-0.62855 -5.369641,-1.51124 -1.696649,-0.97776 -3.212502,-2.16997 -4.267907,-3.85259 -0.989063,-1.61189 -1.773367,-3.32973 -2.192102,-5.18343 -0.38735,-1.83855 -0.594926,-3.7038 -0.458565,-5.58552 0.135583,-1.97616 0.375277,-3.94538 0.862854,-5.86935 0.481822,-1.89101 1.041683,-3.75877 1.639882,-5.61622 0.551468,-1.84326 1.065728,-3.70399 1.271585,-5.62346 0.176442,-1.80474 0.24462,-3.62673 -0.24352,-5.39487 -0.521285,-1.73365 -1.274104,-3.3761 -2.345854,-4.8449 -1.103148,-1.50037 -2.317626,-2.90999 -3.469894,-4.37214 -1.115515,-1.48135 -2.19891,-3.00303 -2.969448,-4.69845 -0.739153,-1.79016 -1.234165,-3.64575 -1.057759,-5.603546 0.241811,-2.034513 0.796536,-3.982997 1.89529,-5.735079 1.207153,-1.88999 2.615771,-3.643011 4.384249,-5.043191 1.477452,-1.109694 3.045076,-2.09826 4.824148,-2.651437 1.181184,-0.347607 2.385091,-0.583412 3.621148,-0.603364 1.152078,-0.01148 2.309146,0.01193 3.451664,0.173358 0.30988,0.03443 0.261186,0.472667 -0.04869,0.438237 z"
         id="path815"
         style="opacity:1;fill:none;fill-opacity:1;stroke:#000000;stroke-width:1;stroke-linecap:round;stroke-linejoin:miter;stroke-miterlimit:4;stroke-dasharray:none;stroke-dashoffset:0;stroke-opacity:1" />
      <path
         inkscape:connector-curvature="0"
         d="m 85.064485,100.95978 c 2.614377,-1.296182 5.184603,-2.680323 7.761719,-4.048642 4.2682,-2.294983 8.615116,-4.435952 13.001666,-6.493902 1.8673,-0.8202 3.6945,-1.759013 5.62362,-2.433222 0.8948,-0.272317 0.49593,-0.139946 1.20019,-0.386096 0.01,-0.0042 0.0157,0.0098 0.006,0.01394 v 0 c -1.49165,0.738367 1.00618,-0.508283 -1.10803,0.596918 -1.807,0.94461 -3.71156,1.69358 -5.53705,2.599934 -4.37215,2.072227 -8.714863,4.205946 -12.979264,6.493425 -2.58813,1.366194 -5.165433,2.764545 -7.829163,3.979115 -0.227312,0.0987 -0.366866,-0.22279 -0.139555,-0.32147 z"
         id="path817"
         style="opacity:1;fill:none;fill-opacity:1;stroke:#000000;stroke-width:1;stroke-linecap:round;stroke-linejoin:miter;stroke-miterlimit:4;stroke-dasharray:none;stroke-dashoffset:0;stroke-opacity:1" />
      <path
         inkscape:connector-curvature="0"
         d="m 86.471484,108.41522 c 2.73863,-0.58005 5.359783,-1.60053 7.978637,-2.568 4.675322,-1.77623 9.355819,-3.53755 14.060819,-5.23378 1.38088,-0.44173 2.72788,-1.034181 4.14898,-1.348805 0.3449,-0.07636 0.69971,-0.09833 1.04809,-0.156792 0.0105,-0.0021 0.0133,0.01283 0.003,0.01484 v 0 c -0.63641,0.137076 -0.12218,-2.64e-4 -0.97561,0.364009 -1.3352,0.570008 -2.70828,1.048298 -4.06663,1.558238 -4.68965,1.73679 -9.364986,3.51159 -14.044637,5.27504 -2.648545,0.96951 -5.304827,2.00788 -8.090874,2.51058 -0.293687,0.0436 -0.355303,-0.37177 -0.06162,-0.41534 z"
         id="path819"
         style="opacity:1;fill:none;fill-opacity:1;stroke:#000000;stroke-width:1;stroke-linecap:round;stroke-linejoin:miter;stroke-miterlimit:4;stroke-dasharray:none;stroke-dashoffset:0;stroke-opacity:1" />
      <path
         inkscape:connector-curvature="0"
         d="m 88.469241,118.4221 c 2.183567,-1.19662 4.40427,-2.32226 6.645082,-3.40716 2.892732,-1.40225 5.896227,-2.55034 8.954557,-3.53217 0.8737,-0.28393 1.76854,-0.48285 2.66975,-0.65275 0.0103,-0.003 0.0145,0.0116 0.004,0.0145 v 0 c -0.84896,0.33579 -1.70339,0.65707 -2.56859,0.94915 -3.00786,1.07384 -5.985185,2.23721 -8.862466,3.62909 -2.237303,1.08312 -4.447937,2.21765 -6.658522,3.35399 -0.250794,0.13012 -0.434809,-0.22456 -0.184013,-0.35467 z"
         id="path821"
         style="opacity:1;fill:none;fill-opacity:1;stroke:#000000;stroke-width:1;stroke-linecap:round;stroke-linejoin:miter;stroke-miterlimit:4;stroke-dasharray:none;stroke-dashoffset:0;stroke-opacity:1" />
      <path
         inkscape:connector-curvature="0"
         d="m 86.794138,127.34762 c 2.60799,-0.91997 5.148733,-2.02135 7.715326,-3.04972 3.844214,-1.55403 7.790326,-2.82766 11.784546,-3.93176 1.1415,-0.25831 2.2776,-0.67954 3.46035,-0.64119 0.0106,-0.002 0.0128,0.0134 0.002,0.0149 v 0 c -1.10193,0.38498 -2.23311,0.68328 -3.34877,1.02503 -3.95895,1.16605 -7.883744,2.45134 -11.715807,3.98933 -2.580786,1.03081 -5.136936,2.15155 -7.790662,2.98288 -0.275431,0.0758 -0.382664,-0.31369 -0.107233,-0.38952 z"
         id="path823"
         style="opacity:1;fill:none;fill-opacity:1;stroke:#000000;stroke-width:1;stroke-linecap:round;stroke-linejoin:miter;stroke-miterlimit:4;stroke-dasharray:none;stroke-dashoffset:0;stroke-opacity:1" />
      <path
         inkscape:connector-curvature="0"
         d="m 85.291315,134.68504 c 2.661441,-1.03165 5.313947,-2.08598 7.975513,-3.11731 3.599584,-1.41779 7.280512,-2.60856 11.021822,-3.58824 0.89508,-0.25452 1.81716,-0.3624 2.73698,-0.47572 0.0105,-0.002 0.0134,0.0128 0.003,0.0148 v 0 c -0.89071,0.23787 -1.7641,0.52926 -2.65149,0.77974 -3.69786,1.08202 -7.359794,2.27986 -10.946462,3.69228 -2.664537,1.03077 -5.317501,2.09365 -8.004842,3.06401 -0.261358,0.095 -0.395764,-0.27458 -0.134406,-0.36961 z"
         id="path825"
         style="opacity:1;fill:none;fill-opacity:1;stroke:#000000;stroke-width:1;stroke-linecap:round;stroke-linejoin:miter;stroke-miterlimit:4;stroke-dasharray:none;stroke-dashoffset:0;stroke-opacity:1" />
      <path
         inkscape:connector-curvature="0"
         d="m 85.104091,145.7883 c 2.718062,-0.83707 5.286634,-2.10284 7.876005,-3.26602 3.387606,-1.57123 6.869792,-2.91147 10.441174,-3.99776 1.13578,-0.205 2.36193,-0.9104 3.54389,-0.62307 0.0106,10e-4 0.009,0.0161 -10e-4,0.0151 v 0 c -0.37584,0.0222 -0.1103,-0.0108 -0.63248,0.14452 -0.93132,0.27696 -1.85941,0.56286 -2.78451,0.86072 -3.52841,1.15608 -6.993448,2.4901 -10.366647,4.0459 -2.615743,1.17389 -5.215046,2.48453 -7.999558,3.20946 -0.274929,0.054 -0.351349,-0.33477 -0.07642,-0.38881 z"
         id="path827"
         style="opacity:1;fill:none;fill-opacity:1;stroke:#000000;stroke-width:1;stroke-linecap:round;stroke-linejoin:miter;stroke-miterlimit:4;stroke-dasharray:none;stroke-dashoffset:0;stroke-opacity:1" />
      <path
         inkscape:connector-curvature="0"
         d="m 89.265566,153.62712 c 2.09052,-0.6772 4.110072,-1.5486 6.132443,-2.40269 2.192841,-0.94075 4.393004,-1.86338 6.721951,-2.4047 0.0102,-0.003 0.0148,0.0111 0.005,0.0144 v 0 c -2.193101,0.9127 -4.400803,1.7897 -6.567622,2.76493 -2.033825,0.86698 -4.065698,1.76533 -6.192475,2.38347 -0.251311,0.07 -0.350242,-0.28546 -0.09893,-0.35541 z"
         id="path829"
         style="opacity:1;fill:none;fill-opacity:1;stroke:#000000;stroke-width:1;stroke-linecap:round;stroke-linejoin:miter;stroke-miterlimit:4;stroke-dasharray:none;stroke-dashoffset:0;stroke-opacity:1" />
      <path
         inkscape:connector-curvature="0"
         d="m 73.582974,83.147388 c 1.236233,0.08333 2.442765,0.333928 3.650861,0.589198 0.01064,0.0011 0.0091,0.01614 -0.0016,0.01503 v 0 c -1.23612,0.0057 -2.469581,0.01061 -3.697134,-0.174445 -0.303908,-0.03381 -0.256101,-0.463601 0.04781,-0.429795 z"
         id="path895"
         style="opacity:1;fill:none;fill-opacity:1;stroke:#000000;stroke-width:1;stroke-linecap:round;stroke-linejoin:miter;stroke-miterlimit:4;stroke-dasharray:none;stroke-dashoffset:0;stroke-opacity:1" />
    </g>
    <path
       style="opacity:1;fill:none;fill-opacity:1;stroke:#000000;stroke-width:1;stroke-linecap:round;stroke-linejoin:miter;stroke-miterlimit:4;stroke-dasharray:none;stroke-dashoffset:0;stroke-opacity:1"
       id="path897"
       d="m 77.34805,159.89039 c -0.01762,1.16552 -0.03832,2.33079 -0.117925,3.49387 7.94e-4,0.0107 -0.01439,0.0117 -0.01508,10e-4 v 0 c -0.232529,-1.15449 -0.300617,-2.32531 -0.247288,-3.50261 0.0055,-0.26892 0.385781,-0.26116 0.380299,0.008 z"
       inkscape:connector-curvature="0" />
    <path
       style="opacity:1;fill:none;fill-opacity:1;stroke:#000000;stroke-width:1;stroke-linecap:round;stroke-linejoin:miter;stroke-miterlimit:4;stroke-dasharray:none;stroke-dashoffset:0;stroke-opacity:1"
       id="path903"
       d="m 76.920412,170.12459 c -0.266142,1.5103 -0.638927,3.01237 -0.76195,4.54259 -5.29e-4,0.0107 -0.0155,0.0101 -0.01511,-5.3e-4 v 0 c -0.0067,-1.55601 -0.05879,-3.10971 0.360164,-4.63045 0.06253,-0.29479 0.479425,-0.20636 0.416894,0.0884 z"
       inkscape:connector-curvature="0" />
    <path
       style="opacity:1;fill:none;fill-opacity:1;stroke:#000000;stroke-width:1;stroke-linecap:round;stroke-linejoin:miter;stroke-miterlimit:4;stroke-dasharray:none;stroke-dashoffset:0;stroke-opacity:1"
       id="path905"
       d="m 75.864801,180.26468 c -0.27268,1.61508 -0.445119,3.2441 -0.615958,4.87232 -0.107929,0.84744 -0.119557,1.7026 -0.232505,2.54874 0.0013,0.0106 -0.01371,0.0125 -0.015,0.002 v 0 c -0.320543,-0.83687 -0.30644,-1.70798 -0.234855,-2.59615 0.138488,-1.64605 0.326581,-3.28909 0.615379,-4.91618 0.06324,-0.34149 0.546184,-0.25206 0.482944,0.0894 z"
       inkscape:connector-curvature="0" />
    <path
       style="opacity:1;fill:none;fill-opacity:1;stroke:#000000;stroke-width:1;stroke-linecap:round;stroke-linejoin:miter;stroke-miterlimit:4;stroke-dasharray:none;stroke-dashoffset:0;stroke-opacity:1"
       id="path907"
       d="m 118.86652,170.25248 c -0.26814,1.40391 -0.54695,2.80372 -0.90141,4.18858 -10e-4,0.0106 -0.0164,0.009 -0.015,-0.002 v 0 c 0.0259,-1.43552 0.13856,-2.86443 0.42452,-4.27439 0.0621,-0.34781 0.55399,-0.25998 0.49188,0.0878 z"
       inkscape:connector-curvature="0" />
    <path
       style="opacity:1;fill:none;fill-opacity:1;stroke:#000000;stroke-width:1;stroke-linecap:round;stroke-linejoin:miter;stroke-miterlimit:4;stroke-dasharray:none;stroke-dashoffset:0;stroke-opacity:1"
       id="path909"
       d="m 118.35448,178.27251 c -0.18005,1.72927 -0.41876,3.45181 -0.66357,5.17289 -0.18094,1.12985 -0.0659,0.59228 -0.33291,1.61529 -0.001,0.0106 -0.016,0.009 -0.0151,-0.001 v 0 c -0.0759,-1.0581 -0.0648,-0.50651 -0.0183,-1.65501 0.14292,-1.73038 0.36526,-3.45091 0.56728,-5.17506 0.0306,-0.32707 0.49315,-0.28379 0.46254,0.0433 z"
       inkscape:connector-curvature="0" />
    <path
       style="opacity:1;fill:none;fill-opacity:1;stroke:#000000;stroke-width:1;stroke-linecap:round;stroke-linejoin:miter;stroke-miterlimit:4;stroke-dasharray:none;stroke-dashoffset:0;stroke-opacity:1"
       id="path911"
       d="m 62.271957,196.89584 c 0.519681,-0.57036 0.961646,-1.32146 1.704634,-1.61808 0.795096,0.0466 0.690276,1.00757 0.646551,1.58671 -0.08836,0.71753 -0.288308,1.4138 -0.551034,2.08532 -0.10218,0.27799 -0.248952,0.53614 -0.364554,0.80804 -0.04824,0.12234 -0.251624,0.66768 -0.196948,-0.37553 2.65e-4,-0.007 0.986094,-1.01675 1.055741,-1.09125 0.622892,-0.65811 1.239636,-1.322 1.829167,-2.01027 0.245182,-0.27832 0.475967,-0.56806 0.687055,-0.87289 0.637984,-0.73937 0.503684,0.84316 0.490508,0.99322 -0.04808,0.5647 -0.175591,1.11966 -0.206229,1.68573 -0.0085,0.36971 0.186298,0.46227 0.499422,0.56988 0.369546,0.0807 0.737661,0.14991 1.098888,0.26328 0.01066,-5.3e-4 0.01154,0.0145 7.94e-4,0.0151 v 0 c -0.398349,0.17018 -0.794409,0.25289 -1.229455,0.17578 -0.558004,-0.13785 -0.89648,-0.44653 -0.879586,-1.05382 0.03554,-0.57222 0.153675,-1.13411 0.215024,-1.70377 0.0046,-0.0446 0.01643,-0.65304 0.04186,-0.66723 0.103761,-0.0579 0.238884,0.007 0.356285,-0.0114 0.0213,-0.003 0.03295,-0.0708 0.04034,-0.0505 0.0078,0.0213 -0.02545,0.0376 -0.03817,0.0564 -0.222797,0.31556 -0.479544,0.6054 -0.732036,0.89711 -0.597159,0.68988 -1.214953,1.36115 -1.843857,2.02221 -0.122349,0.13066 -0.947198,1.08929 -1.078013,1.11345 -0.641969,0.11858 -0.607764,0.0808 -0.531387,-0.12816 0.108575,-0.2723 0.25495,-0.52814 0.357802,-0.80312 0.247853,-0.629 0.435477,-1.28163 0.522922,-1.95359 0.03131,-0.37664 0.0408,-0.76083 -0.03879,-1.1267 -0.666451,0.18944 -1.025112,1.0382 -1.502066,1.47578 -0.199186,0.25097 -0.554114,-0.0307 -0.354931,-0.28169 z"
       inkscape:connector-curvature="0" />
    <path
       style="opacity:1;fill:none;fill-opacity:1;stroke:#000000;stroke-width:1;stroke-linecap:round;stroke-linejoin:miter;stroke-miterlimit:4;stroke-dasharray:none;stroke-dashoffset:0;stroke-opacity:1"
       id="path913"
       d="m 70.162747,201.64939 c -0.275497,0.95492 -0.494612,1.92484 -0.662755,2.90412 -0.03877,0.28191 -0.09614,0.5646 -0.101436,0.85016 -0.613648,-0.20731 -0.416485,-0.23293 -0.301365,-0.80569 0.179419,-0.82017 0.442761,-1.61889 0.745289,-2.40104 0.246737,-0.64196 0.58407,-1.24011 0.989981,-1.79348 0.391202,-0.48526 0.827455,-0.298 1.207095,0.0824 0.468995,0.58099 0.632867,1.30495 0.770302,2.02089 0.07872,0.48062 0.143061,0.96404 0.172379,1.45034 0.119377,0.53457 -0.461941,0.24824 -0.168812,-0.17776 0.380759,-0.61247 0.819145,-1.18227 1.282446,-1.73375 0.453964,-0.52973 0.967565,-1.00107 1.527376,-1.41582 0.5925,-0.36404 1.005988,0.12685 1.340953,0.57818 0.425011,0.6344 0.668116,1.35845 0.874499,2.08687 0.155104,0.50314 0.232349,1.01586 0.222056,1.54114 -0.01463,0.0653 -0.02928,0.13065 -0.04391,0.19598 0.0019,0.0105 -0.01299,0.0132 -0.01487,0.003 v 0 c -0.03619,-0.0552 -0.07237,-0.11031 -0.108561,-0.16547 -0.208558,-0.46834 -0.384993,-0.94653 -0.506188,-1.446 -0.192601,-0.67553 -0.414242,-1.348 -0.799732,-1.94206 -0.162584,-0.2305 -0.370798,-0.67304 -0.705564,-0.50061 -0.533721,0.39181 -1.018927,0.84299 -1.450428,1.34596 -0.452408,0.54289 -0.882155,1.1024 -1.250368,1.70683 -0.217858,0.31451 -0.718129,0.40604 -0.651944,-0.0435 -0.03942,-0.46747 -0.09276,-0.93379 -0.170891,-1.39653 -0.11973,-0.62757 -0.251481,-1.26862 -0.647494,-1.78856 -0.178713,-0.19202 -0.296796,-0.38859 -0.508897,-0.13125 -0.38001,0.52218 -0.695468,1.08679 -0.927576,1.69076 -0.293476,0.7568 -0.547656,1.53027 -0.719971,2.3244 -0.01916,0.0981 -0.192789,1.45917 -0.624885,0.69058 0.02384,-0.303 0.06578,-0.60431 0.115626,-0.90406 0.172233,-0.99547 0.397684,-1.98085 0.685636,-2.94959 0.08759,-0.30549 0.51962,-0.18161 0.432024,0.12388 z"
       inkscape:connector-curvature="0" />
    <path
       style="opacity:1;fill:none;fill-opacity:1;stroke:#000000;stroke-width:1;stroke-linecap:round;stroke-linejoin:miter;stroke-miterlimit:4;stroke-dasharray:none;stroke-dashoffset:0;stroke-opacity:1"
       id="path915"
       d="m 81.460881,201.11046 c -0.184779,0.98389 -0.378079,1.96672 -0.531193,2.95616 -0.04129,0.24923 -0.06681,0.47826 -0.02172,0.72548 0.0048,0.01 -0.0087,0.0163 -0.01349,0.007 v 0 c -0.201406,-0.23222 -0.336703,-0.44173 -0.337331,-0.76613 0.03177,-1.01779 0.264957,-2.0128 0.450335,-3.01089 0.06263,-0.32061 0.516048,-0.23204 0.453413,0.0886 z"
       inkscape:connector-curvature="0" />
    <path
       style="opacity:1;fill:none;fill-opacity:1;stroke:#000000;stroke-width:1;stroke-linecap:round;stroke-linejoin:miter;stroke-miterlimit:4;stroke-dasharray:none;stroke-dashoffset:0;stroke-opacity:1"
       id="path917"
       d="m 80.409017,196.7109 c 0.937752,0.003 1.874607,-0.0954 2.811338,-0.0261 0.26053,0.008 0.429205,0.18235 0.66447,0.2603 0.01045,0.002 0.0073,0.017 -0.0031,0.0148 v 0 c -0.241472,-0.0228 -0.408164,0.0851 -0.648128,0.12168 -0.935813,0.1358 -1.878865,0.18647 -2.824549,0.18254 -0.391173,0 -0.391173,-0.55321 0,-0.55321 z"
       inkscape:connector-curvature="0" />
    <path
       style="opacity:1;fill:none;fill-opacity:1;stroke:#000000;stroke-width:1;stroke-linecap:round;stroke-linejoin:miter;stroke-miterlimit:4;stroke-dasharray:none;stroke-dashoffset:0;stroke-opacity:1"
       id="path919"
       d="m 84.475724,203.44031 c -0.03481,0.96305 0.0024,1.92504 0.129278,2.88002 0.04903,0.64128 0.436128,0.69273 -0.226827,0.54044 0.03488,-0.68643 0.09145,-1.36822 0.191714,-2.04845 0.141978,-0.87858 0.33178,-1.74991 0.690835,-2.56669 0.285898,-0.57821 0.768403,-0.8326 1.38584,-0.91134 0.857073,0.01 1.582549,0.4758 2.247349,0.96992 0.760939,0.5926 1.217362,1.40513 1.538272,2.29577 0.163534,0.55132 0.331118,1.12918 0.238728,1.70691 -0.02498,0.0609 -0.04995,0.12188 -0.07492,0.18283 0.0021,0.0104 -0.0126,0.0136 -0.01479,0.003 v 0 c -0.0475,-0.0467 -0.095,-0.0933 -0.142499,-0.14 -0.285038,-0.47607 -0.341355,-1.04856 -0.529037,-1.56564 -0.281715,-0.7915 -0.679466,-1.51258 -1.344369,-2.05088 -0.552519,-0.43096 -1.156052,-0.86421 -1.873562,-0.93853 -0.460351,0.0257 -0.805733,0.20405 -1.021649,0.62794 -0.343154,0.77943 -0.516292,1.61393 -0.653256,2.45175 -0.0994,0.69031 -0.147884,1.38212 -0.191654,2.07756 -0.149915,0.081 -0.287078,0.19223 -0.449749,0.24291 -0.07197,0.0224 -0.232196,-0.76662 -0.231209,-0.81568 -0.133059,-0.98074 -0.169434,-1.96937 -0.133861,-2.95861 0.0118,-0.32907 0.477174,-0.31239 0.465379,0.0167 z"
       inkscape:connector-curvature="0" />
    <path
       style="opacity:1;fill:none;fill-opacity:1;stroke:#000000;stroke-width:1;stroke-linecap:round;stroke-linejoin:miter;stroke-miterlimit:4;stroke-dasharray:none;stroke-dashoffset:0;stroke-opacity:1"
       id="path921"
       d="m 112.33479,193.98124 c 0.84122,-0.5936 1.74482,-1.10993 2.76161,-1.31153 1.0213,-0.0467 1.27893,0.78841 1.32959,1.64848 -0.0483,1.07379 -0.52327,2.03483 -1.07352,2.9342 -0.32131,0.48991 -0.69414,0.94941 -1.14758,1.32266 -1.27802,0.63023 -0.006,-1.06171 0.0693,-1.16046 0.69348,-0.87079 1.43124,-1.70513 2.1693,-2.53808 0.3798,-0.38892 0.6948,-0.84321 1.08694,-1.22017 0.12873,0.12312 0.30816,0.20923 0.38617,0.36936 0.002,0.005 -0.54374,1.52035 -0.58625,1.67217 -0.17506,0.84611 0.009,1.26687 0.75835,1.67131 1.13873,0.4381 2.37494,0.29714 3.56737,0.34265 0.17293,-0.0192 0.34586,-0.0385 0.51879,-0.0577 0.0105,-0.002 0.0135,0.0126 0.003,0.0148 v 0 c -0.16855,0.0513 -0.33709,0.10264 -0.50564,0.15397 -1.25088,0.41806 -2.6087,0.51077 -3.86059,0.0319 -0.96622,-0.5734 -1.25322,-1.19681 -0.994,-2.30642 0.036,-0.11904 0.56573,-1.60742 0.60235,-1.61369 0.14674,-0.0251 0.29097,0.0632 0.43646,0.0948 -0.42156,0.29163 -0.64921,0.85247 -1.05624,1.16376 -0.73188,0.82245 -1.46183,1.6478 -2.14791,2.50919 -0.12705,0.16687 -0.47948,0.70978 -0.4943,0.70928 -0.12714,-0.004 -0.45633,-0.0774 -0.35129,-0.14916 0.0291,-0.0199 0.0555,-0.0434 0.0833,-0.0651 0.40702,-0.34495 0.74798,-0.75878 1.04092,-1.20378 0.50059,-0.81342 0.94588,-1.68071 1.0081,-2.652 -0.0195,-0.54693 -0.069,-1.19985 -0.75293,-1.20309 -0.95043,0.17416 -1.78706,0.68681 -2.58143,1.21745 -0.26511,0.19088 -0.53505,-0.18403 -0.26994,-0.37491 z"
       inkscape:connector-curvature="0" />
    <path
       style="opacity:1;fill:none;fill-opacity:1;stroke:#000000;stroke-width:1;stroke-linecap:round;stroke-linejoin:miter;stroke-miterlimit:4;stroke-dasharray:none;stroke-dashoffset:0;stroke-opacity:1"
       id="path923"
       d="m 122.58784,202.61675 c -0.1783,0.8187 -0.32248,1.64844 -0.36814,2.48604 -0.05,0.45405 0.24301,0.65895 -0.23661,0.3237 0.17821,-0.48681 0.23089,-1.01369 0.31991,-1.52288 0.1227,-0.65718 0.24192,-1.31622 0.46609,-1.94743 0.2187,-0.5748 0.64878,-0.8356 1.23298,-0.92855 0.77525,-0.0366 1.42562,0.31499 2.00545,0.79327 0.54321,0.48918 0.86193,1.12951 1.08545,1.81304 0.10692,0.36487 0.16503,0.74151 0.19294,1.12003 0.011,0.23933 0.048,0.35792 -0.44702,0.007 -0.10332,-0.0732 0.0187,-0.25275 0.0363,-0.37816 0.14119,-0.72692 0.63587,-1.29073 1.12237,-1.81907 0.53426,-0.57498 1.16346,-1.02141 1.88714,-1.31946 0.71695,-0.25009 1.29144,-0.0457 1.81427,0.46523 0.47139,0.54614 0.68161,1.23697 0.83751,1.92721 0.0824,0.41948 0.13324,0.84526 -0.0277,1.24863 0.001,0.0106 -0.0138,0.0124 -0.015,0.002 v 0 c -0.24043,-0.3371 -0.31702,-0.74217 -0.41697,-1.13864 -0.15633,-0.59747 -0.31992,-1.21215 -0.72111,-1.69808 -0.37345,-0.39134 -0.7628,-0.57006 -1.30609,-0.39557 -0.66997,0.26131 -1.24312,0.67515 -1.73302,1.20306 -0.42517,0.46049 -0.87538,0.951 -1.00202,1.58547 -0.0138,0.10232 0.0607,0.25583 -0.0281,0.30848 -0.48673,0.28852 -0.44323,0.24152 -0.44436,0.0276 -0.0136,-0.34199 -0.0761,-0.68098 -0.16682,-1.01057 -0.19377,-0.60617 -0.46874,-1.17848 -0.94528,-1.61613 -0.4793,-0.40692 -1.01872,-0.72063 -1.66805,-0.71048 -0.43424,0.0539 -0.73755,0.22313 -0.89784,0.65296 -0.21341,0.61003 -0.32128,1.24823 -0.4431,1.88146 -0.0992,0.56395 -0.14937,1.15416 -0.38365,1.6812 -0.15754,0.0324 -0.31198,0.0893 -0.47263,0.0971 -0.0706,0.003 -0.0672,-0.64545 -0.0617,-0.67463 0.0451,-0.86112 0.19205,-1.71418 0.37626,-2.55562 0.0649,-0.28891 0.47351,-0.19709 0.40859,0.0918 z"
       inkscape:connector-curvature="0" />
    <path
       style="opacity:1;fill:none;fill-opacity:1;stroke:#000000;stroke-width:1;stroke-linecap:round;stroke-linejoin:miter;stroke-miterlimit:4;stroke-dasharray:none;stroke-dashoffset:0;stroke-opacity:1"
       id="path925"
       d="m 138.88104,201.93213 c -1.15821,0.3072 -2.22061,0.85673 -3.14322,1.61568 -0.33212,0.33695 -0.87461,0.85368 -0.45894,1.31506 0.50294,0.35864 1.14058,0.32127 1.72402,0.25241 0.64632,-0.10175 1.14224,-0.39631 1.51082,-0.92928 0.28998,-0.50947 0.41794,-1.08176 0.50845,-1.6548 -0.0833,-0.6076 0.45427,-0.41126 0.29503,0.12053 -0.16303,0.599 -0.10948,1.16908 0.16335,1.72097 0.38877,0.57717 1.02101,0.82579 1.66276,1.01264 0.28767,0.0783 0.56479,0.15634 0.8609,0.18954 0.0106,-0.001 0.0123,0.0138 0.002,0.015 v 0 c -0.30995,0.10453 -0.6082,0.21792 -0.94366,0.17275 -0.82468,-0.12369 -1.57824,-0.43645 -2.03848,-1.17153 -0.31459,-0.67547 -0.39522,-1.37066 -0.17113,-2.09307 0.27824,-0.78023 0.8652,-0.55453 0.60027,0.10611 -0.11391,0.63219 -0.26636,1.26467 -0.59387,1.82459 -0.44705,0.62764 -1.02953,1.00849 -1.80131,1.13411 -0.75523,0.0955 -1.5568,0.11688 -2.16112,-0.42005 -0.49681,-0.75255 -0.0549,-1.40612 0.54493,-1.95809 0.9843,-0.79716 2.1057,-1.38271 3.34246,-1.68384 0.30495,-0.0686 0.40198,0.36265 0.097,0.43126 z"
       inkscape:connector-curvature="0" />
    <path
       style="opacity:1;fill:none;fill-opacity:1;stroke:#000000;stroke-width:1;stroke-linecap:round;stroke-linejoin:miter;stroke-miterlimit:4;stroke-dasharray:none;stroke-dashoffset:0;stroke-opacity:1"
       id="path927"
       d="m 143.92616,201.55567 c 0.65247,0.82537 1.36758,1.59769 2.04362,2.40325 0.32884,0.41593 0.70343,0.82864 0.81285,1.36084 0.0122,0.48358 -0.38672,0.76602 -0.74317,1.01884 -0.20527,0.10606 -0.43526,0.33374 -0.68205,0.32523 -0.0271,0.0279 -0.0666,-0.0104 -0.0395,-0.0383 v 0 c 0.042,-0.2441 0.33831,-0.39826 0.49006,-0.5737 0.18802,-0.17412 0.47022,-0.37536 0.51181,-0.64351 -0.0727,-0.44755 -0.47224,-0.7883 -0.71458,-1.14498 -0.67674,-0.81476 -1.3937,-1.59639 -2.03486,-2.44036 -0.18899,-0.25159 0.1668,-0.51885 0.35579,-0.26727 z"
       inkscape:connector-curvature="0" />
    <path
       style="opacity:1;fill:none;fill-opacity:1;stroke:#000000;stroke-width:1;stroke-linecap:round;stroke-linejoin:miter;stroke-miterlimit:4;stroke-dasharray:none;stroke-dashoffset:0;stroke-opacity:1"
       id="path929"
       d="m 149.06723,202.41125 c -0.82324,0.66134 -1.67546,1.34861 -2.11263,2.33272 -0.1231,0.81307 0.93247,0.91618 1.52002,1.03342 1.07046,0.21472 2.14742,-0.006 3.22016,-0.004 0.0102,-0.003 0.0149,0.011 0.005,0.0144 v 0 c -0.95851,0.68389 -2.20236,0.64509 -3.33128,0.54156 -1.00094,-0.18673 -2.25351,-0.54027 -1.92756,-1.82313 0.5031,-1.05631 1.37921,-1.82962 2.30493,-2.52295 0.30241,-0.22743 0.62403,0.20024 0.32163,0.42766 z"
       inkscape:connector-curvature="0" />
    <path
       style="opacity:1;fill:none;fill-opacity:1;stroke:#000000;stroke-width:1;stroke-linecap:round;stroke-linejoin:miter;stroke-miterlimit:4;stroke-dasharray:none;stroke-dashoffset:0;stroke-opacity:1"
       id="path931"
       d="m 13.333833,154.92534 c -0.74597,1.02515 -1.334119,2.13159 -1.356001,3.41732 0.147999,1.00871 0.901334,1.28058 1.817661,1.27052 0.924639,-0.089 1.653416,-0.51283 2.189002,-1.25749 0.372957,-0.64854 0.526569,-1.38351 0.547043,-2.12462 0.03626,-0.0796 -0.157328,-0.67223 -0.06986,-0.33477 -0.311339,0.88477 -0.222834,1.87971 -0.221304,2.80327 0.07223,2.14276 -0.01536,4.27831 -0.295994,6.40299 -0.279117,1.80005 -0.806356,3.54226 -1.843738,5.04922 -0.703296,0.90739 -1.614123,1.24321 -2.72974,1.1415 -0.846877,-0.13267 -1.5281866,-0.52609 -2.063277,-1.18085 -0.00835,-0.007 0.00108,-0.0185 0.00944,-0.0118 v 0 c 0.6610358,0.32451 1.359535,0.60629 2.089853,0.72096 0.927079,0.0542 1.671779,-0.2143 2.259227,-0.96931 0.990854,-1.43532 1.474948,-3.10786 1.74667,-4.82017 0.279523,-2.10177 0.356664,-4.21257 0.307587,-6.33232 8.73e-4,-1.03062 -0.127513,-2.22975 0.4217,-3.14826 0.647989,-0.44497 0.829311,0.13409 0.857864,0.69335 -0.02598,0.83654 -0.203931,1.66134 -0.638815,2.38653 -0.636752,0.85728 -1.485447,1.35654 -2.56507,1.4504 -1.269294,-0.009 -2.086156,-0.39828 -2.289666,-1.75156 0.04744,-1.3819 0.634143,-2.58265 1.460867,-3.67814 0.193209,-0.25919 0.559761,0.014 0.366552,0.27324 z"
       inkscape:connector-curvature="0" />
    <path
       style="opacity:1;fill:none;fill-opacity:1;stroke:#000000;stroke-width:1;stroke-linecap:round;stroke-linejoin:miter;stroke-miterlimit:4;stroke-dasharray:none;stroke-dashoffset:0;stroke-opacity:1"
       id="path933"
       d="m 19.657674,161.76363 c 0.125522,0.97207 0.35576,1.9252 0.655854,2.85701 0.06977,0.19255 0.148283,0.38236 0.246286,0.56241 0.02364,0.0434 0.125958,0.13381 0.077,0.12683 -0.102494,-0.0146 -0.199129,-0.0568 -0.298694,-0.0852 0.03438,-0.46617 -0.02935,-0.9354 -0.06394,-1.40029 -0.04647,-0.67043 -0.07552,-1.34544 0.02032,-2.01234 0.09921,-0.53529 0.417332,-0.86783 0.915322,-1.05162 0.714841,-0.1658 1.252509,0.25715 1.7108,0.75178 0.419818,0.50642 0.67775,1.11175 0.905071,1.72206 0.09737,0.23822 0.155017,0.48664 0.200766,0.73868 -0.02895,-0.027 0.03122,0.0839 0.01008,0.072 -0.107008,-0.06 -0.248759,-0.0937 -0.308375,-0.20095 -0.04402,-0.0792 0.305503,-0.5842 0.342389,-0.64688 0.332506,-0.53687 0.727109,-1.0313 1.140201,-1.50765 0.291133,-0.36397 0.578229,-0.54675 0.96321,-0.18617 0.336976,0.47403 0.545912,1.02751 0.787596,1.55409 0.203136,0.4611 0.471712,0.90127 0.598191,1.39164 0.03592,0.0419 0.07184,0.0837 0.10776,0.1256 0.0081,0.007 -0.0019,0.0184 -0.0099,0.0114 v 0 c -0.04833,-0.0315 -0.09666,-0.063 -0.144995,-0.0945 -0.517956,-0.2234 -0.737864,-0.75731 -0.974478,-1.23953 -0.22409,-0.48676 -0.425633,-0.98784 -0.696446,-1.45055 -0.09296,-0.17946 -0.02713,0.002 -0.0067,-0.10963 0.02588,-0.14168 -0.365889,0.27306 -0.332808,0.25505 -0.405916,0.45085 -0.790328,0.92269 -1.10903,1.4403 -0.06157,0.10436 -0.521624,1.08451 -0.739335,0.65642 -0.04576,-0.22908 -0.140591,-0.44538 -0.213123,-0.66645 -0.207701,-0.56132 -0.44083,-1.1201 -0.821213,-1.58958 -0.338584,-0.37586 -0.736497,-0.75053 -1.283009,-0.65719 -0.368083,0.11169 -0.588596,0.35147 -0.660033,0.73671 -0.09246,0.63856 -0.05355,1.28666 -0.01375,1.92836 0.03889,0.52293 0.129354,1.06082 0.03469,1.58081 -0.130577,0.0451 -0.255407,0.11294 -0.391731,0.13529 -0.03088,0.005 -0.324887,-0.72381 -0.337935,-0.78048 -0.30312,-0.9558 -0.538515,-1.93196 -0.663524,-2.92824 -0.02777,-0.24993 0.325688,-0.28921 0.353458,-0.0393 z"
       inkscape:connector-curvature="0" />
    <path
       style="opacity:1;fill:none;fill-opacity:1;stroke:#000000;stroke-width:1;stroke-linecap:round;stroke-linejoin:miter;stroke-miterlimit:4;stroke-dasharray:none;stroke-dashoffset:0;stroke-opacity:1"
       id="path935"
       d="m 30.567069,161.55155 c -0.11397,0.8883 -0.213998,1.80085 0.0471,2.67052 0.09871,0.2715 0.151823,0.45486 0.395028,0.61257 0.009,0.006 7.94e-4,0.0185 -0.0082,0.0127 v 0 c -0.256887,-0.1669 -0.548227,-0.2051 -0.714761,-0.49358 -0.441717,-0.90454 -0.36149,-1.90148 -0.221549,-2.8758 0.05205,-0.35526 0.554466,-0.28165 0.502414,0.0736 z"
       inkscape:connector-curvature="0" />
    <path
       style="opacity:1;fill:none;fill-opacity:1;stroke:#000000;stroke-width:1;stroke-linecap:round;stroke-linejoin:miter;stroke-miterlimit:4;stroke-dasharray:none;stroke-dashoffset:0;stroke-opacity:1"
       id="path937"
       d="m 29.650838,157.61498 c 0.74563,-0.18232 1.507207,-0.19822 2.265188,-0.26658 0.0104,-0.003 0.01397,0.0122 0.0036,0.0147 v 0 c -0.711137,0.28945 -1.401263,0.623 -2.172026,0.73871 -0.344233,0.0684 -0.440965,-0.41842 -0.09673,-0.48682 z"
       inkscape:connector-curvature="0" />
    <path
       style="opacity:1;fill:none;fill-opacity:1;stroke:#000000;stroke-width:1;stroke-linecap:round;stroke-linejoin:miter;stroke-miterlimit:4;stroke-dasharray:none;stroke-dashoffset:0;stroke-opacity:1"
       id="path939"
       d="m 32.942241,162.97254 c 0.06289,0.75119 0.100452,1.50782 0.23962,2.24987 0.30925,0.46373 -0.332309,0.50017 -0.355999,0.08 -0.08142,-0.61659 -0.08568,-1.23491 -0.04834,-1.85455 0.07096,-0.81803 0.395769,-1.55398 0.830551,-2.23822 0.331044,-0.49884 0.70503,-0.8157 1.319387,-0.74211 0.725231,0.25918 1.243481,0.85228 1.737873,1.41585 0.450684,0.5233 0.888328,1.06937 0.93576,1.77798 -0.01725,0.0879 -0.03449,0.17582 -0.05173,0.26372 0.0028,0.0103 -0.01188,0.0142 -0.01461,0.004 v 0 c -0.05713,-0.0626 -0.114261,-0.12524 -0.171392,-0.18787 -0.362257,-0.50541 -0.658659,-1.06001 -1.085205,-1.51899 -0.421542,-0.48328 -0.855718,-0.98629 -1.436576,-1.28147 -0.405458,-0.12672 -0.638635,0.20508 -0.860851,0.50746 -0.398597,0.61819 -0.694378,1.28473 -0.76014,2.02678 -0.03716,0.60265 -0.02868,1.20341 0.0507,1.80298 0.03953,0.73098 -0.612883,0.50362 -0.513286,0.0205 -0.129995,-0.75992 -0.173855,-1.53153 -0.228177,-2.29971 -0.01841,-0.29163 0.394007,-0.31766 0.412417,-0.026 z"
       inkscape:connector-curvature="0" />
    <path
       style="opacity:1;fill:none;fill-opacity:1;stroke:#000000;stroke-width:1;stroke-linecap:round;stroke-linejoin:miter;stroke-miterlimit:4;stroke-dasharray:none;stroke-dashoffset:0;stroke-opacity:1"
       id="path941"
       d="m 17.477117,81.725375 c -0.490795,1.148818 -0.934675,2.341282 -0.80795,3.605329 0.226614,0.821182 0.892642,0.960667 1.649523,0.867838 0.863634,-0.187198 1.502631,-0.745371 2.039822,-1.416082 0.460801,-0.649091 0.739105,-1.394388 0.769689,-2.189667 0.105728,0.07858 -0.12037,-0.39532 -0.105876,-0.333447 0.04509,0.1925 0.112417,0.01543 -0.02441,0.296368 -0.359225,1.16491 -0.373509,2.409851 -0.430699,3.618516 -0.05476,2.046851 -0.06338,4.092265 -0.244343,6.132946 -0.17171,1.728597 -0.635017,3.36772 -1.759793,4.71047 -0.847748,0.851347 -1.873726,0.980651 -3.004095,0.774946 -0.679615,-0.149421 -1.225691,-0.458878 -1.678725,-0.977043 -0.0082,-0.0069 0.0015,-0.01847 0.0097,-0.01159 v 0 c 0.526351,0.308803 1.150975,0.426379 1.73631,0.579424 0.965034,0.1397 1.84367,0.04692 2.570321,-0.674105 1.06507,-1.259419 1.476022,-2.823781 1.647743,-4.444862 0.183272,-2.034157 0.188828,-4.073385 0.250402,-6.113685 0.06647,-1.273969 0.08077,-2.600254 0.533272,-3.808113 0.442874,-0.700665 0.886887,-0.475803 0.92489,0.267676 -0.03858,0.887251 -0.344171,1.71614 -0.864884,2.437765 -0.612298,0.755301 -1.341814,1.376791 -2.320833,1.578729 -1.006554,0.106243 -1.862255,-0.177858 -2.125278,-1.256252 -0.116636,-1.33903 0.308832,-2.598711 0.841393,-3.815578 0.120511,-0.278476 0.514338,-0.108048 0.393827,0.170429 z"
       inkscape:connector-curvature="0" />
    <path
       style="opacity:1;fill:none;fill-opacity:1;stroke:#000000;stroke-width:1;stroke-linecap:round;stroke-linejoin:miter;stroke-miterlimit:4;stroke-dasharray:none;stroke-dashoffset:0;stroke-opacity:1"
       id="path943"
       d="m 24.247013,89.733619 c -0.199781,0.908031 -0.363385,1.823315 -0.460043,2.748132 -0.01772,0.175495 -0.01042,0.473969 0.03665,0.600477 -0.04547,-0.02863 -0.09876,-0.04756 -0.136404,-0.0859 -0.05677,-0.05782 0.07477,-0.14433 0.102067,-0.220626 0.0561,-0.156831 0.07096,-0.230311 0.115148,-0.398541 0.156403,-0.746136 0.319277,-1.490605 0.495354,-2.232393 0.159685,-0.656738 0.305384,-1.316797 0.493677,-1.966114 0.166192,-0.526433 0.538382,-0.660132 1.050978,-0.571632 0.78766,0.258506 1.261793,0.91081 1.666979,1.593871 0.41802,0.784286 0.627332,1.650408 0.78101,2.519199 0.02917,0.286514 0.11063,0.577188 0.09123,0.867394 -0.156202,-0.04894 -0.334749,-0.05261 -0.468607,-0.146823 -0.201684,-0.141957 -0.279714,-1.339411 -0.286139,-1.573686 0.02429,-0.777229 0.321239,-1.470858 0.765342,-2.095325 0.447739,-0.562028 0.784691,-0.716606 1.434489,-0.353436 0.710705,0.578734 1.202775,1.36987 1.730629,2.107928 0.428112,0.60525 0.92673,1.173136 1.141799,1.893802 -0.0095,0.33745 -0.03151,0.184148 0.04465,0.462489 0.0033,0.01019 -0.01117,0.01479 -0.01439,0.0046 v 0 c -0.09637,-0.262998 -0.02058,-0.138612 -0.248195,-0.359643 -0.432485,-0.577911 -0.852352,-1.165439 -1.280292,-1.746734 -0.495924,-0.695671 -0.956693,-1.434864 -1.58211,-2.023393 -0.401601,-0.280773 -0.639866,-0.168476 -0.937586,0.221038 -0.402084,0.558832 -0.670695,1.180317 -0.693287,1.878722 0.0091,0.327657 0.03087,0.637476 0.113686,0.956183 0.02212,0.08509 0.04969,0.168711 0.07785,0.251994 0.02484,0.07351 0.109879,0.146124 0.08113,0.218197 -0.04827,0.120986 -0.185211,0.183211 -0.277817,0.274815 -0.005,-0.258025 -0.04276,-0.514633 -0.08261,-0.769443 C 27.858199,90.96603 27.66274,90.145327 27.272406,89.400237 26.929432,88.8112 26.532901,88.23225 25.86903,87.980602 c -0.321582,-0.07933 -0.508093,-0.04369 -0.616205,0.300725 -0.18154,0.645282 -0.328641,1.299271 -0.488363,1.950173 -0.177439,0.744635 -0.341033,1.492093 -0.498322,2.241184 -0.109865,0.413909 -0.190676,0.945417 -0.727525,0.845513 -0.172792,-0.250205 -0.106849,-0.587806 -0.107501,-0.8739 0.09939,-0.93804 0.264003,-1.867021 0.474177,-2.78662 0.0537,-0.241652 0.395449,-0.165709 0.341748,0.07594 z"
       inkscape:connector-curvature="0" />
    <path
       style="opacity:1;fill:none;fill-opacity:1;stroke:#000000;stroke-width:1;stroke-linecap:round;stroke-linejoin:miter;stroke-miterlimit:4;stroke-dasharray:none;stroke-dashoffset:0;stroke-opacity:1"
       id="path945"
       d="m 37.619273,88.381638 c -1.377934,0.219699 -2.562646,0.897951 -3.642133,1.748657 -0.686371,0.630651 -1.427032,1.374738 -1.462476,2.35884 0.123843,0.581652 0.626192,0.782968 1.152459,0.89789 0.602517,0.0914 1.124918,-0.120475 1.618689,-0.443513 0.536339,-0.401965 0.819774,-0.986242 1.02548,-1.606473 0.152527,-0.51403 0.21028,-1.048811 0.228888,-1.582788 -0.0094,-0.192619 -0.01699,-0.453374 0.385501,-0.0145 0.05415,0.05904 -0.02339,0.158525 -0.03317,0.23804 -0.0127,0.10331 -0.02283,0.20692 -0.03425,0.31038 -0.09031,0.776132 -0.01323,1.503873 0.385501,2.180201 0.516278,0.694111 1.341016,0.939263 2.103657,1.258803 0.01061,0.0013 0.0087,0.01638 -0.0019,0.015 v 0 c -0.987642,0.120655 -1.883397,-0.247597 -2.508586,-1.033915 -0.4542,-0.770382 -0.56592,-1.591357 -0.453745,-2.477786 0.0108,-0.08188 0.06893,-0.571063 0.09629,-0.595145 0.55195,-0.485873 0.488453,-0.167318 0.486818,0.13871 -0.03275,0.571505 -0.102656,1.143201 -0.268547,1.692995 -0.240427,0.705731 -0.573828,1.364226 -1.185627,1.821378 -0.590084,0.388072 -1.219224,0.629015 -1.938303,0.513678 -0.739357,-0.170233 -1.372912,-0.517451 -1.485297,-1.337921 0.08395,-1.112753 0.812697,-1.955869 1.624632,-2.670286 1.141542,-0.892411 2.393156,-1.603537 3.85059,-1.813534 0.283755,-0.03929 0.339317,0.362 0.05557,0.401288 z"
       inkscape:connector-curvature="0" />
    <path
       style="opacity:1;fill:none;fill-opacity:1;stroke:#000000;stroke-width:1;stroke-linecap:round;stroke-linejoin:miter;stroke-miterlimit:4;stroke-dasharray:none;stroke-dashoffset:0;stroke-opacity:1"
       id="path947"
       d="m 41.592309,88.520594 c 0.86174,0.231402 1.844794,0.639747 2.150761,1.56812 0.05606,0.170108 0.05664,0.353708 0.08496,0.530561 -0.06389,1.08585 -0.759772,1.900393 -1.471327,2.657371 -0.0817,0.0821 -0.162684,0.16492 -0.245099,0.246301 -0.13712,0.135395 -0.405482,0.400201 -0.427098,0.37664 -0.359334,-0.391679 -0.276326,-0.359908 -0.05344,-0.632651 0.662652,-0.714925 1.325015,-1.42902 1.961862,-2.167284 0.494876,-0.588235 1.014695,-1.157798 1.472305,-1.776315 0.186381,-0.257709 0.284729,-0.592828 0.52333,0.181851 0.02813,0.09131 -0.07858,0.174194 -0.116609,0.261848 -0.04692,0.108151 -0.09215,0.217027 -0.138232,0.32554 -0.293598,0.722408 -0.56174,1.488107 -0.381288,2.268144 0.500083,0.799113 1.647179,0.752382 2.480299,0.764611 0.812959,-0.03752 1.630722,-0.143923 2.423377,-0.330443 0.0095,-0.005 0.01651,0.0084 0.007,0.01336 v 0 c -0.688258,0.606769 -1.521685,0.814308 -2.430526,0.864365 -1.134216,0.01479 -2.514902,-0.0064 -3.045201,-1.199375 -0.160295,-0.908185 0.072,-1.770308 0.454986,-2.600052 0.05079,-0.108498 0.265144,-0.571323 0.275481,-0.573797 0.810657,-0.194035 0.452213,0.132638 0.318558,0.311158 -0.487788,0.605054 -1.01928,1.17398 -1.517493,1.770364 -0.63463,0.73556 -1.294726,1.447038 -1.952948,2.161283 -0.21031,0.254112 -0.110091,0.24401 -0.5222,-0.0055 -0.01556,-0.0094 0.03267,-0.01664 0.04674,-0.02818 0.19608,-0.160832 0.363979,-0.35429 0.544679,-0.531026 0.610663,-0.663483 1.247105,-1.363917 1.353391,-2.298073 -0.116043,-1.093965 -0.902734,-1.477981 -1.881388,-1.766594 -0.277395,-0.06016 -0.192318,-0.452454 0.08508,-0.392298 z"
       inkscape:connector-curvature="0" />
    <path
       style="opacity:1;fill:none;fill-opacity:1;stroke:#000000;stroke-width:1;stroke-linecap:round;stroke-linejoin:miter;stroke-miterlimit:4;stroke-dasharray:none;stroke-dashoffset:0;stroke-opacity:1"
       id="path953"
       d="m 167.62821,179.07827 c -0.046,1.54406 -0.10232,3.08779 -0.14681,4.63189 -0.0156,0.89267 -0.0557,1.78554 -0.0433,2.67848 0.002,0.30243 0.11359,0.54153 -0.5089,0.18361 -0.0122,-0.007 -0.054,-0.40425 -0.0661,-0.51239 -0.0965,-1.12795 -0.0249,-2.26157 0.031,-3.38968 0.0401,-1.39343 0.16136,-2.7809 0.36473,-4.15957 0.10088,-0.4437 -0.0351,-1.17052 0.71799,-0.73603 0.0113,0.007 0.32709,0.6321 0.35317,0.68344 0.56668,1.13219 1.47423,1.90556 2.57452,2.4872 1.46096,0.62222 3.05627,0.76598 4.62344,0.87966 0.21559,0.0789 1.459,-0.0547 1.59564,0.14425 0.0707,0.10294 0.0771,0.23758 0.11562,0.35636 -0.77,0.84409 -1.97618,1.33077 -2.97714,1.86188 -1.55742,0.81358 -3.0633,1.71622 -4.51323,2.70784 -0.38422,0.27588 -0.77013,0.54968 -1.15049,0.83091 -0.008,0.006 -0.28354,0.27532 -0.28199,0.18851 -0.006,0.0104 -0.0114,0.0207 -0.0171,0.031 0.0501,0.0275 0.10029,0.055 0.15044,0.0825 0.0104,0.002 0.007,0.0172 -0.004,0.0147 v 0 c -0.291,-0.003 -0.14187,0.0249 -0.44288,-0.10498 -0.041,-0.71132 1.01201,-1.07271 1.44683,-1.47953 1.46642,-1.00247 2.98928,-1.91712 4.57659,-2.71678 0.91699,-0.48159 1.86457,-0.96451 2.73037,-1.51562 0.0503,0.0619 0.0987,0.12538 0.15086,0.1857 0.041,0.0474 -0.12147,-0.036 -0.18412,-0.0386 -0.4102,-0.0173 -0.8224,0.001 -1.23194,-0.0383 -1.64026,-0.11293 -3.30802,-0.26743 -4.83199,-0.93191 -1.18889,-0.64187 -2.17526,-1.48375 -2.78473,-2.71648 -0.0452,-0.0912 -0.30668,-0.615 -0.30383,-0.62164 0.0509,-0.11829 0.20226,-0.16387 0.31941,-0.21734 0.0296,-0.0135 -0.0312,0.0579 -0.0391,0.0894 -0.0307,0.1225 -0.0959,0.5647 -0.10837,0.64485 -0.19831,1.36325 -0.3344,2.73431 -0.37861,4.11193 -0.0547,1.10211 -0.12668,2.20993 -0.0265,3.31164 0.0106,0.0899 0.0193,0.18008 0.0319,0.26972 0.01,0.0692 0.0841,0.15661 0.0354,0.20676 -0.53638,0.55208 -0.45664,0.20068 -0.47404,-0.0851 -0.0154,-0.90052 0.0254,-1.80099 0.0424,-2.7012 0.046,-1.54682 0.0968,-3.09394 0.18552,-4.63896 0.0155,-0.33153 0.48436,-0.30959 0.46885,0.0219 z"
       inkscape:connector-curvature="0" />
    <path
       style="opacity:1;fill:none;fill-opacity:1;stroke:#000000;stroke-width:1;stroke-linecap:round;stroke-linejoin:miter;stroke-miterlimit:4;stroke-dasharray:none;stroke-dashoffset:0;stroke-opacity:1"
       id="path966"
       d="m 104.62585,118.64358 c 0.90982,2.1363 2.81158,3.45883 4.68646,4.68784 4.71008,2.77779 10.10224,3.8472 15.41495,4.80262 6.59732,1.04757 13.26882,1.48989 19.93437,1.81717 2.33717,0.0485 4.67712,0.25787 7.01624,0.20408 0.23677,0.0173 0.13639,0.0112 0.301,0.0203 0.007,-0.008 0.0183,0.003 0.0108,0.0106 v 0 c -0.0764,0.23845 -0.006,0.12334 -0.26119,0.3096 -0.63911,0.16972 -1.2616,0.19234 -1.92494,0.1965 -1.72448,0.0109 -3.44841,-0.0851 -5.1712,-0.14088 -6.69172,-0.32399 -13.38935,-0.76955 -20.01164,-1.82598 -5.38922,-0.97257 -10.86233,-2.0648 -15.61727,-4.92876 -1.94565,-1.30779 -3.92166,-2.73235 -4.75408,-5.02589 -0.0899,-0.2662 0.28657,-0.39333 0.37647,-0.12713 z"
       inkscape:connector-curvature="0" />
    <path
       style="opacity:1;fill:none;fill-opacity:1;stroke:#000000;stroke-width:1;stroke-linecap:round;stroke-linejoin:miter;stroke-miterlimit:4;stroke-dasharray:none;stroke-dashoffset:0;stroke-opacity:1"
       id="path968"
       d="m 161.45827,124.02258 c -1.363,0.31696 -2.55355,1.01502 -3.66047,1.84608 -1.47134,1.19483 -2.55018,2.73804 -3.42272,4.4019 -0.44178,1.05691 -0.96538,2.43603 -0.2316,3.50112 0.11144,0.16175 0.26953,0.28581 0.4043,0.42872 1.44953,0.97378 3.21584,0.82212 4.85761,0.56234 1.54919,-0.31149 2.96081,-0.95717 4.08614,-2.07008 0.64723,-0.8123 0.84333,-1.45007 0.16672,-2.28757 -0.50939,-0.44314 -0.22995,-0.24999 -0.84166,-0.57456 -0.01,-0.004 -0.004,-0.0181 0.006,-0.0139 v 0 c 0.6905,0.23365 0.34712,0.1013 1.02945,0.3989 0.13268,0.11682 0.28718,0.21276 0.39802,0.35047 0.64957,0.80706 0.17413,1.81167 -0.38156,2.5049 -1.20272,1.20678 -2.69996,1.93238 -4.37442,2.25883 -1.83629,0.28394 -3.78763,0.41062 -5.35915,-0.76004 -0.16352,-0.19058 -0.35733,-0.35887 -0.49055,-0.57173 -0.77699,-1.24145 -0.26161,-2.75625 0.26503,-3.97327 0.91704,-1.72583 2.04843,-3.32622 3.6013,-4.54357 1.1682,-0.85469 2.42529,-1.56918 3.85969,-1.8646 0.28712,-0.0622 0.37502,0.3439 0.0879,0.40605 z"
       inkscape:connector-curvature="0" />
    <path
       style="opacity:1;fill:none;fill-opacity:1;stroke:#000000;stroke-width:1;stroke-linecap:round;stroke-linejoin:miter;stroke-miterlimit:4;stroke-dasharray:none;stroke-dashoffset:0;stroke-opacity:1"
       id="path972"
       d="m 166.71566,124.25037 c 0.14611,2.00991 0.15848,4.02639 0.25414,6.03907 0.0872,1.77101 0.34084,3.52746 0.86099,5.2235 0.1401,0.35067 0.22878,0.74056 0.43835,1.06117 0.0639,0.0977 -0.21984,-0.0798 -0.33296,-0.10874 0.22166,-0.95603 0.51365,-1.89022 0.86371,-2.80644 0.34061,-0.84139 0.73882,-1.6365 1.64505,-1.92413 0.94393,-0.0702 1.60304,0.51649 2.05937,1.27867 0.40783,0.90378 0.18094,1.71464 -0.42558,2.44663 -0.68439,0.67449 -1.59522,0.90021 -2.51007,1.06844 -0.48715,0.15397 -0.99269,0.0316 -1.48209,0.0622 -0.0107,7.9e-4 -0.0119,-0.0142 -0.001,-0.0151 v 0 c 0.47382,-0.0478 0.91845,-0.37207 1.40739,-0.38927 0.79894,-0.20967 1.6121,-0.44367 2.22304,-1.03201 0.48542,-0.56461 0.68605,-1.18459 0.38056,-1.90218 -0.32937,-0.57934 -0.81139,-1.06081 -1.52097,-1.06268 -0.76081,0.182 -1.03802,0.99352 -1.32582,1.64072 -0.34778,0.91529 -0.6395,1.8483 -0.84557,2.80644 -0.1564,0.10337 -0.29116,0.25144 -0.46922,0.31013 -0.13491,0.0445 -0.56973,-1.18054 -0.59656,-1.28311 -0.53095,-1.73783 -0.79534,-3.53592 -0.87932,-5.35073 -0.0898,-2.00797 -0.10971,-4.01745 -0.18004,-6.02608 -0.0258,-0.30889 0.41099,-0.34542 0.43682,-0.0365 z"
       inkscape:connector-curvature="0" />
    <path
       style="opacity:1;fill:none;fill-opacity:1;stroke:#000000;stroke-width:1;stroke-linecap:round;stroke-linejoin:miter;stroke-miterlimit:4;stroke-dasharray:none;stroke-dashoffset:0;stroke-opacity:1"
       id="path974"
       d="m 176.70006,132.67654 c 0.51202,1.53082 0.7858,3.12595 0.96389,4.72604 0.10839,1.34687 -0.059,2.72062 -0.99413,3.7671 -0.18303,0.20484 -0.40424,0.37207 -0.60636,0.5581 -1.39258,1.02124 -3.02933,1.34993 -4.72218,1.28074 -0.78359,-0.14005 -2.12915,-0.31476 -2.62753,-1.05057 -0.0765,-0.11301 -0.0941,-0.25627 -0.1411,-0.3844 -0.0103,-0.10932 -0.0207,-0.21865 -0.0311,-0.32798 -0.002,-0.0104 0.0122,-0.0139 0.0147,-0.004 v 0 c 0.0372,0.0896 0.0745,0.17922 0.1117,0.26883 0.7628,0.62229 1.72104,0.87115 2.69062,0.95173 1.53455,0.0335 3.03163,-0.26618 4.30259,-1.17618 1.27128,-1.14546 1.53258,-2.11897 1.411,-3.81872 -0.16958,-1.55836 -0.44074,-3.10788 -0.91259,-4.60592 -0.131,-0.38215 0.40944,-0.5674 0.54043,-0.18526 z"
       inkscape:connector-curvature="0" />
    <path
       style="opacity:1;fill:none;fill-opacity:1;stroke:#000000;stroke-width:1;stroke-linecap:round;stroke-linejoin:miter;stroke-miterlimit:4;stroke-dasharray:none;stroke-dashoffset:0;stroke-opacity:1"
       id="path976"
       d="m 172.45144,127.5634 c 1.01614,-0.51806 2.09618,-0.83081 3.23656,-0.81391 0.0105,-0.002 0.0134,0.0128 0.003,0.0148 v 0 c -0.99096,0.43141 -2.02519,0.76305 -2.97934,1.27891 -0.3393,0.18396 -0.59945,-0.29588 -0.26015,-0.47983 z"
       inkscape:connector-curvature="0" />
    <path
       style="opacity:1;fill:none;fill-opacity:1;stroke:#000000;stroke-width:1;stroke-linecap:round;stroke-linejoin:miter;stroke-miterlimit:4;stroke-dasharray:none;stroke-dashoffset:0;stroke-opacity:1"
       id="path978"
       d="m 180.38536,134.22925 c 0.97868,-0.0549 1.94934,-0.22846 2.82035,-0.68951 0.27462,-0.19162 0.73088,-0.54481 0.50951,-0.92552 -0.41371,-0.37697 -1.03387,-0.17612 -1.50203,-0.0353 -1.12516,0.4348 -2.03255,1.22148 -2.78741,2.14326 -0.53515,0.82126 -0.7705,1.45918 0.14469,2.04529 1.34747,0.5178 2.81347,0.26859 4.18561,-0.0113 0.94489,-0.23836 0.48657,-0.11507 1.37553,-0.3677 0.01,-0.004 0.016,0.009 0.006,0.0138 v 0 c -0.80058,0.51579 -0.37287,0.27583 -1.28893,0.70945 -1.49421,0.47382 -3.1052,0.76001 -4.59339,0.10248 -0.15601,-0.11715 -0.33442,-0.20929 -0.46803,-0.35146 -0.70719,-0.75244 -0.26905,-1.76305 0.23649,-2.47467 0.83323,-0.98784 1.81799,-1.8371 3.04899,-2.28679 0.72981,-0.20969 1.60337,-0.38827 2.10879,0.3321 0.22175,0.68644 -0.16424,1.19098 -0.74172,1.55559 -0.94261,0.48562 -1.98148,0.68673 -3.03794,0.7308 -0.34684,0.0119 -0.3636,-0.47865 -0.0168,-0.4905 z"
       inkscape:connector-curvature="0" />
    <path
       style="opacity:1;fill:none;fill-opacity:1;stroke:#000000;stroke-width:1;stroke-linecap:round;stroke-linejoin:miter;stroke-miterlimit:4;stroke-dasharray:none;stroke-dashoffset:0;stroke-opacity:1"
       id="path980"
       d="m 186.45475,121.36146 c 0.35569,2.04326 0.36978,4.1275 0.4301,6.1951 0.0524,2.21683 0.15529,4.43371 0.46761,6.63042 0.0505,0.75009 0.42322,1.47567 0.37065,2.23349 0.004,0.01 -0.01,0.0159 -0.0139,0.006 v 0 c -0.59754,-0.50938 -0.62877,-1.46584 -0.84732,-2.15908 -0.40972,-2.20881 -0.51204,-4.45128 -0.55628,-6.69439 -0.0568,-2.04366 -0.0885,-4.09328 -0.33294,-6.12541 -0.061,-0.34085 0.42109,-0.42703 0.48203,-0.0862 z"
       inkscape:connector-curvature="0" />
    <path
       style="opacity:1;fill:none;fill-opacity:1;stroke:#000000;stroke-width:1;stroke-linecap:round;stroke-linejoin:miter;stroke-miterlimit:4;stroke-dasharray:none;stroke-dashoffset:0;stroke-opacity:1"
       id="path982"
       d="m 182.3779,130.04806 c 1.99845,-0.32418 4.0128,-0.53984 6.02973,-0.70832 1.1626,-0.0548 2.34323,-0.20772 3.49615,0.0109 0.0107,-5.3e-4 0.0116,0.0145 8e-4,0.0151 v 0 c -1.11524,0.34996 -2.30188,0.32517 -3.45456,0.45927 -2.00539,0.18363 -4.00649,0.4057 -6.00137,0.68222 -0.32466,0.0501 -0.3955,-0.40905 -0.0708,-0.45914 z"
       inkscape:connector-curvature="0" />
    <path
       style="opacity:1;fill:none;fill-opacity:1;stroke:#000000;stroke-width:1;stroke-linecap:round;stroke-linejoin:miter;stroke-miterlimit:4;stroke-dasharray:none;stroke-dashoffset:0;stroke-opacity:1"
       id="path984"
       d="m 121.90676,81.484435 c 3.18491,-1.498328 6.50158,-2.686296 9.8177,-3.854786 4.36562,-1.512835 8.78164,-2.875077 13.24959,-4.05106 1.89904,-0.474998 3.80938,-0.930248 5.75775,-1.145733 0.40284,-2.22e-4 1.01884,-0.177797 1.26091,0.239697 0.0102,0.0033 0.005,0.0177 -0.005,0.01437 v 0 c -0.30809,0.285438 -0.80427,0.217075 -1.18814,0.303114 -1.91664,0.256903 -3.80853,0.655191 -5.67972,1.143911 -4.45353,1.171022 -8.85733,2.521185 -13.21181,4.019801 -3.30506,1.154501 -6.59977,2.344954 -9.79841,3.773797 -0.31333,0.143658 -0.51649,-0.299453 -0.20316,-0.443111 z"
       inkscape:connector-curvature="0" />
    <path
       style="opacity:1;fill:none;fill-opacity:1;stroke:#000000;stroke-width:1;stroke-linecap:round;stroke-linejoin:miter;stroke-miterlimit:4;stroke-dasharray:none;stroke-dashoffset:0;stroke-opacity:1"
       id="path986"
       d="m 156.43706,64.463622 c 0.0366,1.733775 0.0645,3.466587 0.17192,5.197719 0.0578,1.296696 0.37004,2.550149 0.68865,3.800226 0.13777,0.400262 0.1032,0.720574 -0.0843,1.087562 -0.002,0.0105 -0.0169,0.0077 -0.0148,-0.0028 v 0 c -0.0493,-0.337439 -0.243,-0.624647 -0.34675,-0.949132 -0.44379,-1.256533 -0.65431,-2.578262 -0.75219,-3.904777 -0.10434,-1.741109 -0.13387,-3.484784 -0.0931,-5.228777 0,-0.30448 0.4306,-0.30448 0.4306,0 z"
       inkscape:connector-curvature="0" />
    <path
       style="opacity:1;fill:none;fill-opacity:1;stroke:#000000;stroke-width:1;stroke-linecap:round;stroke-linejoin:miter;stroke-miterlimit:4;stroke-dasharray:none;stroke-dashoffset:0;stroke-opacity:1"
       id="path988"
       d="m 153.96348,65.218111 c 1.58579,-0.668761 3.27121,-1.005795 4.97392,-1.191424 1.15838,-0.03645 2.46894,-0.210259 3.5071,0.416076 0.68138,0.840467 -0.36068,1.600776 -0.97298,2.095732 -0.51301,0.501825 -1.28178,0.763403 -1.734,1.328013 0.0133,-0.0028 0.0266,-0.0057 0.0399,-0.0085 0.0103,-0.0316 -0.001,-0.08678 0.0308,-0.09481 0.0539,-0.01341 1.3636,0.386728 1.4442,0.409567 1.40487,0.367167 2.68262,0.968285 3.79014,1.905942 0.97568,1.079923 1.43888,1.873035 1.04013,3.327722 -0.72573,1.452131 -2.25312,1.981867 -3.71644,2.401782 -2.02896,0.489775 -4.11435,0.417674 -6.17182,0.197427 -1.01396,-0.172763 -2.08059,-0.265031 -3.02107,-0.713608 -0.16461,-0.111673 -0.10285,-0.04414 -0.19589,-0.192339 -0.18328,-0.133797 0.006,-0.392991 0.18922,-0.259191 v 0 c 0.0708,-0.05461 0.0218,-0.03092 0.16301,-0.01175 0.97652,0.193725 1.93532,0.4826 2.93064,0.579289 1.98419,0.225412 3.99545,0.307078 5.96125,-0.123447 1.30011,-0.344532 2.69548,-0.763471 3.39547,-2.014733 0.36625,-1.151456 -0.088,-1.981941 -0.87994,-2.832841 -1.05056,-0.90225 -2.27616,-1.463331 -3.61183,-1.823955 -0.39057,-0.114901 -1.68258,-0.317048 -1.78644,-0.801071 -0.0166,-0.07752 0.0421,-0.152895 0.0631,-0.229341 0.49757,-0.568259 1.21825,-0.900983 1.77618,-1.403951 0.34516,-0.283982 1.18665,-0.807786 1.01527,-1.341538 -0.89791,-0.617246 -2.19377,-0.338674 -3.20647,-0.351173 -1.65802,0.177263 -3.29715,0.503933 -4.84737,1.137536 -0.28668,0.124558 -0.46283,-0.280868 -0.17615,-0.405426 z"
       inkscape:connector-curvature="0" />
    <path
       style="opacity:1;fill:none;fill-opacity:1;stroke:#000000;stroke-width:1;stroke-linecap:round;stroke-linejoin:miter;stroke-miterlimit:4;stroke-dasharray:none;stroke-dashoffset:0;stroke-opacity:1"
       id="path990"
       d="m 170.98841,70.69923 c -0.94083,0.324217 -1.76993,0.863295 -2.22824,1.762069 -0.24299,0.823375 0.33405,1.283578 0.98874,1.643893 0.72488,0.313566 1.49984,0.455933 2.26329,0.22197 0.50716,-0.230955 0.71826,-0.6696 0.7077,-1.20641 -0.0969,-0.571471 -0.52296,-0.962941 -0.92827,-1.338982 -0.15737,-0.145929 -0.23801,-0.303094 -0.43372,-0.391753 -0.01,-0.0041 -0.004,-0.01805 0.006,-0.01397 v 0 c 0.20441,0.07679 0.41133,0.04293 0.60546,0.160845 0.61784,0.353375 1.10988,0.851824 1.2168,1.584796 -0.0129,0.750258 -0.32653,1.346822 -1.04804,1.643505 -0.88686,0.240948 -1.76844,0.09571 -2.5995,-0.289457 -0.8466,-0.494136 -1.49172,-1.158272 -1.14036,-2.204149 0.52997,-0.989629 1.41517,-1.613725 2.47467,-1.968301 0.27997,-0.08181 0.39567,0.314132 0.1157,0.395944 z"
       inkscape:connector-curvature="0" />
    <path
       style="opacity:1;fill:none;fill-opacity:1;stroke:#000000;stroke-width:1;stroke-linecap:round;stroke-linejoin:miter;stroke-miterlimit:4;stroke-dasharray:none;stroke-dashoffset:0;stroke-opacity:1"
       id="path992"
       d="m 177.47193,70.452334 c -0.0854,0.942935 0.12181,1.757455 0.8836,2.341983 0.81912,0.483984 1.72052,0.373343 2.62038,0.283951 0.11351,-0.06847 0.22703,-0.136935 0.34055,-0.205404 0.009,-0.0056 0.017,0.0073 0.008,0.01291 v 0 c -0.11362,0.07031 -0.22724,0.140626 -0.34086,0.210939 -0.98275,0.752383 -1.89183,0.659289 -2.95739,0.110345 -0.93515,-0.768975 -1.16371,-1.621637 -1.06229,-2.813124 0.0413,-0.359296 0.54943,-0.300892 0.50813,0.05841 z"
       inkscape:connector-curvature="0" />
    <path
       style="opacity:1;fill:none;fill-opacity:1;stroke:#000000;stroke-width:1;stroke-linecap:round;stroke-linejoin:miter;stroke-miterlimit:4;stroke-dasharray:none;stroke-dashoffset:0;stroke-opacity:1"
       id="path994"
       d="m 173.62062,66.999288 c 1.08936,-0.421076 2.19154,-0.808167 3.31414,-1.130686 0.70343,-0.181602 1.4289,-0.360624 2.15405,-0.224777 0.36968,0.112689 0.49096,0.340593 0.48176,0.706993 0.004,0.0099 -0.0101,0.01553 -0.014,0.0056 v 0 c -0.16034,-0.130297 -0.32504,-0.216345 -0.53339,-0.244872 -0.66191,-0.05255 -1.31279,0.07362 -1.95073,0.245427 -1.11288,0.307465 -2.20838,0.671325 -3.29357,1.065332 -0.29913,0.111879 -0.45735,-0.311148 -0.15822,-0.423029 z"
       inkscape:connector-curvature="0" />
    <path
       style="opacity:1;fill:none;fill-opacity:1;stroke:#000000;stroke-width:1;stroke-linecap:round;stroke-linejoin:miter;stroke-miterlimit:4;stroke-dasharray:none;stroke-dashoffset:0;stroke-opacity:1"
       id="path996"
       d="m 185.97604,56.896208 c -0.64771,2.019374 -1.01933,4.113327 -1.37781,6.199259 -0.41468,2.428682 -0.61657,4.885047 -0.74334,7.343328 -0.14733,1.06531 0.0967,2.183461 -0.12844,3.238373 -0.0251,0.05398 -0.0502,0.107966 -0.0752,0.161951 -1.5e-4,0.01069 -0.0153,0.01048 -0.0151,-2.19e-4 v 0 c -0.0236,-0.05267 -0.0471,-0.105341 -0.0706,-0.158012 -0.28886,-1.058476 -0.18854,-2.181976 -0.199,-3.265279 0.1077,-2.480024 0.32751,-4.956026 0.74383,-7.40493 0.37112,-2.112344 0.75197,-4.237816 1.46885,-6.265654 0.10691,-0.280622 0.50377,-0.129436 0.39686,0.151183 z"
       inkscape:connector-curvature="0" />
    <path
       style="opacity:1;fill:none;fill-opacity:1;stroke:#000000;stroke-width:1;stroke-linecap:round;stroke-linejoin:miter;stroke-miterlimit:4;stroke-dasharray:none;stroke-dashoffset:0;stroke-opacity:1"
       id="path998"
       d="m 180.49627,66.837078 c 2.24002,0.05442 4.48059,0.0593 6.71981,0.143899 0.85964,0.01035 1.69657,0.150159 2.52776,0.352274 0.0106,0.0011 0.009,0.01617 -0.002,0.01503 v 0 c -0.84428,0.02254 -1.68857,0.03015 -2.5332,0.02593 -2.2428,0.0043 -4.48579,-0.0074 -6.72779,-0.07354 -0.32781,-0.01064 -0.31277,-0.474218 0.015,-0.463587 z"
       inkscape:connector-curvature="0" />
    <path
       style="opacity:1;fill:none;fill-opacity:1;stroke:#000000;stroke-width:1;stroke-linecap:round;stroke-linejoin:miter;stroke-miterlimit:4;stroke-dasharray:none;stroke-dashoffset:0;stroke-opacity:1"
       id="path1000"
       d="m 188.35897,71.977122 c 1.19121,0.01016 2.38202,-0.01288 3.5636,-0.171371 0.31265,-0.08734 1.16867,-0.174069 1.17101,-0.654346 -0.36254,-0.257455 -0.87846,-0.187058 -1.28876,-0.143499 -0.96091,0.170368 -1.71085,0.711028 -2.27072,1.489908 -0.47981,0.850715 -0.23356,1.576639 0.38362,2.2557 1.06168,0.856123 2.43832,1.07928 3.74411,1.311275 0.54338,0.05253 0.99993,0.261049 1.54295,0.260829 0.0107,-5.29e-4 0.0114,0.01455 8e-4,0.01511 v 0 c -0.54376,0.05451 -1.0491,0.257947 -1.6056,0.157284 -1.45097,-0.158867 -2.9434,-0.406966 -4.08328,-1.394706 -0.79878,-0.946806 -1.00678,-1.772066 -0.37093,-2.893327 0.66101,-0.86895 1.51519,-1.478193 2.61284,-1.660615 0.65022,-0.0626 1.6523,-0.143209 1.79812,0.69293 -0.1863,0.723085 -0.90463,0.919642 -1.57231,1.037693 -1.20426,0.15262 -2.41757,0.178597 -3.63047,0.139896 -0.31307,-0.0036 -0.30802,-0.446318 0.005,-0.442751 z"
       inkscape:connector-curvature="0" />
  </g>
</svg>
