<?xml version="1.0" encoding="UTF-8" standalone="no"?>
<!-- Created with Inkscape (http://www.inkscape.org/) -->

<svg
   xmlns:dc="http://purl.org/dc/elements/1.1/"
   xmlns:cc="http://creativecommons.org/ns#"
   xmlns:rdf="http://www.w3.org/1999/02/22-rdf-syntax-ns#"
   xmlns:svg="http://www.w3.org/2000/svg"
   xmlns="http://www.w3.org/2000/svg"
   xmlns:sodipodi="http://sodipodi.sourceforge.net/DTD/sodipodi-0.dtd"
   xmlns:inkscape="http://www.inkscape.org/namespaces/inkscape"
   width="208.09021mm"
   height="159.99759mm"
   viewBox="0 0 208.09021 159.99759"
   version="1.1"
   id="svg3840"
   inkscape:version="0.92.2 5c3e80d, 2017-08-06"
   sodipodi:docname="facing_pt.svg">
  <defs
     id="defs3834" />
  <sodipodi:namedview
     id="base"
     pagecolor="#ffffff"
     bordercolor="#666666"
     borderopacity="1.0"
     inkscape:pageopacity="0.0"
     inkscape:pageshadow="2"
     inkscape:zoom="0.86619544"
     inkscape:cx="431.19829"
     inkscape:cy="271.23139"
     inkscape:document-units="mm"
     inkscape:current-layer="layer1"
     showgrid="false"
     inkscape:snap-global="false"
     fit-margin-top="0"
     fit-margin-left="0"
     fit-margin-right="0"
     fit-margin-bottom="0" />
  <metadata
     id="metadata3837">
    <rdf:RDF>
      <cc:Work
         rdf:about="">
        <dc:format>image/svg+xml</dc:format>
        <dc:type
           rdf:resource="http://purl.org/dc/dcmitype/StillImage" />
        <dc:title></dc:title>
      </cc:Work>
    </rdf:RDF>
  </metadata>
  <g
     inkscape:label="Layer 1"
     inkscape:groupmode="layer"
     id="layer1"
     transform="translate(24.805004,-76.15941)">
    <path
       style="opacity:1;fill:none;fill-opacity:1;stroke:#000000;stroke-width:1;stroke-linecap:round;stroke-linejoin:miter;stroke-miterlimit:4;stroke-dasharray:none;stroke-dashoffset:0;stroke-opacity:1"
       id="path4387"
       d="m 48.33507,93.60659 c 0.09761,3.3846 0.12301,6.77087 0.185441,10.15627 0.172013,7.73694 0.594571,15.46528 1.01473,23.19182 0.462235,7.83351 0.949354,15.6653 1.347367,23.50243 0.243906,4.94132 0.424701,9.88632 0.387175,14.83412 -0.06777,1.73116 -0.01243,0.92607 -0.147828,2.41646 1.11e-4,0.0107 -0.015,0.0108 -0.01511,1.6e-4 v 0 c -0.166065,-1.48635 -0.09255,-0.68326 -0.204081,-2.41074 -0.195932,-4.93705 -0.319873,-9.87708 -0.578906,-14.81162 -0.397978,-7.83661 -0.885388,-15.66791 -1.337339,-23.5015 -0.405831,-7.73362 -0.830942,-15.46876 -0.972235,-23.21284 -0.04847,-3.38476 -0.07321,-6.769662 -0.07533,-10.154779 -0.0069,-0.280103 0.389213,-0.289885 0.396129,-0.0098 z"
       inkscape:connector-curvature="0" />
    <path
       style="opacity:1;fill:none;fill-opacity:1;stroke:#000000;stroke-width:1;stroke-linecap:round;stroke-linejoin:miter;stroke-miterlimit:4;stroke-dasharray:none;stroke-dashoffset:0;stroke-opacity:1"
       id="path4391"
       d="m 43.218385,93.816285 c 2.384277,-0.188777 4.776047,-0.260045 7.165859,-0.339796 5.585663,-0.181647 11.171346,-0.358974 16.758581,-0.484362 8.012506,-0.15712 16.02631,-0.232984 24.040065,-0.289399 7.213925,-0.03924 14.42805,-0.02228 21.64188,0.02683 2.4255,0.0058 4.84745,0.03938 7.26693,0.205965 0.0107,-2.65e-4 0.0112,0.01474 5.3e-4,0.01511 v 0 c -2.40851,0.332942 -4.84699,0.14387 -7.26952,0.189207 -7.21234,-0.02328 -14.424765,-0.05892 -21.637121,-0.01725 -8.011766,0.04643 -16.023646,0.111897 -24.034181,0.265681 -5.586225,0.116512 -11.171375,0.267285 -16.756422,0.430371 -2.386695,0.07014 -4.773547,0.142288 -7.157651,0.277278 -0.197742,0.01339 -0.216686,-0.26625 -0.01895,-0.279646 z"
       inkscape:connector-curvature="0" />
    <path
       style="opacity:1;fill:none;fill-opacity:1;stroke:#000000;stroke-width:1;stroke-linecap:round;stroke-linejoin:miter;stroke-miterlimit:4;stroke-dasharray:none;stroke-dashoffset:0;stroke-opacity:1"
       id="path4397"
       d="m 118.75199,96.479491 c 0.005,3.199834 -0.12103,6.398579 -0.24111,9.595659 -0.31863,6.85192 -0.59187,13.70467 -0.73293,20.56267 -0.15627,7.54303 0.0735,15.08545 0.2906,22.6246 0.18321,5.43102 0.22949,10.86603 0.0202,16.29649 -0.19906,1.45358 0.0871,4.19125 -0.96604,5.34894 -0.006,0.009 -0.0185,0.001 -0.0129,-0.008 v 0 c 0.16448,-0.48031 0.20324,-0.98174 0.25176,-1.48665 0.1237,-1.28725 0.17297,-2.58013 0.22673,-3.87166 0.16377,-5.42084 0.16118,-10.84403 -0.0328,-16.26462 -0.21419,-7.54762 -0.44875,-15.09888 -0.27888,-22.65016 0.1571,-6.86094 0.44173,-13.71665 0.79893,-20.57009 0.14877,-3.19508 0.25671,-6.392432 0.45025,-9.585199 0.006,-0.159972 0.23179,-0.152117 0.22624,0.0079 z"
       inkscape:connector-curvature="0" />
    <path
       style="opacity:1;fill:none;fill-opacity:1;stroke:#000000;stroke-width:1;stroke-linecap:round;stroke-linejoin:miter;stroke-miterlimit:4;stroke-dasharray:none;stroke-dashoffset:0;stroke-opacity:1"
       id="path4401"
       d="m 45.842012,166.1129 c 3.773567,-0.30308 7.556114,-0.47888 11.337028,-0.66064 8.939514,-0.39736 17.887212,-0.55254 26.833716,-0.69115 9.078097,-0.11715 18.156434,-0.20236 27.233034,-0.41038 4.10363,-0.0642 8.20157,-0.2988 12.30248,-0.43903 0.38371,-0.13645 0.74422,0.0994 1.11894,0.0618 0.0106,-0.002 0.0129,0.0133 0.002,0.0149 v 0 c -0.37684,0.0805 -0.68524,0.30913 -1.10018,0.25939 -4.0925,0.37385 -8.20938,0.39816 -12.31342,0.54629 -9.07772,0.20804 -18.157181,0.29366 -27.2364,0.41082 -8.942147,0.13524 -17.88509,0.2902 -26.821077,0.66416 -3.780761,0.17077 -7.560034,0.37075 -11.34061,0.54324 -0.211736,0.0112 -0.227589,-0.28823 -0.01585,-0.29944 z"
       inkscape:connector-curvature="0" />
    <path
       style="opacity:1;fill:none;fill-opacity:1;stroke:#000000;stroke-width:1;stroke-linecap:round;stroke-linejoin:miter;stroke-miterlimit:4;stroke-dasharray:none;stroke-dashoffset:0;stroke-opacity:1"
       id="path4433"
       d="m 75.661974,122.33198 c -0.09434,1.10589 -0.240578,2.20597 -0.3303,3.31262 -0.123214,1.43834 0.0021,2.87041 0.309049,4.27634 0.139168,0.51107 0.263787,1.03638 0.498271,1.51482 0.01945,-0.0517 -0.09034,-0.007 -0.124862,-0.0332 -0.03313,-0.0247 0.294918,-0.62017 0.312256,-0.65155 0.327842,-0.5641 0.770718,-1.01069 1.361654,-1.28619 0.654177,-0.22312 1.29399,-0.0196 1.903743,0.23618 0.33732,0.18135 0.974104,0.50242 0.805485,1.00044 -0.03046,0.09 -0.1,0.16151 -0.149998,0.24226 -0.08878,0.0714 -0.170085,0.15332 -0.266351,0.2143 -0.777806,0.49268 -1.782995,0.57099 -2.671979,0.66244 -0.951754,0.0598 -1.915705,0.0502 -2.854513,-0.13096 -0.123883,-0.052 -0.298405,-0.049 -0.398404,-0.15079 -0.0041,0.001 -0.0059,-0.005 -0.0019,-0.006 v 0 c 0.101944,-0.12301 0.293076,-0.0267 0.429873,-0.0242 0.92908,0.12487 1.86762,0.18153 2.804168,0.10766 0.95599,-0.0953 2.005672,-0.18375 2.797916,-0.78201 0.03985,-0.0516 0.09085,-0.0961 0.119539,-0.15465 0.18764,-0.38258 -0.454814,-0.67156 -0.688504,-0.80022 -0.557221,-0.23199 -1.146072,-0.42968 -1.746044,-0.23522 -0.552672,0.25434 -0.957424,0.6818 -1.26075,1.20755 -0.01887,0.0348 -0.331068,0.70115 -0.333203,0.70258 -0.15657,0.10423 -0.166277,0.0584 -0.239654,-0.0227 -0.23045,-0.49663 -0.338855,-1.04617 -0.492935,-1.56795 -0.310073,-1.42544 -0.436192,-2.87724 -0.308364,-4.33514 0.09232,-1.10577 0.229971,-2.20561 0.361913,-3.30715 0.0075,-0.11582 0.171297,-0.10522 0.163801,0.0106 z"
       inkscape:connector-curvature="0" />
    <g
       id="g4473"
       transform="translate(15.68,7.2942545)">
      <g
         transform="rotate(-150.77497,143.04057,177.81986)"
         id="g4425">
        <path
           style="opacity:1;fill:none;fill-opacity:1;stroke:#000000;stroke-width:1;stroke-linecap:round;stroke-linejoin:miter;stroke-miterlimit:4;stroke-dasharray:none;stroke-dashoffset:0;stroke-opacity:1"
           id="path4419"
           d="m 151.70933,167.50797 c 0.01,1.07913 -0.0785,2.15617 -0.16232,3.23116 -0.0736,0.86867 -0.11106,1.7401 -0.18834,2.60843 -0.01,0.18041 -0.0425,0.35395 -0.0997,0.52444 -5.3e-4,0.004 -0.007,0.004 -0.006,-8e-4 v 0 c -0.0136,-0.17614 -0.0264,-0.35238 -0.0298,-0.52909 -0.008,-0.8746 0.0457,-1.7477 0.11917,-2.61898 0.0835,-1.06835 0.16782,-2.13825 0.17264,-3.21046 -0.003,-0.13744 0.19104,-0.14217 0.19438,-0.005 z"
           inkscape:connector-curvature="0" />
        <path
           style="opacity:1;fill:none;fill-opacity:1;stroke:#000000;stroke-width:1;stroke-linecap:round;stroke-linejoin:miter;stroke-miterlimit:4;stroke-dasharray:none;stroke-dashoffset:0;stroke-opacity:1"
           id="path4421"
           d="m 151.75947,167.32454 c 0.93659,0.52315 1.94855,0.8953 2.94327,1.29063 1.18392,0.45072 2.34475,0.95727 3.45888,1.56058 0.34679,0.25035 0.91117,0.40715 1.08911,0.83386 -0.009,0.0505 -0.004,0.10551 -0.0263,0.15153 -0.16663,0.33957 -0.95421,0.59567 -1.26915,0.72468 -1.15704,0.44946 -2.36879,0.73094 -3.57704,1.0027 -0.87824,0.18608 -1.75789,0.36847 -2.6431,0.51877 -0.12887,0.0763 -0.29418,-0.007 -0.42211,0.0217 -0.004,0.002 -0.006,-0.004 -0.002,-0.006 v 0 c 0.12771,-0.0685 0.22792,-0.1726 0.39002,-0.17975 0.87042,-0.21658 1.75591,-0.36528 2.63093,-0.56147 1.19721,-0.26896 2.39823,-0.54525 3.54732,-0.98309 0.40887,-0.16572 0.85729,-0.31754 1.18514,-0.62535 -0.0429,-0.24583 -0.81669,-0.58606 -0.99877,-0.72033 -1.10743,-0.59906 -2.26109,-1.10219 -3.43749,-1.55041 -1.0056,-0.40063 -2.02916,-0.77938 -2.96862,-1.32308 -0.1098,-0.0707 -0.01,-0.22604 0.10006,-0.15528 z"
           inkscape:connector-curvature="0" />
      </g>
      <path
         inkscape:connector-curvature="0"
         d="m 132.38772,180.81245 c 1.10441,1.02504 2.40356,1.80562 3.68312,2.58778 2.03321,1.20277 4.12411,2.30366 6.21158,3.40823 0.72717,0.45784 1.67437,0.78163 2.33551,1.34162 0.14029,0.18232 0.0603,0.20843 -0.0994,0.29162 -0.004,0.002 -0.007,-0.003 -0.003,-0.005 v 0 c 0.0889,-0.0596 0.0595,-0.0789 -0.009,-0.14163 -0.73019,-0.50314 -1.56375,-0.84568 -2.32594,-1.29393 -2.09115,-1.10693 -4.18337,-2.21501 -6.2147,-3.42959 -1.28759,-0.79294 -2.5998,-1.58371 -3.68936,-2.6449 -0.0806,-0.0786 0.0306,-0.19258 0.1112,-0.11394 z"
         id="path4431"
         style="opacity:1;fill:none;fill-opacity:1;stroke:#000000;stroke-width:1;stroke-linecap:round;stroke-linejoin:miter;stroke-miterlimit:4;stroke-dasharray:none;stroke-dashoffset:0;stroke-opacity:1" />
      <path
         inkscape:connector-curvature="0"
         d="m 132.31131,169.4408 c -0.58459,-0.25244 -1.20418,-0.32458 -1.83437,-0.30054 -0.67935,0.0569 -1.2914,0.31636 -1.83429,0.71804 -0.30603,0.27726 -0.522,0.5423 -0.30103,0.94064 0.26211,0.30127 0.62621,0.31035 0.98983,0.23174 0.51963,-0.16369 0.86521,-0.57305 1.17968,-0.99458 0.51973,-0.77208 0.81079,-1.66182 1.08023,-2.54432 0.27036,-0.95372 0.47201,-1.92629 0.60221,-2.90879 0.0138,-0.25156 0.0517,-0.51001 0.006,-0.76114 -0.008,-0.0414 -0.0371,-0.21055 -0.11251,-0.1431 -0.33524,0.43965 -0.36779,1.04795 -0.43148,1.57614 -0.11103,1.11409 -0.0459,2.23099 0.11745,3.33547 0.11292,0.71918 0.33994,1.40976 0.58235,2.09339 0.0716,0.16886 0.094,0.32395 0.0561,0.50104 1.7e-4,0.004 -0.006,0.005 -0.006,2.4e-4 v 0 c -0.0509,-0.15425 -0.15582,-0.2852 -0.20572,-0.4414 -0.28314,-0.68301 -0.48111,-1.39834 -0.60691,-2.12689 -0.16234,-1.1205 -0.22231,-2.25352 -0.0978,-3.38225 0.0607,-0.45523 0.1141,-1.23894 0.45458,-1.59625 0.0373,-0.0392 0.0892,-0.0611 0.13386,-0.0916 0.0437,0.007 0.0925,-0.001 0.1312,0.0205 0.23051,0.12852 0.11429,0.84135 0.10658,1.03278 -0.13131,0.98952 -0.33325,1.96829 -0.61167,2.92734 -0.26657,0.90098 -0.54681,1.81171 -1.07017,2.60261 -0.33303,0.46277 -0.70722,0.89801 -1.27355,1.06735 -0.43871,0.0854 -0.86693,0.0515 -1.16116,-0.32675 -0.24743,-0.49922 -0.0316,-0.78653 0.3475,-1.13504 0.56869,-0.41923 1.20803,-0.69224 1.91934,-0.74976 0.65274,-0.0234 1.29608,0.0503 1.89889,0.3195 0.0959,0.0416 0.0371,0.17725 -0.0588,0.13568 z"
         id="path4437"
         style="opacity:1;fill:none;fill-opacity:1;stroke:#000000;stroke-width:1;stroke-linecap:round;stroke-linejoin:miter;stroke-miterlimit:4;stroke-dasharray:none;stroke-dashoffset:0;stroke-opacity:1" />
      <path
         inkscape:connector-curvature="0"
         d="m 126.54871,193.63902 c 1.11747,-0.0144 2.23489,0.017 3.35193,0.0442 1.91147,0.0518 3.82288,0.0988 5.73506,0.11031 1.60921,0.006 3.21832,-0.0317 4.82537,-0.11387 0.39084,0.0371 0.84868,-0.15574 1.22828,-7.9e-4 0.004,7e-5 0.004,0.006 -1.1e-4,0.006 v 0 c -0.38508,0.15498 -0.81211,0.12784 -1.21935,0.16615 -1.61033,0.0832 -3.22279,0.11861 -4.8353,0.10798 -1.91328,-0.0143 -3.82593,-0.0594 -5.73815,-0.12499 -1.11581,-0.0349 -2.23181,-0.0635 -3.34773,-0.0949 -0.0709,0 -0.0709,-0.10027 0,-0.10027 z"
         id="path4439"
         style="opacity:1;fill:none;fill-opacity:1;stroke:#000000;stroke-width:1;stroke-linecap:round;stroke-linejoin:miter;stroke-miterlimit:4;stroke-dasharray:none;stroke-dashoffset:0;stroke-opacity:1" />
      <path
         inkscape:connector-curvature="0"
         d="m 125.85914,190.75694 c -0.50907,0.3333 -1.01464,0.6718 -1.52601,1.00158 -0.54269,0.34735 -1.09175,0.6848 -1.62487,1.04683 -0.33065,0.24033 -0.68138,0.4776 -0.90257,0.82893 -0.13755,0.30602 0.16633,0.46383 0.39117,0.60383 0.60341,0.32368 1.24632,0.56579 1.88571,0.80742 0.66363,0.25333 1.34987,0.44349 2.00745,0.71259 0.18834,0.0663 0.28563,0.15683 0.37152,0.32653 0.002,0.004 -0.003,0.007 -0.005,0.003 v 0 c -0.091,-0.11803 -0.29412,-0.11537 -0.41926,-0.19057 -0.67004,-0.23535 -1.34715,-0.45023 -2.01346,-0.6962 -0.64912,-0.24642 -1.30165,-0.49444 -1.91075,-0.83074 -0.29779,-0.19245 -0.62075,-0.42095 -0.41956,-0.80828 0.23727,-0.36291 0.59051,-0.61957 0.94228,-0.86488 0.53746,-0.35728 1.08776,-0.69457 1.63328,-1.03931 0.51473,-0.32542 1.02439,-0.6589 1.5431,-0.97795 0.0544,-0.0333 0.10159,0.0436 0.0471,0.077 z"
         id="path4441"
         style="opacity:1;fill:none;fill-opacity:1;stroke:#000000;stroke-width:1;stroke-linecap:round;stroke-linejoin:miter;stroke-miterlimit:4;stroke-dasharray:none;stroke-dashoffset:0;stroke-opacity:1" />
      <path
         inkscape:connector-curvature="0"
         d="m 130.56779,199.563 c 0.78633,0.0251 1.57312,0.0347 2.35975,0.046 0.78621,0.009 1.57243,0.0212 2.35863,0.007 0.13546,0.0263 0.31312,-0.0451 0.43869,0.0266 0.0733,-0.01 0.0873,0.0937 0.014,0.10365 v 0 c -0.11088,0.10444 -0.31228,0.0647 -0.44852,0.0854 -0.78877,0.0166 -1.57761,0.002 -2.36635,-0.011 -0.78913,-0.0149 -1.57873,-0.0252 -2.36704,-0.0658 -0.13569,-0.008 -0.12489,-0.19953 0.0108,-0.19189 z"
         id="path4447"
         style="opacity:1;fill:none;fill-opacity:1;stroke:#000000;stroke-width:1;stroke-linecap:round;stroke-linejoin:miter;stroke-miterlimit:4;stroke-dasharray:none;stroke-dashoffset:0;stroke-opacity:1" />
      <path
         inkscape:connector-curvature="0"
         d="m 145.04261,172.1478 c 0.1799,0.97746 0.24219,1.96997 0.27865,2.96143 0.0344,1.51406 -0.0884,3.02534 -0.15311,4.53695 -0.066,1.3646 0.0334,2.72623 0.20136,4.07947 0.0288,0.52322 0.20571,1.047 0.18423,1.57436 -0.004,0.0962 -0.0536,0.31582 -0.076,0.42152 -5.2e-4,0.004 -0.007,0.004 -0.006,-7.9e-4 v 0 c 0.006,-0.23862 -0.0546,-0.45907 -0.0977,-0.69406 -0.0779,-0.42385 -0.15797,-0.84745 -0.21543,-1.27473 -0.1718,-1.36486 -0.26893,-2.7386 -0.20026,-4.11504 0.0674,-1.50689 0.19415,-3.01234 0.18001,-4.52184 -0.0274,-0.98513 -0.0832,-1.96967 -0.23572,-2.94454 -0.0161,-0.099 0.12393,-0.12184 0.14006,-0.0228 z"
         id="path4449"
         style="opacity:1;fill:none;fill-opacity:1;stroke:#000000;stroke-width:1;stroke-linecap:round;stroke-linejoin:miter;stroke-miterlimit:4;stroke-dasharray:none;stroke-dashoffset:0;stroke-opacity:1" />
      <path
         inkscape:connector-curvature="0"
         d="m 142.33942,173.61065 c 0.41933,-0.40752 0.761,-0.88034 1.07024,-1.37405 0.24721,-0.41416 0.46022,-0.8472 0.66857,-1.2818 0.0619,-0.1093 0.0911,-0.23838 0.17337,-0.33456 0.0531,0.0106 0.10993,0.01 0.15928,0.0319 0.0598,0.027 0.57911,0.62968 0.6394,0.69276 0.62722,0.64664 1.34201,1.19546 2.07287,1.71812 0.45401,0.38031 1.10632,0.59577 1.42998,1.115 0.003,0.003 -7.9e-4,0.007 -0.004,0.005 v 0 c -0.55658,-0.2402 -1.03532,-0.63217 -1.54214,-0.95723 -0.74062,-0.53017 -1.46365,-1.0889 -2.0935,-1.75042 -0.16616,-0.17565 -0.33017,-0.35226 -0.49009,-0.53359 -0.0277,-0.0314 -0.0551,-0.0631 -0.0828,-0.0944 -0.0159,-0.0179 -0.0561,-0.0308 -0.048,-0.0533 0.01,-0.0273 0.0533,-0.0229 0.0799,-0.0344 0.0562,-0.0889 -0.12462,0.28516 -0.11879,0.27951 -0.21109,0.44141 -0.42836,0.88053 -0.67956,1.30084 -0.31737,0.50648 -0.66724,0.99256 -1.1006,1.40778 -0.0967,0.0949 -0.23088,-0.0419 -0.13414,-0.1368 z"
         id="path4451"
         style="opacity:1;fill:none;fill-opacity:1;stroke:#000000;stroke-width:1;stroke-linecap:round;stroke-linejoin:miter;stroke-miterlimit:4;stroke-dasharray:none;stroke-dashoffset:0;stroke-opacity:1" />
      <path
         inkscape:connector-curvature="0"
         d="m 149.27261,179.88126 c 0.83952,0.10531 1.68602,0.13794 2.53076,0.17237 0.69921,0.0334 1.3994,0.0312 2.09877,0.058 0.21411,-0.0259 0.41035,0.0666 0.61268,0.0981 0.004,5.3e-4 0.004,0.007 -8e-4,0.006 v 0 c -0.18446,-0.0163 -0.4171,0.12234 -0.61307,0.0758 -0.70224,0.018 -1.40461,-0.009 -2.10633,-0.0351 -0.85147,-0.0383 -1.7058,-0.0763 -2.54953,-0.20361 -0.12138,-0.0194 -0.0939,-0.19108 0.0275,-0.17165 z"
         id="path4453"
         style="opacity:1;fill:none;fill-opacity:1;stroke:#000000;stroke-width:1;stroke-linecap:round;stroke-linejoin:miter;stroke-miterlimit:4;stroke-dasharray:none;stroke-dashoffset:0;stroke-opacity:1" />
      <path
         inkscape:connector-curvature="0"
         d="m 151.81093,178.47555 c 0.0903,0.71348 0.12146,1.4322 0.14295,2.15044 0.0207,0.7362 0.008,1.47262 -0.0995,2.20182 -0.0731,0.32329 -0.0293,0.17166 -0.12648,0.45622 -5.3e-4,0.004 -0.007,0.003 -0.006,-7.9e-4 v 0 c -0.0149,-0.29722 -0.0117,-0.14124 -0.007,-0.46798 0.0241,-0.72742 0.0486,-1.45527 0.0319,-2.18318 -0.0203,-0.71358 -0.054,-1.42657 -0.11746,-2.13779 -0.0132,-0.12815 0.16803,-0.14683 0.18124,-0.0187 z"
         id="path4455"
         style="opacity:1;fill:none;fill-opacity:1;stroke:#000000;stroke-width:1;stroke-linecap:round;stroke-linejoin:miter;stroke-miterlimit:4;stroke-dasharray:none;stroke-dashoffset:0;stroke-opacity:1" />
    </g>
    <path
       style="opacity:1;fill:none;fill-opacity:1;stroke:#000000;stroke-width:1;stroke-linecap:round;stroke-linejoin:miter;stroke-miterlimit:4;stroke-dasharray:none;stroke-dashoffset:0;stroke-opacity:1"
       id="path4459"
       d="m 119.84511,160.84609 c -0.59424,-0.20504 -1.20674,-0.35387 -1.82678,-0.45453 -0.87158,-0.12658 -1.66539,0.16867 -2.4343,0.54469 -0.79816,0.45254 -1.54647,1.02247 -2.09175,1.76976 -0.11036,0.15123 -0.20281,0.31475 -0.30422,0.47213 -0.4453,0.84169 -0.67821,1.79592 -0.50194,2.7466 0.0344,0.18523 0.0984,0.36369 0.1476,0.54554 0.37761,0.95571 1.11283,1.64728 2.06388,2.0274 0.20017,0.08 0.4106,0.13144 0.6159,0.19717 0.99864,0.22193 2.0572,0.24518 3.03099,-0.10824 0.17104,-0.0621 0.33246,-0.14799 0.4987,-0.22199 1.17003,-0.6848 1.69297,-1.60223 2.20068,-2.81838 0.31899,-0.95003 0.46745,-1.99034 0.0549,-2.93886 -0.0671,-0.15439 -0.16191,-0.29524 -0.24286,-0.44286 -0.38753,-0.4891 -0.18503,-0.26395 -0.60293,-0.67952 -0.003,-0.003 7.9e-4,-0.007 0.004,-0.005 v 0 c 0.48842,0.36023 0.25361,0.15398 0.69687,0.62724 0.0927,0.15105 0.20139,0.29336 0.27803,0.45315 0.46785,0.97542 0.32234,2.07071 -2.4e-4,3.06286 -0.0872,0.21439 -0.16379,0.43344 -0.26166,0.64319 -0.44584,0.95546 -1.1016,1.79421 -2.03116,2.31397 -0.17654,0.0777 -0.34804,0.16799 -0.52962,0.23302 -1.01866,0.36479 -2.12428,0.33725 -3.16555,0.0961 -0.21474,-0.0707 -0.43498,-0.12653 -0.64421,-0.21218 -1.00639,-0.41197 -1.78007,-1.15465 -2.17253,-2.17245 -0.0505,-0.19323 -0.11657,-0.38304 -0.15136,-0.57969 -0.1765,-0.99765 0.0708,-1.99769 0.54244,-2.87757 0.1064,-0.16336 0.20361,-0.33309 0.31921,-0.49007 0.56529,-0.76767 1.33671,-1.3542 2.16306,-1.81462 0.8063,-0.38671 1.63767,-0.68637 2.5472,-0.55005 0.63267,0.10401 1.25332,0.25925 1.84987,0.49803 0.0953,0.0369 0.0431,0.17177 -0.0522,0.13484 z"
       inkscape:connector-curvature="0" />
    <g
       id="g4484"
       transform="matrix(1.0580515,0,0,0.99503621,-9.8833185,1.0868804)">
      <path
         inkscape:connector-curvature="0"
         d="m 41.95519,219.86637 c 2.430497,-0.20307 4.860957,-0.4045 7.293213,-0.58591 6.241868,-0.46049 12.496644,-0.70052 18.751005,-0.91031 9.450795,-0.29791 18.905527,-0.43585 28.360015,-0.54862 10.054797,-0.1148 20.110137,-0.16635 30.165447,-0.11221 7.55068,0.0463 15.09747,0.29692 22.6413,0.6045 4.10694,0.17995 8.21396,0.3595 12.31961,0.56701 0.83762,0.006 1.66096,0.10943 2.48644,0.22914 0.006,5.3e-4 0.005,0.009 -7.9e-4,0.009 v 0 c -0.82977,-0.0219 -1.66472,0.0805 -2.49554,-0.009 -4.10809,-0.14636 -8.21364,-0.35457 -12.32067,-0.52693 -7.54075,-0.30483 -15.08446,-0.55063 -22.63188,-0.59878 -10.05373,-0.0541 -20.10751,-0.002 -30.160731,0.11198 -9.452573,0.1108 -18.905371,0.24904 -28.354308,0.54363 -6.250832,0.20632 -12.502139,0.44485 -18.740546,0.90236 -2.43295,0.1804 -4.864137,0.38068 -7.295494,0.58078 -0.180895,0.0121 -0.198019,-0.24371 -0.01712,-0.25582 z"
         id="path4475"
         style="opacity:1;fill:none;fill-opacity:1;stroke:#000000;stroke-width:1;stroke-linecap:round;stroke-linejoin:miter;stroke-miterlimit:4;stroke-dasharray:none;stroke-dashoffset:0;stroke-opacity:1" />
      <path
         inkscape:connector-curvature="0"
         d="m 164.28539,216.57508 c -0.11775,0.85225 -0.2052,1.70819 -0.26415,2.56642 -0.0434,0.55823 -0.02,1.11593 0.0227,1.67288 0.0142,0.11161 -0.002,0.22213 -0.0147,0.33274 0.001,0.006 -0.007,0.008 -0.008,0.002 v 0 c -0.0633,-0.0955 -0.12976,-0.1887 -0.16557,-0.29921 -0.16693,-0.56127 -0.14701,-1.14826 -0.11271,-1.72767 0.0598,-0.86394 0.1463,-1.72615 0.27283,-2.58307 0.0254,-0.19096 0.29543,-0.15508 0.27006,0.0359 z"
         id="path4477"
         style="opacity:1;fill:none;fill-opacity:1;stroke:#000000;stroke-width:1;stroke-linecap:round;stroke-linejoin:miter;stroke-miterlimit:4;stroke-dasharray:none;stroke-dashoffset:0;stroke-opacity:1" />
      <path
         inkscape:connector-curvature="0"
         d="m 164.56475,216.39668 c 0.94592,0.49081 1.89948,0.9661 2.86532,1.41645 0.71227,0.32939 1.44493,0.61091 2.18473,0.8714 0.32953,0.0985 0.67839,0.23618 0.17954,0.52411 -0.80683,0.35095 -1.6601,0.5853 -2.5019,0.83638 -1.07647,0.31483 -2.15401,0.62738 -3.20871,1.00999 -0.3016,0.13209 -0.63321,0.2212 -0.89273,0.43254 -0.013,0.0176 -0.0261,0.0352 -0.0392,0.0528 0.001,0.006 -0.007,0.008 -0.008,0.002 v 0 c -0.0218,-0.0287 -0.0436,-0.0573 -0.0654,-0.086 0.0221,-0.41542 0.60614,-0.52437 0.90619,-0.67401 1.05934,-0.38827 2.14338,-0.70113 3.22709,-1.01337 0.82716,-0.23918 1.66485,-0.45795 2.46473,-0.77957 0.17982,-0.0867 0.0664,-0.0763 0.13054,0.01 0.0131,0.0176 0.042,0.0202 0.0531,0.0392 0.0134,0.0229 -0.26951,-0.12301 -0.32696,-0.11744 -0.75007,-0.25737 -1.49103,-0.54204 -2.2113,-0.87467 -0.9682,-0.45193 -1.92436,-0.9284 -2.87277,-1.42055 -0.16181,-0.0821 -0.0457,-0.31094 0.11613,-0.22883 z"
         id="path4479"
         style="opacity:1;fill:none;fill-opacity:1;stroke:#000000;stroke-width:1;stroke-linecap:round;stroke-linejoin:miter;stroke-miterlimit:4;stroke-dasharray:none;stroke-dashoffset:0;stroke-opacity:1" />
    </g>
    <g
       id="g4492"
       transform="rotate(-90.21064,32.465202,214.23299)">
      <path
         style="opacity:1;fill:none;fill-opacity:1;stroke:#000000;stroke-width:1.0651623;stroke-linecap:round;stroke-linejoin:miter;stroke-miterlimit:4;stroke-dasharray:none;stroke-dashoffset:0;stroke-opacity:1"
         id="path4486"
         d="m 22.120416,219.76705 c 2.824808,-0.19656 5.649574,-0.39152 8.476441,-0.56694 7.254557,-0.44524 14.524268,-0.67526 21.793518,-0.87577 10.984378,-0.28434 21.973442,-0.41252 32.96224,-0.51613 11.68653,-0.10518 23.373735,-0.14862 35.060975,-0.0889 8.77613,0.0504 17.54787,0.30017 26.31621,0.60558 4.77359,0.17847 9.54727,0.35655 14.31938,0.56192 0.97356,0.006 1.93059,0.10795 2.89012,0.22537 0.007,5.3e-4 0.006,0.009 -9.1e-4,0.009 v 0 c -0.96445,-0.022 -1.93484,0.0774 -2.90055,-0.0105 -4.7749,-0.14568 -9.54689,-0.35174 -14.32058,-0.5228 -8.76476,-0.30272 -17.53292,-0.54782 -26.30526,-0.59999 -11.6854,-0.0597 -23.370795,-0.0157 -35.055494,0.0887 -10.986573,0.10169 -21.973389,0.23017 -32.95561,0.51126 -7.26515,0.19713 -14.53083,0.42569 -21.781367,0.86802 -2.827675,0.17443 -5.653287,0.36827 -8.479096,0.56193 -0.210245,0.0117 -0.230323,-0.23803 -0.02007,-0.24973 z"
         inkscape:connector-curvature="0" />
      <path
         style="opacity:1;fill:none;fill-opacity:1;stroke:#000000;stroke-width:1;stroke-linecap:round;stroke-linejoin:miter;stroke-miterlimit:4;stroke-dasharray:none;stroke-dashoffset:0;stroke-opacity:1"
         id="path4488"
         d="m 164.28539,216.57508 c -0.11775,0.85225 -0.2052,1.70819 -0.26415,2.56642 -0.0434,0.55823 -0.02,1.11593 0.0227,1.67288 0.0142,0.11161 -0.002,0.22213 -0.0147,0.33274 0.001,0.006 -0.007,0.008 -0.008,0.002 v 0 c -0.0633,-0.0955 -0.12976,-0.1887 -0.16557,-0.29921 -0.16693,-0.56127 -0.14701,-1.14826 -0.11271,-1.72767 0.0598,-0.86394 0.1463,-1.72615 0.27283,-2.58307 0.0254,-0.19096 0.29543,-0.15508 0.27006,0.0359 z"
         inkscape:connector-curvature="0" />
      <path
         style="opacity:1;fill:none;fill-opacity:1;stroke:#000000;stroke-width:1;stroke-linecap:round;stroke-linejoin:miter;stroke-miterlimit:4;stroke-dasharray:none;stroke-dashoffset:0;stroke-opacity:1"
         id="path4490"
         d="m 164.56475,216.39668 c 0.94592,0.49081 1.89948,0.9661 2.86532,1.41645 0.71227,0.32939 1.44493,0.61091 2.18473,0.8714 0.32953,0.0985 0.67839,0.23618 0.17954,0.52411 -0.80683,0.35095 -1.6601,0.5853 -2.5019,0.83638 -1.07647,0.31483 -2.15401,0.62738 -3.20871,1.00999 -0.3016,0.13209 -0.63321,0.2212 -0.89273,0.43254 -0.013,0.0176 -0.0261,0.0352 -0.0392,0.0528 0.001,0.006 -0.007,0.008 -0.008,0.002 v 0 c -0.0218,-0.0287 -0.0436,-0.0573 -0.0654,-0.086 0.0221,-0.41542 0.60614,-0.52437 0.90619,-0.67401 1.05934,-0.38827 2.14338,-0.70113 3.22709,-1.01337 0.82716,-0.23918 1.66485,-0.45795 2.46473,-0.77957 0.17982,-0.0867 0.0664,-0.0763 0.13054,0.01 0.0131,0.0176 0.042,0.0202 0.0531,0.0392 0.0134,0.0229 -0.26951,-0.12301 -0.32696,-0.11744 -0.75007,-0.25737 -1.49103,-0.54204 -2.2113,-0.87467 -0.9682,-0.45193 -1.92436,-0.9284 -2.87277,-1.42055 -0.16181,-0.0821 -0.0457,-0.31094 0.11613,-0.22883 z"
         inkscape:connector-curvature="0" />
    </g>
    <path
       style="opacity:1;fill:none;fill-opacity:1;stroke:#000000;stroke-width:1;stroke-linecap:round;stroke-linejoin:miter;stroke-miterlimit:4;stroke-dasharray:none;stroke-dashoffset:0;stroke-opacity:1"
       id="path4494"
       d="m 117.59859,172.64734 c 0.0878,1.08664 0.11693,2.1773 0.15898,3.26646 0.0143,0.19635 0.0286,0.39269 0.0429,0.58904 8e-4,0.006 -0.008,0.007 -0.009,0.001 v 0 c -0.0368,-0.1939 -0.0737,-0.3878 -0.11047,-0.5817 -0.19804,-1.07457 -0.28998,-2.15587 -0.34827,-3.24638 -0.0202,-0.18768 0.24524,-0.21622 0.26542,-0.0285 z"
       inkscape:connector-curvature="0" />
    <path
       style="opacity:1;fill:none;fill-opacity:1;stroke:#000000;stroke-width:1;stroke-linecap:round;stroke-linejoin:miter;stroke-miterlimit:4;stroke-dasharray:none;stroke-dashoffset:0;stroke-opacity:1"
       id="path4496"
       d="m 117.9141,180.96247 c 0.006,1.00177 0.028,2.00338 0.0217,3.00518 -0.0101,0.18839 -0.0201,0.37679 -0.0302,0.56519 2.6e-4,0.006 -0.008,0.007 -0.009,5.3e-4 v 0 c -0.0314,-0.1864 -0.0628,-0.37279 -0.0942,-0.55918 -0.10414,-1.00025 -0.14021,-2.00325 -0.13077,-3.00891 -0.002,-0.17114 0.24007,-0.17391 0.24203,-0.003 z"
       inkscape:connector-curvature="0" />
    <path
       style="opacity:1;fill:none;fill-opacity:1;stroke:#000000;stroke-width:1;stroke-linecap:round;stroke-linejoin:miter;stroke-miterlimit:4;stroke-dasharray:none;stroke-dashoffset:0;stroke-opacity:1"
       id="path4498"
       d="m 118.35793,190.45687 c 0.009,1.17445 -0.0397,2.34746 -0.17318,3.51426 -0.0216,0.20494 -0.0431,0.40989 -0.0647,0.61483 -2.6e-4,0.006 -0.009,0.006 -0.009,-5.3e-4 v 0 c -0.001,-0.20583 -0.002,-0.41166 -0.003,-0.61749 -0.0384,-1.17022 -0.009,-2.34055 -0.002,-3.51117 0,-0.17757 0.25112,-0.17757 0.25112,0 z"
       inkscape:connector-curvature="0" />
    <path
       style="opacity:1;fill:none;fill-opacity:1;stroke:#000000;stroke-width:1;stroke-linecap:round;stroke-linejoin:miter;stroke-miterlimit:4;stroke-dasharray:none;stroke-dashoffset:0;stroke-opacity:1"
       id="path4500"
       d="m 118.43657,200.05574 c -0.0538,1.111 -0.14246,2.21899 -0.30268,3.31981 -2.7e-4,0.006 -0.009,0.006 -0.009,-5.3e-4 v 0 c -0.0492,-1.1122 -0.009,-2.22277 0.0673,-3.33316 0.01,-0.17252 0.25373,-0.15874 0.24399,0.0138 z"
       inkscape:connector-curvature="0" />
    <path
       style="opacity:1;fill:none;fill-opacity:1;stroke:#000000;stroke-width:1;stroke-linecap:round;stroke-linejoin:miter;stroke-miterlimit:4;stroke-dasharray:none;stroke-dashoffset:0;stroke-opacity:1"
       id="path4502"
       d="m 118.24802,208.71742 c 0.16851,0.94246 0.25477,1.8964 0.31203,2.85123 0.0162,0.63388 0.0171,0.32864 10e-4,0.91574 5.3e-4,0.006 -0.008,0.007 -0.009,0.001 v 0 c -0.14136,-0.57081 -0.076,-0.27218 -0.1919,-0.89677 -0.13146,-0.93961 -0.21723,-1.88549 -0.37755,-2.82102 -0.0354,-0.18737 0.22956,-0.23749 0.265,-0.0501 z"
       inkscape:connector-curvature="0" />
    <path
       style="opacity:1;fill:none;fill-opacity:1;stroke:#000000;stroke-width:1;stroke-linecap:round;stroke-linejoin:miter;stroke-miterlimit:4;stroke-dasharray:none;stroke-dashoffset:0;stroke-opacity:1"
       id="path4504"
       d="m 119.70893,215.9579 c 0.0417,1.08584 0.0729,2.17214 0.0934,3.25858 0.0572,0.68722 -0.0652,1.36649 -0.0393,2.0509 2.7e-4,0.006 -0.008,0.006 -0.009,2.6e-4 v 0 c -0.0349,-0.68435 -0.21499,-1.35139 -0.2079,-2.04197 -0.0584,-1.08487 -0.0855,-2.17065 -0.12293,-3.25637 -0.008,-0.20173 0.27714,-0.21325 0.28529,-0.0115 z"
       inkscape:connector-curvature="0" />
    <g
       id="g4557">
      <path
         inkscape:connector-curvature="0"
         d="m 98.865861,233.48625 c 0.962128,-0.009 1.924049,-0.0326 2.885769,-0.061 0.72471,-0.0217 1.44936,-0.048 2.17357,-0.0828 0.13687,-0.008 0.26544,-0.007 0.38946,0.0525 0.16455,0.0214 0.13431,0.25408 -0.0302,0.23271 v 0 c -0.0687,0.0878 -0.24979,0.0561 -0.34129,0.0798 -0.72685,0.0365 -1.4545,0.0559 -2.18202,0.073 -0.96492,0.0231 -1.930006,0.0438 -2.895259,0.0428 -0.238303,0 -0.238303,-0.337 0,-0.337 z"
         id="path4506"
         style="opacity:1;fill:none;fill-opacity:1;stroke:#000000;stroke-width:1;stroke-linecap:round;stroke-linejoin:miter;stroke-miterlimit:4;stroke-dasharray:none;stroke-dashoffset:0;stroke-opacity:1" />
      <path
         inkscape:connector-curvature="0"
         d="m 112.83495,231.69416 c 1.02641,0.0533 2.05417,0.0718 3.08172,0.0872 0.77554,0.007 1.55114,0.0179 2.31123,0.1821 0.006,2.6e-4 0.006,0.009 -5.3e-4,0.009 v 0 c -0.76869,0.0843 -1.54214,0.0757 -2.3146,0.0707 -1.03185,-0.0147 -2.06473,-0.0272 -3.09445,-0.10035 -0.17554,-0.0117 -0.15899,-0.25996 0.0165,-0.24825 z"
         id="path4508"
         style="opacity:1;fill:none;fill-opacity:1;stroke:#000000;stroke-width:1;stroke-linecap:round;stroke-linejoin:miter;stroke-miterlimit:4;stroke-dasharray:none;stroke-dashoffset:0;stroke-opacity:1" />
      <path
         inkscape:connector-curvature="0"
         d="m 112.58738,234.10196 c 1.15877,-0.0683 2.31986,-0.0845 3.48018,-0.10836 1.23694,-0.016 2.47356,-0.0491 3.71037,-0.0714 0.3652,0.036 0.81543,-0.10038 1.1374,0.10771 0.006,0.001 0.004,0.01 -0.002,0.008 v 0 c -0.30282,0.2245 -0.77603,0.11733 -1.12736,0.18109 -1.23716,0.045 -2.47511,0.06 -3.7129,0.0782 -1.15869,0.0186 -2.31748,0.0336 -3.47584,0.0684 -0.18669,0.007 -0.19659,-0.25702 -0.01,-0.26402 z"
         id="path4510"
         style="opacity:1;fill:none;fill-opacity:1;stroke:#000000;stroke-width:1;stroke-linecap:round;stroke-linejoin:miter;stroke-miterlimit:4;stroke-dasharray:none;stroke-dashoffset:0;stroke-opacity:1" />
      <path
         inkscape:connector-curvature="0"
         d="m 118.02929,229.69636 c 1.01214,0.50927 2.05793,0.94677 3.10559,1.37656 0.85354,0.35277 1.71921,0.6749 2.60104,0.94948 0.11065,0.0829 0.67943,0.0774 0.69726,0.29206 0.006,0.0689 -0.0415,0.13186 -0.0622,0.19779 -0.51558,0.32933 -1.0728,0.59583 -1.61493,0.87988 -0.94333,0.47952 -1.8786,0.97431 -2.80659,1.4828 -0.3436,0.24576 -0.78335,0.39366 -1.10177,0.67321 -0.003,0.005 -0.0106,2.7e-4 -0.007,-0.005 v 0 c 0.0135,-0.0376 0.0836,-0.234 0.0928,-0.24916 0.19221,-0.31468 0.58365,-0.47544 0.86729,-0.68247 0.91785,-0.53526 1.86483,-1.01782 2.81173,-1.49925 0.51609,-0.26006 1.04006,-0.50576 1.54688,-0.78344 0.0644,0.32798 -0.0338,-0.0382 0.0738,0.13487 0.0317,0.051 -0.11315,-0.0405 -0.17111,-0.056 -0.18579,-0.0498 -0.20694,-0.057 -0.40927,-0.11502 -0.89163,-0.27185 -1.76744,-0.59229 -2.62941,-0.9471 -1.05666,-0.43182 -2.11118,-0.8726 -3.13013,-1.38866 -0.18436,-0.0963 -0.0481,-0.35706 0.13624,-0.26071 z"
         id="path4512"
         style="opacity:1;fill:none;fill-opacity:1;stroke:#000000;stroke-width:1;stroke-linecap:round;stroke-linejoin:miter;stroke-miterlimit:4;stroke-dasharray:none;stroke-dashoffset:0;stroke-opacity:1" />
      <path
         inkscape:connector-curvature="0"
         d="m 130.32339,231.46201 c -0.0327,0.83712 -0.0516,1.67362 0.003,2.50996 0.0454,0.45441 0.10422,0.91317 0.26121,1.34427 -0.14286,-0.0525 0.0799,0.0965 0.0456,0.0929 -0.30349,-0.0316 -0.20321,-0.12247 -0.24912,-0.40138 -0.10883,-0.52496 -0.1948,-1.05306 -0.25292,-1.58596 -0.0542,-0.48312 -0.0673,-0.96758 0.0939,-1.43039 0.20446,-0.43694 0.62472,-0.65291 1.04439,-0.8418 0.42069,-0.18645 0.80688,-0.22607 1.21243,0.001 0.45449,0.38154 0.6718,0.95019 0.89602,1.48304 0.19522,0.46598 0.34724,0.94803 0.52331,1.42116 0.24658,0.36744 -0.12549,0.41222 -0.14899,0.13872 -0.068,-0.47113 -0.14581,-0.94069 -0.21167,-1.41222 -0.0817,-0.51875 -0.0895,-1.00016 0.23014,-1.43341 0.44722,-0.42689 1.05018,-0.47467 1.6369,-0.43292 0.83028,0.13631 1.25749,0.59776 1.60941,1.32491 0.24296,0.60301 0.29885,1.25058 0.33638,1.89262 0.0377,0.24516 -0.0391,0.49102 0.0308,0.72734 0.002,0.006 -0.006,0.009 -0.008,0.003 v 0 c -0.12295,-0.22927 -0.27008,-0.42859 -0.2778,-0.70386 -0.0912,-0.60177 -0.12005,-1.22024 -0.34758,-1.79222 -0.2831,-0.60136 -0.67588,-1.06209 -1.36527,-1.178 -0.49288,-0.0449 -1.0117,-0.0224 -1.40259,0.32072 -0.28839,0.36132 -0.234,0.797 -0.17303,1.2336 0.0676,0.47676 0.14827,0.95139 0.21533,1.42814 0.0517,0.67757 -0.39712,0.19986 -0.37566,-0.0238 -0.17228,-0.47039 -0.32581,-0.94776 -0.51844,-1.41055 -0.20129,-0.48152 -0.39453,-0.99677 -0.78119,-1.363 -0.32026,-0.20288 -0.6403,-0.13932 -0.97936,0.003 -0.35712,0.15562 -0.72782,0.33179 -0.91165,0.69588 -0.15196,0.4261 -0.12444,0.87638 -0.0783,1.3209 0.0575,0.5285 0.14391,1.05195 0.25111,1.57268 0.0171,0.10525 0.13259,1.13876 -0.28401,0.43764 -0.16989,-0.45335 -0.23526,-0.93623 -0.28118,-1.41606 -0.0546,-0.84551 -0.0382,-1.69138 0.007,-2.53724 0.007,-0.17652 0.25697,-0.16615 0.24964,0.0104 z"
         id="path4514"
         style="opacity:1;fill:none;fill-opacity:1;stroke:#000000;stroke-width:1;stroke-linecap:round;stroke-linejoin:miter;stroke-miterlimit:4;stroke-dasharray:none;stroke-dashoffset:0;stroke-opacity:1" />
      <path
         inkscape:connector-curvature="0"
         d="m 142.54149,231.03322 c -0.73433,-0.40274 -1.41827,-0.44731 -2.21781,-0.24264 -0.72587,0.27232 -1.21051,0.80157 -1.37851,1.55304 -0.0507,0.63041 0.29904,1.03333 0.81032,1.33644 0.47562,0.23038 0.98119,0.30809 1.4945,0.18617 0.46914,-0.1652 0.64625,-0.56223 0.74165,-1.01719 0.0458,-0.39544 -0.0193,-0.79329 -0.19942,-1.14834 -0.0103,-0.009 -0.0435,-0.034 -0.031,-0.0279 0.0275,0.0136 0.0471,0.0432 0.0768,0.0506 0.0252,0.006 0.0593,-0.0316 0.0769,-0.0125 0.0203,0.0221 -0.005,0.0598 -0.006,0.0898 -0.004,0.18126 2.6e-4,0.16293 0.0186,0.36136 0.0841,0.57344 0.33635,1.09623 0.62973,1.58907 0.18824,0.24844 0.35801,0.58286 0.65113,0.72711 0.007,-0.1313 0.0776,-0.39203 0.10417,-0.55768 0.0598,-0.57831 0.133,-1.14928 0.37064,-1.68362 0.34753,-0.57734 0.97113,-0.71152 1.59389,-0.78962 0.68006,-0.0401 1.2373,0.051 1.71069,0.56483 0.32763,0.53065 0.16781,1.08898 -0.0457,1.62654 -0.1255,0.29465 -0.2966,0.56624 -0.48844,0.82161 -0.0607,0.0918 -0.10596,0.17315 -0.18289,-0.22973 -0.009,-0.0481 0.0683,-0.0702 0.1025,-0.10532 0.19428,-0.19931 0.38826,-0.39884 0.58347,-0.59725 0.50568,-0.52224 1.02971,-1.02601 1.55975,-1.52332 0.24006,-0.23674 0.62318,-0.5745 0.67022,0.0389 -0.0605,0.47151 0.0275,0.87265 0.27821,1.27275 0.47187,0.58195 1.18834,0.82623 1.88345,1.03013 0.31107,0.0721 0.62292,0.13356 0.93104,0.21724 0.006,-2.7e-4 0.007,0.008 5.3e-4,0.009 v 0 c -0.33878,0.11931 -0.64731,0.15184 -1.0063,0.0706 -0.80898,-0.17403 -1.59765,-0.45841 -2.1171,-1.14103 -0.26779,-0.46032 -0.38419,-0.91994 -0.29867,-1.45307 0.0169,-0.13909 0.0621,-0.0132 0.16965,-0.0668 0.018,-0.009 -0.0382,0.014 -0.0546,0.0256 -0.0622,0.0438 -0.2062,0.17999 -0.24955,0.21967 -0.53195,0.48875 -1.05044,0.99183 -1.55358,1.51027 -0.19493,0.19787 -0.389,0.39653 -0.58287,0.59543 -0.0343,0.0352 -0.0538,0.10847 -0.10292,0.10575 -0.37918,-0.0209 -0.33919,-0.0553 -0.26594,-0.16046 0.18202,-0.22876 0.33469,-0.48056 0.45179,-0.74857 0.17257,-0.42859 0.3356,-0.88577 0.1001,-1.32456 -0.36655,-0.43661 -0.91077,-0.50594 -1.45763,-0.4737 -0.51758,0.0627 -1.06329,0.15083 -1.36703,0.62276 -0.2303,0.5097 -0.27898,1.0624 -0.3432,1.61308 -0.0496,0.30396 -0.0937,0.87477 -0.53576,0.76306 -0.32436,-0.19682 -0.53927,-0.53021 -0.74872,-0.83719 -0.31252,-0.52972 -0.58187,-1.09138 -0.66077,-1.70859 -0.0137,-0.18164 -0.0541,-1.06697 0.35884,-0.59533 0.2006,0.4086 0.27582,0.85843 0.21632,1.31139 -0.12113,0.55058 -0.35599,1.02077 -0.92253,1.21662 -0.58267,0.13757 -1.15318,0.0603 -1.69116,-0.20981 -0.60724,-0.37166 -1.00388,-0.87414 -0.92917,-1.62378 0.21426,-0.88418 0.71872,-1.41739 1.57269,-1.7429 0.8907,-0.2141 1.5912,-0.15913 2.40301,0.28825 0.14432,0.0872 0.021,0.29129 -0.12333,0.20409 z"
         id="path4516"
         style="opacity:1;fill:none;fill-opacity:1;stroke:#000000;stroke-width:1;stroke-linecap:round;stroke-linejoin:miter;stroke-miterlimit:4;stroke-dasharray:none;stroke-dashoffset:0;stroke-opacity:1" />
    </g>
    <path
       style="opacity:1;fill:none;fill-opacity:1;stroke:#000000;stroke-width:1;stroke-linecap:round;stroke-linejoin:miter;stroke-miterlimit:4;stroke-dasharray:none;stroke-dashoffset:0;stroke-opacity:1"
       id="path4518"
       d="m 25.721631,165.72501 c 1.046172,0.1335 2.098793,0.20262 3.149948,0.28267 0.497792,-0.0186 0.968446,0.14997 1.454438,0.20242 0.0061,5.3e-4 0.0055,0.009 -5.29e-4,0.009 v 0 c -0.488659,-0.0143 -0.974799,0.13522 -1.4693,0.0601 -1.060865,-0.0403 -2.11999,-0.12352 -3.173022,-0.26027 -0.207572,-0.0273 -0.169043,-0.3208 0.03853,-0.29355 z"
       inkscape:connector-curvature="0" />
    <path
       style="opacity:1;fill:none;fill-opacity:1;stroke:#000000;stroke-width:1;stroke-linecap:round;stroke-linejoin:miter;stroke-miterlimit:4;stroke-dasharray:none;stroke-dashoffset:0;stroke-opacity:1"
       id="path4520"
       d="m 34.042683,166.43542 c 0.948589,-0.10769 1.902566,-0.15657 2.855947,-0.19789 0.675947,8e-4 1.381104,-0.10368 2.042551,0.0772 0.04759,0.0126 0.09519,0.0251 0.142783,0.0377 0.0061,2.7e-4 0.0056,0.009 -5.29e-4,0.009 v 0 c -0.04756,0.007 -0.09512,0.014 -0.142682,0.021 -0.658318,0.17302 -1.356085,0.10666 -2.028913,0.15953 -0.945808,0.0414 -1.891715,0.0923 -2.834174,0.18383 -0.205028,0.0248 -0.240035,-0.26521 -0.03501,-0.28996 z"
       inkscape:connector-curvature="0" />
    <g
       id="g4549">
      <path
         inkscape:connector-curvature="0"
         d="m -19.580046,164.68825 c -0.02271,-0.4051 -0.06293,-0.8089 -0.10005,-1.21285 -0.0029,-0.0214 -0.0053,-0.0429 -0.0088,-0.0643 -0.014,-0.0853 0.182482,0.0489 0.228862,0.12183 0.01581,0.0248 -0.08506,0.83467 -0.08942,0.87611 -0.113475,0.96131 -0.21572,1.9237 -0.291142,2.88878 -0.05409,0.6212 -0.06738,1.2449 -0.109585,1.86677 -0.03651,0.16881 -0.03824,0.0914 -0.01232,0.232 0.0016,0.006 -0.0067,0.008 -0.0083,0.002 v 0 c -0.05218,-0.13849 -0.01882,-0.0639 -0.106518,-0.22073 -0.171433,-0.6182 -0.0881,-1.27186 -0.05969,-1.90354 0.07575,-0.96862 0.177107,-1.93468 0.305367,-2.89783 0.01023,-0.0831 0.06235,-0.81254 0.111235,-0.87722 0.06372,-0.0843 0.168434,-0.13136 0.265332,-0.17354 0.03964,-0.0172 -0.0079,0.1659 0.02682,0.12689 0.03511,0.40724 0.06051,0.81548 0.07354,1.22402 0.008,0.15932 -0.217349,0.17057 -0.225305,0.0113 z"
         id="path4522"
         style="opacity:1;fill:none;fill-opacity:1;stroke:#000000;stroke-width:1;stroke-linecap:round;stroke-linejoin:miter;stroke-miterlimit:4;stroke-dasharray:none;stroke-dashoffset:0;stroke-opacity:1" />
      <path
         inkscape:connector-curvature="0"
         d="m -24.155549,166.4838 c 1.249949,0.0262 2.499883,0.018 3.749575,-0.0142 1.240642,-0.0348 2.478281,-0.13471 3.718972,-0.16557 0.328102,-0.0184 0.645151,0.005 0.963121,0.0803 0.0061,-2.5e-4 0.0064,0.008 3.44e-4,0.009 v 0 c -0.308964,0.10053 -0.622613,0.15517 -0.948374,0.17384 -1.239379,0.11173 -2.482733,0.17179 -3.72621,0.21592 -1.255675,0.0306 -2.512207,0.0373 -3.767139,-0.0263 -0.19267,-0.007 -0.182958,-0.27934 0.0097,-0.27247 z"
         id="path4524"
         style="opacity:1;fill:none;fill-opacity:1;stroke:#000000;stroke-width:1;stroke-linecap:round;stroke-linejoin:miter;stroke-miterlimit:4;stroke-dasharray:none;stroke-dashoffset:0;stroke-opacity:1" />
      <path
         inkscape:connector-curvature="0"
         d="m -10.137031,164.33597 c 0.9718528,-0.009 1.9437089,-0.0228 2.9156185,-0.0203 0.5833507,-0.0342 1.1477913,0.0561 1.7156456,0.16524 0.00605,8e-4 0.00481,0.009 -0.00124,0.009 v 0 c -0.5661076,-0.0551 -1.1434345,0.092 -1.712862,0.0471 -0.9714439,0.0161 -1.9430476,0.0215 -2.9146041,0.027 -0.160995,0.002 -0.163556,-0.22587 -0.0026,-0.22768 z"
         id="path4526"
         style="opacity:1;fill:none;fill-opacity:1;stroke:#000000;stroke-width:1;stroke-linecap:round;stroke-linejoin:miter;stroke-miterlimit:4;stroke-dasharray:none;stroke-dashoffset:0;stroke-opacity:1" />
      <path
         inkscape:connector-curvature="0"
         d="m -11.455434,166.2594 c 1.208426,0.0319 2.4170717,0.0504 3.6258658,0.0596 0.8860605,0.0219 1.7740945,-0.0301 2.6591826,0.0263 0.1402189,-0.0311 0.1986791,0.058 0.3140546,0.0891 0.00609,-5.3e-4 0.00678,0.008 6.879e-4,0.009 v 0 c -0.1132329,0.0485 -0.1706118,0.11894 -0.3127099,0.10251 -0.8854432,0.0744 -1.7760834,0.0345 -2.6634474,0.0415 -1.211194,-0.011 -2.4225426,-0.0293 -3.6324466,-0.0901 -0.167904,-0.006 -0.159092,-0.24368 0.0088,-0.23745 z"
         id="path4528"
         style="opacity:1;fill:none;fill-opacity:1;stroke:#000000;stroke-width:1;stroke-linecap:round;stroke-linejoin:miter;stroke-miterlimit:4;stroke-dasharray:none;stroke-dashoffset:0;stroke-opacity:1" />
      <path
         inkscape:connector-curvature="0"
         d="m -5.4526981,161.74265 c 0.7720467,0.63273 1.7120798,1.00441 2.6311759,1.36693 0.8419234,0.31873 1.7030482,0.58308 2.53328906,0.93215 0.38567454,0.18302 0.8320221,0.36451 0.98118347,0.79388 -0.009783,0.0663 -0.004682,0.13662 -0.0293478,0.19895 -0.17620979,0.44529 -0.97704919,0.83635 -1.35983385,1.06982 -0.77876928,0.45294 -1.55118648,0.91575 -2.31316518,1.3964 -0.3889554,0.27409 -0.8038867,0.48792 -1.2463719,0.65828 -0.00526,0.003 -0.00966,-0.004 -0.0044,-0.007 v 0 c 0.3586218,-0.30396 0.7051596,-0.62283 1.1034035,-0.87672 0.7500846,-0.50577 1.5321818,-0.95967 2.31639451,-1.41012 0.4398165,-0.2609 1.00502605,-0.51121 1.28488901,-0.95847 -0.0517312,-0.34382 -0.58596638,-0.47578 -0.83324212,-0.6255 -0.8285708,-0.34812 -1.688481,-0.61039 -2.5282656,-0.92942 -0.9487654,-0.37487 -1.9189171,-0.76157 -2.7059438,-1.42875 -0.1272767,-0.12038 0.042957,-0.30038 0.170234,-0.18 z"
         id="path4530"
         style="opacity:1;fill:none;fill-opacity:1;stroke:#000000;stroke-width:1;stroke-linecap:round;stroke-linejoin:miter;stroke-miterlimit:4;stroke-dasharray:none;stroke-dashoffset:0;stroke-opacity:1" />
      <path
         inkscape:connector-curvature="0"
         d="m 4.9529531,163.81488 c -0.1295405,0.84942 -0.1993447,1.70323 -0.1506694,2.56151 0.049021,0.4647 0.1405912,0.93281 0.3678391,1.34546 0.1161222,0.0716 0.077465,0.22732 -0.1484627,0.0637 -0.036798,-0.0267 -0.00444,-0.0908 -0.00818,-0.13607 -0.00456,-0.0553 -0.011128,-0.11042 -0.016693,-0.16563 -0.065825,-0.54008 -0.099266,-1.0829 -0.1222499,-1.62623 -0.028354,-0.56444 0.00478,-1.12435 0.1812666,-1.66288 0.1503013,-0.38268 0.3952769,-0.58613 0.8094731,-0.54661 0.5790041,0.19975 0.9692917,0.70451 1.3359775,1.16876 0.3909335,0.51032 0.6842879,1.08181 0.9285703,1.67378 0.069705,0.22621 0.1956906,0.44378 0.2297501,0.68034 -0.099929,0.008 -0.2028272,0.0489 -0.2997869,0.0235 -0.1144143,-0.03 -0.3357491,-0.8015 -0.3652991,-0.9126 -0.1195837,-0.51516 -0.1128114,-1.03381 0.063586,-1.53217 0.2168011,-0.45461 0.6311339,-0.59719 1.1026372,-0.62975 0.6246847,0.0175 1.0961304,0.34494 1.462693,0.82644 0.291034,0.47182 0.38119,1.01701 0.431764,1.55951 0.01078,0.26607 0.04837,0.54963 -0.138099,0.76143 -0.0014,0.006 -0.0098,0.004 -0.0084,-0.002 v 0 c -0.0814,-0.23547 -0.1,-0.4844 -0.127608,-0.73072 -0.05727,-0.49074 -0.124966,-0.98876 -0.381172,-1.42196 -0.3015837,-0.41691 -0.6929276,-0.70621 -1.2241548,-0.73355 -0.3647676,0.0163 -0.6983428,0.10744 -0.8735055,0.4581 -0.1621724,0.44617 -0.1571082,0.9158 -0.05319,1.37715 0.05312,0.20072 0.1078497,0.3975 0.1909678,0.58834 0.018571,0.0426 0.038775,0.0846 0.060882,0.12554 0.016547,0.0306 0.067624,0.0564 0.054934,0.0888 -0.029079,0.0743 -0.1063582,0.11895 -0.1595374,0.17842 -0.052577,-0.2026 -0.1395174,-0.40479 -0.2121318,-0.60361 -0.2341565,-0.56983 -0.5153395,-1.12012 -0.8904448,-1.6118 -0.3231264,-0.41306 -0.6637346,-0.86414 -1.1609398,-1.07396 -0.2833759,-0.0504 -0.4226431,0.1165 -0.5267341,0.37076 -0.1668743,0.50787 -0.1899954,1.03771 -0.1639496,1.56947 0.022717,0.53822 0.056877,1.07582 0.122837,1.61071 9.16e-5,8e-4 0.034147,0.31731 0.026178,0.33257 -0.1915956,0.36683 -0.2341745,0.24903 -0.354135,0.0574 -0.2367229,-0.45072 -0.3457154,-0.95177 -0.3936492,-1.45633 -0.047136,-0.8758 0.02,-1.74831 0.173323,-2.61221 0.025736,-0.16709 0.2620407,-0.13069 0.2363057,0.0364 z"
         id="path4532"
         style="opacity:1;fill:none;fill-opacity:1;stroke:#000000;stroke-width:1;stroke-linecap:round;stroke-linejoin:miter;stroke-miterlimit:4;stroke-dasharray:none;stroke-dashoffset:0;stroke-opacity:1" />
      <path
         inkscape:connector-curvature="0"
         d="m 12.71294,164.29003 c 0.184337,0.70364 0.388782,1.40085 0.634396,2.08557 0.07169,0.29059 0.249816,0.55276 0.308296,0.8471 0.04533,0.22814 -0.03375,0.0654 0.06253,0.22887 0.0033,0.005 -0.0039,0.01 -0.0072,0.005 v 0 c -0.144555,-0.20309 0.0547,0.057 -0.181575,-0.16634 -0.226262,-0.21383 -0.317494,-0.54772 -0.451556,-0.81642 -0.254373,-0.69181 -0.461551,-1.39897 -0.634952,-2.11541 -0.04813,-0.191 0.221978,-0.25907 0.27011,-0.0681 z"
         id="path4534"
         style="opacity:1;fill:none;fill-opacity:1;stroke:#000000;stroke-width:1;stroke-linecap:round;stroke-linejoin:miter;stroke-miterlimit:4;stroke-dasharray:none;stroke-dashoffset:0;stroke-opacity:1" />
      <path
         inkscape:connector-curvature="0"
         d="m 11.997405,161.3541 c 0.596572,0.0823 1.183487,0.2068 1.769783,0.34157 0.0061,5.3e-4 0.0053,0.009 -8.2e-4,0.009 v 0 c -0.607292,0.0205 -1.212818,0.0192 -1.813218,-0.0933 -0.181609,-0.0313 -0.137346,-0.28813 0.04426,-0.25683 z"
         id="path4536"
         style="opacity:1;fill:none;fill-opacity:1;stroke:#000000;stroke-width:1;stroke-linecap:round;stroke-linejoin:miter;stroke-miterlimit:4;stroke-dasharray:none;stroke-dashoffset:0;stroke-opacity:1" />
      <path
         inkscape:connector-curvature="0"
         d="m 15.148278,166.13107 c 0.137346,0.58446 0.309004,1.16 0.473308,1.73724 0.01451,0.0505 0.02896,0.10107 0.04354,0.15157 0.01741,0.0603 0.03317,0.12116 0.05237,0.18094 0.0022,0.007 0.01567,0.0205 0.0087,0.0194 -0.299573,-0.0462 -0.244082,0.0177 -0.288161,-0.19062 -0.146363,-0.48305 -0.285571,-0.96555 -0.37921,-1.46201 -0.118079,-0.70269 -0.0049,-1.35853 0.370394,-1.96002 0.363481,-0.46103 0.834415,-0.6736 1.409334,-0.55962 0.633462,0.25546 1.003309,0.84589 1.34156,1.40697 0.312948,0.54711 0.561257,1.12853 0.683362,1.74783 0.04625,0.22323 0.02163,0.39303 -0.07327,0.59341 10e-6,0.006 -0.0086,0.006 -0.0086,1e-5 v 0 c -0.08925,-0.16882 -0.148048,-0.34051 -0.186026,-0.52887 -0.166284,-0.57607 -0.362455,-1.14179 -0.670686,-1.6603 -0.293894,-0.49949 -0.603691,-1.04294 -1.141631,-1.31064 -0.46315,-0.11857 -0.845113,0.0813 -1.14174,0.445 -0.346321,0.54297 -0.437199,1.14271 -0.333,1.77906 0.09372,0.49498 0.237218,0.97469 0.379779,1.45728 0.04454,0.21847 0.08392,0.17934 -0.199128,0.33738 -9.79e-4,5.3e-4 -0.0449,-0.14897 -0.06616,-0.22717 -0.01377,-0.0506 -0.02776,-0.10122 -0.04164,-0.15183 -0.162534,-0.58206 -0.338835,-1.16097 -0.468055,-1.75168 -0.03768,-0.16619 0.19734,-0.21948 0.235024,-0.0533 z"
         id="path4538"
         style="opacity:1;fill:none;fill-opacity:1;stroke:#000000;stroke-width:1;stroke-linecap:round;stroke-linejoin:miter;stroke-miterlimit:4;stroke-dasharray:none;stroke-dashoffset:0;stroke-opacity:1" />
    </g>
    <path
       style="opacity:1;fill:none;fill-opacity:1;stroke:#000000;stroke-width:1;stroke-linecap:round;stroke-linejoin:miter;stroke-miterlimit:4;stroke-dasharray:none;stroke-dashoffset:0;stroke-opacity:1"
       id="path4559"
       d="m 178.13075,185.90054 c -0.24346,0.67052 -0.36225,1.36544 -0.21748,2.06813 0.1301,0.4213 0.39913,0.65366 0.83939,0.5804 0.53689,-0.19077 0.83719,-0.68616 1.11749,-1.14993 0.34418,-0.6052 0.60321,-1.25391 0.80979,-1.91748 0.0462,-0.16459 0.0857,-0.3309 0.11877,-0.49859 0.008,-0.0422 -0.0178,-0.13626 0.0241,-0.12672 0.0962,0.0219 0.1838,0.072 0.27571,0.10801 0.0941,0.74514 0.36904,1.45317 0.62243,2.15531 0.43303,1.13348 0.85536,2.27198 1.0492,3.47322 0.0788,0.75201 -0.0913,1.46663 -0.78912,1.86442 -0.14217,0.0811 -0.30005,0.13077 -0.45007,0.19615 -1.02583,0.33998 -2.09787,0.28946 -3.15925,0.26578 -0.006,2.7e-4 -0.007,-0.008 -5.3e-4,-0.009 v 0 c 1.02154,-0.12333 2.05655,-0.24147 3.04981,-0.51336 0.91757,-0.38612 1.14566,-0.75138 1.07792,-1.7612 -0.18601,-1.18524 -0.60786,-2.30655 -1.03255,-3.42457 -0.26079,-0.72296 -0.54224,-1.4525 -0.63566,-2.22025 0.0855,-0.0283 0.16797,-0.0678 0.25636,-0.0849 0.0428,-0.008 -0.0126,0.0863 -0.0198,0.12925 -0.0302,0.17877 -0.0736,0.35514 -0.12478,0.52899 -0.21858,0.68204 -0.494,1.34707 -0.84797,1.97072 -0.32428,0.53208 -0.67781,1.07979 -1.30824,1.26726 -0.61658,0.0672 -0.92254,-0.20726 -1.10914,-0.78771 -0.13962,-0.74754 -0.0328,-1.48207 0.22991,-2.1946 0.0567,-0.15815 0.2804,-0.0779 0.22365,0.0802 z"
       inkscape:connector-curvature="0" />
    <path
       style="opacity:1;fill:none;fill-opacity:1;stroke:#000000;stroke-width:1;stroke-linecap:round;stroke-linejoin:miter;stroke-miterlimit:4;stroke-dasharray:none;stroke-dashoffset:0;stroke-opacity:1"
       id="path4561"
       d="m 158.59332,206.08089 c 0.77919,-0.44851 1.62677,-0.76011 2.49352,-0.9894 0.72187,-0.12894 1.09437,-0.0944 1.00952,0.74729 -0.20933,0.75218 -0.67518,1.39176 -1.12918,2.0141 -0.14715,0.2037 -0.30599,0.39885 -0.45345,0.6023 -0.0261,0.0361 -0.0523,0.0722 -0.0755,0.11018 -0.0102,0.0166 -0.0156,0.0702 -0.0245,0.0529 -0.0337,-0.0653 -0.0386,-0.14188 -0.0579,-0.21282 0.62091,-0.39871 1.18914,-0.87404 1.76627,-1.33235 0.62419,-0.49662 1.26498,-0.97204 1.9205,-1.42642 0.57887,-0.36684 0.43702,0.21385 0.33341,0.54799 -0.14208,0.41616 -0.27755,0.83938 -0.1243,1.26787 0.29241,0.43705 0.86964,0.47699 1.34629,0.54712 0.45174,0.0958 0.22973,0.0856 0.66541,0.0417 0.006,-7.9e-4 0.007,0.008 0.001,0.009 v 0 c -0.44112,0.0534 -0.21475,0.0125 -0.67797,0.1291 -0.61175,0.007 -1.28238,-0.0414 -1.61116,-0.63572 -0.15223,-0.49479 -0.0463,-0.96544 0.12911,-1.44378 0.0344,-0.10874 0.0399,-0.23054 0.10079,-0.327 0.006,-0.009 0.32292,0.0103 -0.007,0.0865 -0.6484,0.45478 -1.29019,0.91912 -1.90766,1.41555 -0.60655,0.48126 -1.19954,0.99831 -1.87335,1.38309 -0.0811,-0.0566 -0.18263,-0.0917 -0.24334,-0.16981 -0.0105,-0.0135 0.52003,-0.73727 0.57695,-0.80316 0.42689,-0.5864 0.86673,-1.18675 1.08035,-1.8889 0.0921,-0.59254 -0.13891,-0.55347 -0.67546,-0.45743 -0.84136,0.22469 -1.66526,0.52639 -2.42521,0.95611 -0.15817,0.0966 -0.29478,-0.12709 -0.13661,-0.22368 z"
       inkscape:connector-curvature="0" />
  </g>
</svg>
