<?xml version="1.0" encoding="UTF-8" standalone="no"?>
<!-- Created with Inkscape (http://www.inkscape.org/) -->

<svg
   xmlns:dc="http://purl.org/dc/elements/1.1/"
   xmlns:cc="http://creativecommons.org/ns#"
   xmlns:rdf="http://www.w3.org/1999/02/22-rdf-syntax-ns#"
   xmlns:svg="http://www.w3.org/2000/svg"
   xmlns="http://www.w3.org/2000/svg"
   xmlns:sodipodi="http://sodipodi.sourceforge.net/DTD/sodipodi-0.dtd"
   xmlns:inkscape="http://www.inkscape.org/namespaces/inkscape"
   width="332.46811mm"
   height="213.02478mm"
   viewBox="0 0 332.46811 213.02478"
   version="1.1"
   id="svg2933"
   inkscape:version="0.92.2 5c3e80d, 2017-08-06"
   sodipodi:docname="frame.svg">
  <defs
     id="defs2927" />
  <sodipodi:namedview
     id="base"
     pagecolor="#ffffff"
     bordercolor="#666666"
     borderopacity="1.0"
     inkscape:pageopacity="0.0"
     inkscape:pageshadow="2"
     inkscape:zoom="0.43309772"
     inkscape:cx="677.00849"
     inkscape:cy="455.54137"
     inkscape:document-units="mm"
     inkscape:current-layer="g3609"
     showgrid="false"
     fit-margin-top="0"
     fit-margin-left="0"
     fit-margin-right="0"
     fit-margin-bottom="0"
     inkscape:snap-global="false" />
  <metadata
     id="metadata2930">
    <rdf:RDF>
      <cc:Work
         rdf:about="">
        <dc:format>image/svg+xml</dc:format>
        <dc:type
           rdf:resource="http://purl.org/dc/dcmitype/StillImage" />
        <dc:title></dc:title>
      </cc:Work>
    </rdf:RDF>
  </metadata>
  <g
     inkscape:label="Layer 1"
     inkscape:groupmode="layer"
     id="layer1"
     transform="translate(151.12896,-29.44613)">
    <path
       style="opacity:1;fill:none;fill-opacity:1;stroke:#000000;stroke-width:1;stroke-linecap:round;stroke-linejoin:miter;stroke-miterlimit:4;stroke-dasharray:none;stroke-dashoffset:0;stroke-opacity:1"
       id="path3496"
       d="m 77.00147,201.79984 c 0.218942,1.80589 0.508402,3.59958 0.87825,5.3805 0.307138,1.39182 0.666382,2.77127 1.069758,4.13811 0.297063,0.46777 0.266361,1.70168 -0.535858,0.49713 -0.735486,-1.42899 -1.005063,-3.05102 -1.356937,-4.6058 -0.363027,-1.62676 -0.749872,-3.25073 -1.287352,-4.82983 -0.01839,-0.19151 -0.571198,-0.90427 0.03513,-0.52725 0.03672,0.0228 0.01778,0.0847 0.02961,0.12627 0.02437,0.0856 0.05263,0.17008 0.07894,0.25512 0.44345,1.0387 1.402855,1.51644 2.425309,1.83373 1.596167,0.33066 3.150936,-0.0949 4.621379,-0.70158 1.125619,-0.50076 1.847432,-1.34538 2.286912,-2.47134 0.143354,-0.49505 0.249743,-1.03697 0.109194,-1.5451 -0.07151,0.0776 0.199062,0.0312 0.225105,0.0465 0.03846,0.0226 -0.03066,0.61238 -0.03854,0.83989 -0.0074,1.72013 7.93e-4,3.44035 0.02286,5.16034 0.01672,1.71037 0.16452,3.4148 0.265371,5.12115 0.153805,0.79196 -0.057,1.63899 -0.01836,2.41239 0.0013,0.0106 -0.01368,0.0125 -0.015,0.002 v 0 c -0.184136,-0.90849 0.102722,0.41148 -0.218873,-0.69679 -0.157996,-0.54447 -0.154848,-1.12561 -0.236162,-1.68197 -0.147926,-1.71335 -0.257353,-3.43083 -0.286203,-5.15068 -0.01839,-1.72975 -0.03577,-3.46079 0.02461,-5.18989 0.01577,-0.23647 0.0829,-1.86353 0.675494,-0.97539 0.170344,0.59922 0.06772,1.22783 -0.112956,1.81374 -0.488863,1.23212 -1.277413,2.17912 -2.511234,2.73395 -1.570959,0.64419 -3.22952,1.08021 -4.929704,0.71001 -1.157642,-0.37757 -2.224918,-0.95196 -2.700038,-2.14348 -0.336664,-1.25339 0.541313,-1.02034 0.677389,-0.11296 0.554759,1.59003 0.911762,3.23925 1.289883,4.87784 0.340503,1.50463 0.60829,3.07121 1.310267,4.45811 0.04981,0.0768 0.165328,0.14017 0.149442,0.23029 -0.163507,0.92762 -0.402836,-0.32435 -0.417303,-0.3553 -0.417899,-1.37632 -0.768356,-2.77218 -1.081945,-4.17576 -0.37166,-1.79099 -0.668825,-3.59464 -0.867834,-5.41354 -0.04267,-0.3107 0.396727,-0.37104 0.439394,-0.0603 z"
       inkscape:connector-curvature="0" />
    <path
       style="opacity:1;fill:none;fill-opacity:1;stroke:#000000;stroke-width:1;stroke-linecap:round;stroke-linejoin:miter;stroke-miterlimit:4;stroke-dasharray:none;stroke-dashoffset:0;stroke-opacity:1"
       id="path3498"
       d="m 95.342976,207.05095 c -1.525942,0.42107 -2.87065,1.20057 -3.952116,2.3505 -0.621855,0.87481 -0.893894,1.69217 0.03321,2.42493 1.045499,0.5143 2.167036,0.23938 3.191071,-0.17841 0.698021,-0.38058 1.574276,-0.92142 1.625261,-1.80217 -0.2487,-0.57858 -0.995148,-0.83769 -1.557821,-1.0111 -0.01042,-0.002 -0.0071,-0.0171 0.0033,-0.0147 v 0 c 0.780566,0.11602 1.726211,0.13995 1.958536,1.05991 -0.107328,1.05767 -0.97531,1.70761 -1.870665,2.16124 -1.177324,0.47031 -2.445901,0.74902 -3.621056,0.10813 -0.130847,-0.11506 -0.281889,-0.21058 -0.392538,-0.34518 -0.695111,-0.84554 -0.239821,-1.92768 0.333399,-2.68431 1.142661,-1.19728 2.545127,-2.02496 4.157308,-2.43633 0.259892,-0.0651 0.351967,0.30243 0.09208,0.36754 z"
       inkscape:connector-curvature="0" />
    <path
       style="opacity:1;fill:none;fill-opacity:1;stroke:#000000;stroke-width:1;stroke-linecap:round;stroke-linejoin:miter;stroke-miterlimit:4;stroke-dasharray:none;stroke-dashoffset:0;stroke-opacity:1"
       id="path3500"
       d="m 98.867723,208.85609 c 0.0034,1.01298 0.141156,2.01379 0.426588,2.98469 0.06911,0.22504 0.156303,0.44381 0.260207,0.65492 0.02072,0.0421 0.121322,0.13563 0.07839,0.11679 -0.08906,-0.0391 -0.178054,-0.0783 -0.267084,-0.11739 0.03278,-0.8129 -0.03287,-1.62506 -0.01791,-2.43914 0.01508,-0.87822 0.184954,-1.6542 0.880726,-2.2229 0.92751,-0.51961 1.97068,-0.45164 2.97267,-0.23304 1.08088,0.30165 1.90587,1.01261 2.62187,1.8444 0.49511,0.49086 0.56358,1.13438 0.77948,1.74683 0.004,0.01 -0.01,0.0158 -0.0139,0.006 v 0 c -0.28108,-0.53679 -0.77371,-0.95178 -1.0957,-1.46952 -0.65227,-0.76213 -1.40237,-1.4202 -2.38486,-1.71187 -0.87746,-0.2018 -1.80267,-0.28192 -2.6377,0.12727 -0.625745,0.45804 -0.707519,1.18211 -0.733076,1.91978 -0.01495,0.85535 0.07564,1.71146 0.0069,2.56339 -0.132816,0.0872 -0.247209,0.21289 -0.39845,0.26154 -0.08168,0.0263 -0.408934,-0.86867 -0.4241,-0.93797 -0.29404,-1.00663 -0.441061,-2.0435 -0.435602,-3.09382 0,-0.26974 0.381481,-0.26974 0.381481,0 z"
       inkscape:connector-curvature="0" />
    <path
       style="opacity:1;fill:none;fill-opacity:1;stroke:#000000;stroke-width:1;stroke-linecap:round;stroke-linejoin:miter;stroke-miterlimit:4;stroke-dasharray:none;stroke-dashoffset:0;stroke-opacity:1"
       id="path3502"
       d="m 112.61384,207.13157 c -1.40405,0.27288 -2.55599,1.02831 -3.49683,2.0783 -0.55868,0.77127 -0.95615,1.72201 -0.25603,2.51065 1.05075,0.69495 2.35188,0.42393 3.50148,0.16861 0.24238,-0.0632 0.48476,-0.12633 0.72714,-0.1895 0.01,-0.004 0.0155,0.0102 0.005,0.0141 v 0 c -0.2266,0.11924 -0.45319,0.23848 -0.67979,0.35772 -1.28073,0.45742 -2.69825,0.78301 -3.8997,-0.0559 -0.1097,-0.13188 -0.24399,-0.2467 -0.32909,-0.39564 -0.52113,-0.91213 0.0415,-1.98407 0.57044,-2.73478 1.02348,-1.12803 2.26188,-1.94478 3.79387,-2.18771 0.30701,-0.0446 0.37003,0.3896 0.063,0.43416 z"
       inkscape:connector-curvature="0" />
    <path
       style="opacity:1;fill:none;fill-opacity:1;stroke:#000000;stroke-width:1;stroke-linecap:round;stroke-linejoin:miter;stroke-miterlimit:4;stroke-dasharray:none;stroke-dashoffset:0;stroke-opacity:1"
       id="path3504"
       d="m 115.12852,195.8897 c -0.27985,1.93649 -0.32964,3.89511 -0.36596,5.84821 -0.0218,2.36427 0.023,4.72875 0.20902,7.08609 0.15151,1.45116 0.43912,2.90046 1.38929,4.04412 0.67005,0.65324 1.4342,0.63449 2.24762,0.29351 1.21962,-0.72112 2.07579,-1.88757 2.86178,-3.03711 0.65988,-1.03817 1.21,-2.15838 1.39959,-3.38217 -0.041,-0.23389 0.0677,-0.42695 -0.14159,-0.24309 -0.0506,0.0445 -0.11081,0.0767 -0.16621,0.11512 -0.0799,0.0719 -0.15973,0.14387 -0.2396,0.21581 -0.60653,0.66803 -1.02238,1.35996 -0.66014,2.2515 0.8705,1.06968 2.38729,1.19256 3.6673,1.32328 1.38296,0.2128 2.79181,-0.20866 4.1646,-0.0294 0.0104,-0.002 0.0136,0.0125 0.003,0.0148 v 0 c -1.23127,0.74748 -2.84311,0.59644 -4.22712,0.5888 -1.50417,-0.15702 -3.23311,-0.3449 -4.12896,-1.72259 -0.0508,-0.17576 -0.12969,-0.34573 -0.15234,-0.52727 -0.10878,-0.87198 0.46389,-1.6681 1.02338,-2.26367 0.603,-0.49053 1.31871,-0.73205 1.27755,0.34397 -0.21076,1.28056 -0.79839,2.45279 -1.48573,3.54298 -0.83116,1.21879 -1.72796,2.46102 -3.02798,3.21526 -1.0029,0.40898 -1.95543,0.39454 -2.76485,-0.41185 -1.00394,-1.2283 -1.3609,-2.73489 -1.50698,-4.29514 -0.18678,-2.37251 -0.23243,-4.75225 -0.21039,-7.13171 0.0374,-1.97453 0.0794,-3.95945 0.40884,-5.91138 0.0509,-0.30099 0.47656,-0.22902 0.42567,0.072 z"
       inkscape:connector-curvature="0" />
    <g
       id="g3609">
      <g
         id="g3572">
        <path
           style="opacity:1;fill:none;fill-opacity:1;stroke:#000000;stroke-width:1;stroke-linecap:round;stroke-linejoin:miter;stroke-miterlimit:4;stroke-dasharray:none;stroke-dashoffset:0;stroke-opacity:1"
           id="path3482"
           d="m 42.235588,75.068837 c -0.07148,3.075442 -0.24125,6.148072 -0.382199,9.220953 -0.313327,7.223718 -0.503576,14.451936 -0.716232,21.67909 -0.271703,9.6933 -0.581202,19.38549 -0.975839,29.07459 -0.412565,9.3739 -1.080598,18.73361 -1.556901,28.10412 -0.27491,5.56894 -0.423286,11.15643 0.16524,16.70873 0.05256,0.72964 0.238729,1.43842 0.340318,2.16027 0.112924,0.80239 -0.04598,0.34022 0.162372,0.84869 0.0043,0.01 -0.0096,0.0159 -0.01384,0.006 v 0 c -0.125714,-0.26949 -0.294081,-0.52022 -0.394739,-0.80004 -0.219007,-0.60882 -0.3755,-1.57263 -0.491353,-2.16561 -0.79275,-5.5636 -0.636378,-11.18826 -0.359577,-16.78818 0.476248,-9.36874 1.144479,-18.72651 1.572144,-28.09789 0.406688,-9.68664 0.728824,-19.3764 1.030245,-29.06685 0.233516,-7.229118 0.445365,-14.459638 0.796639,-21.684241 0.154776,-3.070741 0.33423,-6.139882 0.524738,-9.208598 0.0063,-0.211418 0.305284,-0.20252 0.298992,0.0089 z"
           inkscape:connector-curvature="0" />
        <path
           style="opacity:1;fill:none;fill-opacity:1;stroke:#000000;stroke-width:1;stroke-linecap:round;stroke-linejoin:miter;stroke-miterlimit:4;stroke-dasharray:none;stroke-dashoffset:0;stroke-opacity:1"
           id="path3484"
           d="m 41.467394,73.221114 c 2.356011,-0.02516 4.709525,0.124422 7.061152,0.247549 5.87166,0.315198 11.752024,0.396383 17.630611,0.466767 9.453382,0.05087 18.906093,0.14088 28.358144,0.307965 10.753459,0.214529 21.504959,0.51462 32.257059,0.786849 9.41188,0.23589 18.82457,0.437044 28.23736,0.632516 5.30506,0.107844 10.61115,0.223832 15.91745,0.15748 1.13624,-0.185605 2.54099,0.162552 3.6488,-0.244083 0.10035,-0.06761 0.0579,-0.02476 0.12545,-0.130429 0.001,-0.01064 0.0161,-0.0091 0.0151,0.0016 v 0 c 0.0437,0.18914 0.0411,0.08698 -0.0151,0.306197 -0.7486,0.725601 -2.84358,0.35954 -3.76858,0.506206 -5.31117,0.06869 -10.62221,-0.05052 -15.93219,-0.156062 C 145.5892,75.908182 136.17589,75.704561 126.76331,75.47 116.01231,75.197794 105.26202,74.893261 94.509624,74.679899 85.058398,74.510801 75.606555,74.418398 66.154017,74.360147 c -5.88418,-0.07441 -11.770204,-0.160041 -17.647158,-0.482076 -2.343073,-0.126595 -4.687708,-0.279178 -7.035303,-0.267306 -0.275476,0.0029 -0.279553,-0.386699 -0.0041,-0.389583 z"
           inkscape:connector-curvature="0" />
        <path
           style="opacity:1;fill:none;fill-opacity:1;stroke:#000000;stroke-width:0.9612928;stroke-linecap:round;stroke-linejoin:miter;stroke-miterlimit:4;stroke-dasharray:none;stroke-dashoffset:0;stroke-opacity:1"
           id="path3492"
           d="m 175.37508,74.648693 c 0.0119,2.389144 -0.24512,4.770603 -0.45262,7.149522 -0.47457,5.314755 -0.67724,10.645148 -0.85743,15.973928 -0.19627,7.659247 -0.39723,15.318207 -0.65241,22.975997 -0.32668,8.69122 -0.62281,17.3827 -0.65002,26.07957 -0.0378,7.353 0.61089,14.6797 1.70322,21.95678 0.70002,4.29212 1.66282,8.54159 2.48718,12.81372 0.056,0.32098 0.31156,1.69406 0.32912,2.10423 0.0163,0.38077 -0.0575,0.76034 -0.0769,1.14099 -5.3e-4,0.01 -0.0155,0.009 -0.0151,-4.9e-4 v 0 c 0.033,-1.02206 -0.56032,-2.14281 -0.66197,-3.16829 -0.97136,-4.25524 -1.95641,-8.51084 -2.63333,-12.81696 -1.09478,-7.30208 -1.74466,-14.65346 -1.70094,-22.03167 0.0349,-8.70179 0.33767,-17.39786 0.68316,-26.09343 0.26736,-7.65743 0.4864,-15.31596 0.69893,-22.974834 0.18841,-5.335857 0.40703,-10.673527 0.91852,-15.99292 0.22674,-2.368669 0.48661,-4.737776 0.55635,-7.116094 0,-0.211862 0.32424,-0.211862 0.32424,0 z"
           inkscape:connector-curvature="0" />
        <path
           style="opacity:1;fill:none;fill-opacity:1;stroke:#000000;stroke-width:0.97473335;stroke-linecap:round;stroke-linejoin:miter;stroke-miterlimit:4;stroke-dasharray:none;stroke-dashoffset:0;stroke-opacity:1"
           id="path3494"
           d="m 38.666471,184.95155 c 2.10518,-0.23434 4.19872,-0.57106 6.295847,-0.87333 5.088243,-0.73254 10.211216,-1.11603 15.332961,-1.45799 9.266533,-0.57599 18.548494,-0.71994 27.827486,-0.79611 11.809365,-0.0549 23.617825,0.10785 35.424955,0.29731 10.24239,0.12927 20.47854,0.48944 30.7063,1.04929 6.21491,0.36587 12.42643,0.79115 18.64579,1.07126 2.43903,0.0679 4.89255,0.19745 7.32786,-0.0433 0.17967,0.0821 0.30433,-0.0883 0.46027,-0.10988 0.0138,-0.002 -0.0164,0.0403 -0.0282,0.0325 -0.0328,-0.022 -0.0465,-0.0655 -0.0697,-0.0982 -0.009,-0.005 -0.002,-0.0184 0.008,-0.0128 v 0 c 0.62301,0.25363 -0.0459,0.51182 -0.33441,0.54391 -2.44539,0.31295 -4.92717,0.0961 -7.37974,0.0676 -6.22059,-0.27715 -12.43342,-0.69955 -18.64957,-1.06295 -10.2234,-0.55614 -20.45497,-0.91831 -30.69289,-1.04586 -11.80428,-0.18941 -23.609884,-0.35384 -35.416437,-0.29875 -9.272329,0.0729 -18.547503,0.21741 -27.807798,0.78282 -5.11424,0.33475 -10.228712,0.7172 -15.311868,1.42394 -2.10256,0.28813 -4.20232,0.61441 -6.315811,0.79992 -0.180903,0.0174 -0.203616,-0.25181 -0.02271,-0.2692 z"
           inkscape:connector-curvature="0" />
      </g>
      <path
         inkscape:connector-curvature="0"
         d="m 58.21939,116.09724 c 1.837195,1.35545 3.588506,2.82212 5.366803,4.25279 1.890418,1.50195 3.846012,2.91995 5.858123,4.25392 0.733796,0.45701 1.452084,0.9097 2.049534,1.5366 0.009,0.006 7.94e-4,0.0185 -0.0082,0.0127 v 0 c -0.822626,-0.28059 -1.591251,-0.63711 -2.303242,-1.15314 -2.028108,-1.33672 -3.993968,-2.76716 -5.891308,-4.28413 -1.771946,-1.4318 -3.513336,-2.9015 -5.30974,-4.30288 -0.223362,-0.1683 0.01466,-0.48417 0.238008,-0.31588 z"
         id="path3506"
         style="opacity:1;fill:none;fill-opacity:1;stroke:#000000;stroke-width:1;stroke-linecap:round;stroke-linejoin:miter;stroke-miterlimit:4;stroke-dasharray:none;stroke-dashoffset:0;stroke-opacity:1" />
      <path
         inkscape:connector-curvature="0"
         d="m 57.518307,114.94027 c 1.495595,-1.03293 2.986754,-2.07193 4.464794,-3.12986 1.966812,-1.41905 3.923167,-2.85286 5.841743,-4.33663 0.974487,-0.72278 1.844855,-1.56844 2.757561,-2.36369 0.112028,-0.10849 0.227913,-0.14895 0.375563,-0.17013 0.0061,-0.009 0.01852,-2.3e-4 0.01246,0.009 v 0 c 0.01379,0.1647 -0.02595,0.27894 -0.137038,0.40985 -0.80028,0.93462 -1.794727,1.68448 -2.741504,2.46069 -1.922939,1.48705 -3.884356,2.92321 -5.855539,4.34551 -1.48069,1.05759 -2.971323,2.10093 -4.483684,3.11291 -0.238451,0.16571 -0.4728,-0.17151 -0.234347,-0.33722 z"
         id="path3508"
         style="opacity:1;fill:none;fill-opacity:1;stroke:#000000;stroke-width:1;stroke-linecap:round;stroke-linejoin:miter;stroke-miterlimit:4;stroke-dasharray:none;stroke-dashoffset:0;stroke-opacity:1" />
      <path
         inkscape:connector-curvature="0"
         d="m 72.870773,105.02637 c 1.290768,1.60124 2.700386,3.09884 4.129625,4.57569 1.531297,1.56125 3.103102,3.08159 4.694333,4.58139 0.549891,0.63477 1.45365,1.12225 1.742979,1.95021 -6e-5,0.0624 -1.21e-4,0.12482 -1.85e-4,0.18723 0.0054,0.009 -0.0077,0.0168 -0.01307,0.008 v 0 c -0.05073,-0.025 -0.101455,-0.0501 -0.152181,-0.0751 -0.708477,-0.48092 -1.287076,-1.1366 -1.942531,-1.68217 -1.599493,-1.50368 -3.17745,-3.03052 -4.705863,-4.6068 -1.431864,-1.49628 -2.851409,-3.01091 -4.095221,-4.67054 -0.189153,-0.24192 0.152969,-0.50942 0.342125,-0.2675 z"
         id="path3510"
         style="opacity:1;fill:none;fill-opacity:1;stroke:#000000;stroke-width:1;stroke-linecap:round;stroke-linejoin:miter;stroke-miterlimit:4;stroke-dasharray:none;stroke-dashoffset:0;stroke-opacity:1" />
      <path
         inkscape:connector-curvature="0"
         d="m 74.368503,125.01277 c 1.636347,-1.15876 3.244178,-2.35754 4.844574,-3.56529 1.56523,-1.16463 3.090137,-2.38203 4.645276,-3.55981 0.534982,-0.35964 0.269687,-0.22161 0.783743,-0.43666 0.0081,-0.007 0.01799,0.004 0.0099,0.0114 v 0 c -0.289221,0.48409 -0.109217,0.24239 -0.564152,0.70651 -1.47074,1.29122 -3.052787,2.44682 -4.608854,3.63165 -1.607712,1.20854 -3.225207,2.40472 -4.868399,3.56471 -0.249262,0.1712 -0.491377,-0.18131 -0.242118,-0.35251 z"
         id="path3512"
         style="opacity:1;fill:none;fill-opacity:1;stroke:#000000;stroke-width:1;stroke-linecap:round;stroke-linejoin:miter;stroke-miterlimit:4;stroke-dasharray:none;stroke-dashoffset:0;stroke-opacity:1" />
      <path
         inkscape:connector-curvature="0"
         d="m 61.641598,130.37555 c 1.269846,1.06201 2.395767,2.28039 3.528033,3.48402 1.218883,1.31661 2.409457,2.66196 3.502848,4.08522 0.602062,0.69356 0.97691,1.48786 1.294114,2.33334 0.0052,0.009 -0.008,0.0167 -0.01323,0.007 v 0 c -0.532998,-0.69418 -1.145278,-1.33113 -1.646457,-2.05279 -1.118595,-1.38545 -2.272543,-2.74209 -3.488738,-4.04336 -1.117258,-1.19397 -2.223889,-2.40394 -3.455511,-3.48282 -0.234011,-0.19724 0.04492,-0.52818 0.278934,-0.33094 z"
         id="path3524"
         style="opacity:1;fill:none;fill-opacity:1;stroke:#000000;stroke-width:1;stroke-linecap:round;stroke-linejoin:miter;stroke-miterlimit:4;stroke-dasharray:none;stroke-dashoffset:0;stroke-opacity:1" />
      <path
         inkscape:connector-curvature="0"
         d="m 70.963652,139.06792 c 1.551953,-1.16589 3.20096,-2.19294 4.857972,-3.20068 1.114036,-0.62484 2.18264,-1.34643 3.341147,-1.88951 0.154948,-0.0953 0.310674,-0.0709 0.478727,-0.0892 0.0092,-0.005 0.01685,0.008 0.0076,0.0131 v 0 c -0.09904,0.13751 -0.155228,0.28462 -0.315428,0.37192 -1.046938,0.73095 -2.216039,1.27023 -3.288962,1.96074 -1.644187,0.99906 -3.281825,2.01482 -4.826955,3.16375 -0.233397,0.17969 -0.487513,-0.15039 -0.254116,-0.33007 z"
         id="path3526"
         style="opacity:1;fill:none;fill-opacity:1;stroke:#000000;stroke-width:1;stroke-linecap:round;stroke-linejoin:miter;stroke-miterlimit:4;stroke-dasharray:none;stroke-dashoffset:0;stroke-opacity:1" />
      <path
         inkscape:connector-curvature="0"
         d="m 77.864895,130.92887 c 1.000178,-0.0464 2.036993,-0.2526 2.98894,0.13445 0.855599,0.72739 0.348511,1.8817 0.03736,2.76756 -0.299924,0.7626 -0.572653,1.54572 -1.017728,2.23852 -0.003,0.0102 -0.01754,0.006 -0.0145,-0.004 v 0 c 0.0083,-0.83469 0.356039,-1.60061 0.647285,-2.36967 0.235363,-0.66768 0.71837,-1.63951 0.1925,-2.27068 -0.871688,-0.40045 -1.885839,-0.11648 -2.808684,-0.10894 -0.273609,0.0178 -0.298784,-0.36914 -0.02516,-0.38694 z"
         id="path3528"
         style="opacity:1;fill:none;fill-opacity:1;stroke:#000000;stroke-width:1;stroke-linecap:round;stroke-linejoin:miter;stroke-miterlimit:4;stroke-dasharray:none;stroke-dashoffset:0;stroke-opacity:1" />
      <path
         inkscape:connector-curvature="0"
         d="m 59.950288,133.24824 c -0.259762,-1.09135 -0.468836,-2.19406 -0.652922,-3.30046 -0.04132,-0.47722 -0.27803,-0.90299 0.03447,-1.30194 0.784648,-0.10867 1.618237,0.20986 2.382718,0.38778 1.236885,0.30905 2.517889,0.46475 3.699987,0.95639 0.01053,0.002 0.008,0.0167 -0.0026,0.0149 v 0 c -1.290228,0.0735 -2.549549,-0.24401 -3.800303,-0.52999 -0.657754,-0.15352 -1.39958,-0.27723 -2.01685,-0.48676 0.0432,-0.29259 0.05934,0.85146 0.133636,0.889 0.176583,1.0956 0.376055,2.18791 0.634436,3.26754 0.0732,0.29178 -0.339436,0.39531 -0.412641,0.10353 z"
         id="path3530"
         style="opacity:1;fill:none;fill-opacity:1;stroke:#000000;stroke-width:1;stroke-linecap:round;stroke-linejoin:miter;stroke-miterlimit:4;stroke-dasharray:none;stroke-dashoffset:0;stroke-opacity:1" />
      <g
         id="g3725">
        <path
           style="opacity:1;fill:none;fill-opacity:1;stroke:#000000;stroke-width:1;stroke-linecap:round;stroke-linejoin:miter;stroke-miterlimit:4;stroke-dasharray:none;stroke-dashoffset:0;stroke-opacity:1"
           id="path3554"
           d="m 58.459761,84.633024 c 0.01439,1.982335 0.0069,3.963818 0.09271,5.944666 0.08043,1.732899 0.358132,3.446706 0.798883,5.122513 0.15707,0.38299 0.220885,1.042419 0.549577,1.290749 -0.02291,-0.01611 -0.05739,-0.02275 -0.06878,-0.04837 -0.03885,-0.08733 0.109323,-0.156882 0.166788,-0.233267 0.263197,-0.349856 0.502443,-0.720151 0.747482,-1.08263 0.570767,-0.893448 1.252974,-1.675276 2.164038,-2.223209 0.86324,-0.418047 1.714791,-0.353481 2.495854,0.181488 0.825214,0.839121 0.625144,1.59508 0.0235,2.494208 -0.867238,0.997212 -2.06016,1.582119 -3.273859,2.045148 -0.501264,0.110331 -1.193475,0.510124 -1.698797,0.221596 0.05128,-0.09053 0.10256,-0.181062 0.153842,-0.271595 0.0068,-0.0083 0.01847,0.0013 0.01167,0.0096 v 0 c -0.02389,5.29e-4 -0.04778,0.0011 -0.07167,0.0019 0.468111,-0.148397 0.966832,-0.237363 1.42716,-0.423995 1.116732,-0.432612 2.225585,-0.960138 3.04075,-1.864875 0.423706,-0.597012 0.676447,-1.212213 0.103362,-1.811192 -0.601284,-0.446437 -1.279866,-0.477071 -1.959962,-0.160081 -0.852336,0.503883 -1.469718,1.251291 -2.000631,2.080313 -0.233545,0.349205 -0.795554,1.40282 -1.216501,1.539679 -0.09077,0.02951 -0.190899,2.64e-4 -0.286351,5.29e-4 -0.521382,-0.349067 -0.60476,-1.063699 -0.797903,-1.617186 -0.448123,-1.71123 -0.730362,-3.46107 -0.811356,-5.23013 -0.08058,-1.986431 -0.0739,-3.973288 -0.05102,-5.961012 -0.0034,-0.326134 0.457867,-0.330878 0.461222,-0.0047 z"
           inkscape:connector-curvature="0" />
        <path
           style="opacity:1;fill:none;fill-opacity:1;stroke:#000000;stroke-width:1;stroke-linecap:round;stroke-linejoin:miter;stroke-miterlimit:4;stroke-dasharray:none;stroke-dashoffset:0;stroke-opacity:1"
           id="path3556"
           d="m 69.400903,94.978258 c 1.056251,-0.408828 2.033614,-0.971126 2.909557,-1.68638 0.41823,-0.367876 0.779986,-0.799197 1.066927,-1.276598 0.0013,-0.0047 0.0024,-0.0094 0.0038,-0.0141 0.118205,0.124741 0.291325,0.214451 0.354613,0.374222 0.03667,0.09258 -0.06533,0.188209 -0.09406,0.283554 -0.139552,0.463015 -0.232871,0.931423 -0.321189,1.406342 -0.202549,1.233324 -0.123428,2.481996 0.01955,3.71592 0.07286,0.677635 0.257016,1.352206 0.0851,2.024298 0.0016,0.01058 -0.01341,0.01275 -0.01498,0.0021 v 0 c -0.359457,-0.59209 -0.465839,-1.289952 -0.584472,-1.963991 -0.16323,-1.286256 -0.233249,-2.591131 -0.01434,-3.876569 0.03406,-0.170852 0.356143,-1.709457 0.484598,-1.772994 0.153344,-0.07585 0.343328,-0.03121 0.513133,-0.01037 0.02529,0.0031 -0.02125,0.04629 -0.03188,0.06944 -0.311603,0.52831 -0.703403,1.003943 -1.16966,1.404385 -0.918191,0.742561 -1.937186,1.33196 -3.041552,1.756468 -0.30816,0.116777 -0.473308,-0.319027 -0.165147,-0.435803 z"
           inkscape:connector-curvature="0" />
      </g>
      <path
         style="opacity:1;fill:none;fill-opacity:1;stroke:#000000;stroke-width:1;stroke-linecap:round;stroke-linejoin:miter;stroke-miterlimit:4;stroke-dasharray:none;stroke-dashoffset:0;stroke-opacity:1"
         id="path3761"
         d="m -37.038478,61.934237 c 3.246086,-1.723546 6.827462,-2.676884 10.354635,-3.631088 9.255354,-2.353443 18.7785707,-3.215034 28.2840638,-3.758272 8.1901535,-0.357454 16.4062612,-0.113892 24.5177942,1.097593 1.833849,0.435218 4.016706,0.559072 5.500002,1.868569 0.316948,0.376727 0.60528,0.784064 0.864656,1.203251 0.05405,0.05051 0.108112,0.101026 0.162166,0.151537 0.01032,0.0065 0.0011,0.02114 -0.0092,0.0146 v 0 c -0.07002,-0.02801 -0.140039,-0.05602 -0.210058,-0.08404 -0.519938,-0.124023 -0.871886,-0.437036 -1.19389,-0.855696 C 29.868325,56.685193 27.7164,56.660507 26.032947,56.210133 17.960794,54.996198 9.7832525,54.7571 1.6316499,55.100262 c -9.4694553,0.530386 -18.9575289,1.374359 -28.1816719,3.70011 -3.489319,0.934157 -7.027264,1.871612 -10.252302,3.541408 -0.288174,0.166982 -0.524322,-0.240556 -0.236149,-0.407537 z"
         inkscape:connector-curvature="0" />
      <path
         style="opacity:1;fill:none;fill-opacity:1;stroke:#000000;stroke-width:1;stroke-linecap:round;stroke-linejoin:miter;stroke-miterlimit:4;stroke-dasharray:none;stroke-dashoffset:0;stroke-opacity:1"
         id="path3765"
         d="m -4.1190423,31.728558 c 0.023294,1.836735 -0.04868,3.672861 -0.052798,5.509601 -0.033497,1.513295 0.2087909,3.015988 0.2258055,4.525915 0.014187,0.140303 0.028376,0.280609 0.042564,0.420912 0.00249,0.01196 -0.014444,0.01548 -0.01692,0.0035 v 0 c -0.042822,-0.134967 -0.085644,-0.269933 -0.1284666,-0.404897 -0.5480147,-1.447962 -0.6591424,-3.009369 -0.6779823,-4.546701 0.00424,-1.834282 0.066263,-3.667501 0.081115,-5.501687 -0.0047,-0.37242 0.5219795,-0.379069 0.5266817,-0.0066 z"
         inkscape:connector-curvature="0" />
      <path
         style="opacity:1;fill:none;fill-opacity:1;stroke:#000000;stroke-width:1;stroke-linecap:round;stroke-linejoin:miter;stroke-miterlimit:4;stroke-dasharray:none;stroke-dashoffset:0;stroke-opacity:1"
         id="path3767"
         d="m -16.621433,29.948589 c 3.26371,0.01736 6.527418,0.02982 9.7911167,0.05005 3.4770673,0.03629 6.9539231,-0.03725 10.4307993,-0.04038 0.5640626,0.12024 1.3438746,-0.134983 1.8910845,0.146439 0.1250093,0.06429 0.2123009,0.239913 0.2815101,0.362463 0.00627,0.01048 -0.00856,0.01934 -0.014833,0.0089 v 0 c -0.022714,-0.03567 -0.026191,-0.101704 -0.068145,-0.107016 -0.07889,-0.01 -0.1494451,0.05861 -0.228219,0.06948 -0.6084596,0.08398 -1.2434413,0.02355 -1.8515716,0.111403 -3.48052938,0.112416 -6.9642142,0.07708 -10.4459295,0.06112 -3.2665535,-0.03634 -6.5340025,-0.05035 -9.7994155,-0.148535 -0.363374,-0.0096 -0.349771,-0.523504 0.0136,-0.513887 z"
         inkscape:connector-curvature="0" />
      <path
         style="opacity:1;fill:none;fill-opacity:1;stroke:#000000;stroke-width:1;stroke-linecap:round;stroke-linejoin:miter;stroke-miterlimit:4;stroke-dasharray:none;stroke-dashoffset:0;stroke-opacity:1"
         id="path3769"
         d="m 55.460391,196.56708 c -2.266487,2.05109 -4.681693,3.92252 -7.148054,5.72445 -3.62358,2.5564 -7.434506,4.8741 -11.490971,6.68161 -0.898004,0.40014 -1.816931,0.75156 -2.725399,1.12734 -4.953433,1.88444 -10.194178,2.86472 -15.481522,3.10451 -1.129044,0.0512 -2.260099,0.0374 -3.390149,0.0561 -4.873099,-0.11412 -9.7928209,-0.57566 -14.47876503,-1.99004 -0.63543526,-0.1918 -1.25519056,-0.43215 -1.88278587,-0.64822 -1.7049852,-0.76718 -3.8890314,-1.54169 -4.6145031,-3.44108 -0.082922,-0.57148 0.075745,-1.08001 0.5992281,-1.35245 0.00753,-0.01 0.021138,0.001 0.013607,0.0107 v 0 c -0.075465,0.38681 -0.2537388,0.75534 -0.1558808,1.15686 0.7344624,1.68368 2.8491155,2.31351 4.36196689,3.02997 5.21953971,1.78294 10.63290911,2.53063 16.14632881,2.58232 1.117476,-0.0186 2.235937,-0.005 3.352428,-0.0556 5.21843,-0.23579 10.391706,-1.19813 15.28191,-3.05507 0.898753,-0.36901 1.807506,-0.71453 2.696258,-1.10701 4.028146,-1.77885 7.81418,-4.06274 11.428063,-6.56739 2.46126,-1.78331 4.87286,-3.63022 7.179442,-5.61144 0.250703,-0.21835 0.559501,0.13619 0.308798,0.35454 z"
         inkscape:connector-curvature="0" />
      <path
         style="opacity:1;fill:none;fill-opacity:1;stroke:#000000;stroke-width:1;stroke-linecap:round;stroke-linejoin:miter;stroke-miterlimit:4;stroke-dasharray:none;stroke-dashoffset:0;stroke-opacity:1"
         id="path3771"
         d="m -12.071379,209.64654 c 1.92089,-1.13525 3.8926381,-2.18072 5.8192035,-3.30638 1.1813645,-0.59394 2.1594011,-1.54995 3.3466082,-2.12522 0.058198,-0.0448 0.1163957,-0.0895 0.1745937,-0.1343 0.00868,-0.009 0.020839,0.004 0.012155,0.0123 v 0 c -0.046555,0.0589 -0.093109,0.1178 -0.1396635,0.1767 -0.7688432,1.11087 -2.0764045,1.72369 -3.1673718,2.45791 -1.9258385,1.12509 -3.8953894,2.17095 -5.8327381,3.27565 -0.252188,0.15046 -0.464974,-0.20619 -0.212786,-0.35665 z"
         inkscape:connector-curvature="0" />
      <path
         style="opacity:1;fill:none;fill-opacity:1;stroke:#000000;stroke-width:1;stroke-linecap:round;stroke-linejoin:miter;stroke-miterlimit:4;stroke-dasharray:none;stroke-dashoffset:0;stroke-opacity:1"
         id="path3773"
         d="m -11.378946,210.58534 c -0.131172,-1.80423 -0.218563,-3.61107 -0.281525,-5.41884 -0.04874,-1.73451 -0.0723,-3.46961 -0.114547,-5.20428 -0.01146,-0.14955 -0.03865,-1.39429 -0.02238,-1.39795 0.171935,-0.0387 0.352452,-0.004 0.528678,-0.006 0.766112,0.97139 1.8175069,1.62526 2.8693403,2.24338 1.5023483,0.83528 3.1276104,1.40921 4.6299153,2.24282 0.451321,0.25138 0.7050826,0.68322 1.0627818,1.03617 0.0087,0.009 -0.00344,0.0209 -0.012136,0.0123 v 0 c -0.3572029,-0.35263 -0.7537744,-0.5198 -1.2164018,-0.71847 -1.574238,-0.70912 -3.2057154,-1.29869 -4.7117656,-2.15339 -1.0885411,-0.64546 -2.173428,-1.33265 -2.968787,-2.33877 0.09677,-0.0872 0.187464,-0.18172 0.290306,-0.26171 0.05676,-0.0442 -0.0012,0.14389 0.0021,0.21573 0.01749,0.3716 0.02667,0.74357 0.03314,1.11551 0.03497,1.73289 0.04598,3.4663 0.100043,5.1988 0.06202,1.80255 0.152614,3.60374 0.271861,5.40346 0.02239,0.32572 -0.438259,0.35738 -0.460645,0.0317 z"
         inkscape:connector-curvature="0" />
      <path
         style="opacity:1;fill:none;fill-opacity:1;stroke:#000000;stroke-width:1;stroke-linecap:round;stroke-linejoin:miter;stroke-miterlimit:4;stroke-dasharray:none;stroke-dashoffset:0;stroke-opacity:1"
         id="path3785"
         d="m 6.1490476,230.9042 c -0.053724,2.13252 -0.06719,4.26565 -0.084302,6.39867 -0.036154,1.55358 0.071756,3.1136 -0.1257602,4.65886 2.49e-5,0.0122 -0.017253,0.0123 -0.01728,3e-5 v 0 c -0.2062922,-1.54625 -0.4122069,-3.09319 -0.4047895,-4.65791 -0.024717,-2.1377 0.010366,-4.27543 0.065463,-6.4125 0.00909,-0.40069 0.5757531,-0.38784 0.5666671,0.0129 z"
         inkscape:connector-curvature="0" />
      <path
         style="opacity:1;fill:none;fill-opacity:1;stroke:#000000;stroke-width:1;stroke-linecap:round;stroke-linejoin:miter;stroke-miterlimit:4;stroke-dasharray:none;stroke-dashoffset:0;stroke-opacity:1"
         id="path3787"
         d="m -3.2762478,230.2087 c 3.41618339,-0.76956 6.8732256,-1.33854 10.3309821,-1.88356 2.8764531,-0.36077 5.7489367,-0.99578 8.6598307,-0.97022 0.684003,0.15391 0.382989,0.059 0.91116,0.25752 0.01199,0.002 0.0086,0.0193 -0.0033,0.017 v 0 c -0.531235,-0.0105 -0.234843,-0.025 -0.88688,0.0773 -2.866751,0.37287 -5.729693,0.77675 -8.5893212,1.20046 -3.4460798,0.53966 -6.88982341,1.10454 -10.3027984,1.82878 -0.372827,0.0846 -0.4924567,-0.44267 -0.1196297,-0.52726 z"
         inkscape:connector-curvature="0" />
      <path
         style="opacity:1;fill:none;fill-opacity:1;stroke:#000000;stroke-width:1;stroke-linecap:round;stroke-linejoin:miter;stroke-miterlimit:4;stroke-dasharray:none;stroke-dashoffset:0;stroke-opacity:1"
         id="path3789"
         d="m 16.135623,231.28824 c 1.553036,-0.31183 3.11586,-0.57349 4.688199,-0.76568 0.440296,-0.0613 0.862322,-0.0417 1.291255,0.0577 0.0122,-7.9e-4 0.01314,0.0166 9.26e-4,0.0173 v 0 c -0.398842,0.14553 -0.801756,0.27913 -1.213292,0.38509 -1.541413,0.34154 -3.098618,0.59964 -4.648406,0.89907 -0.41965,0.0839 -0.538345,-0.50954 -0.118695,-0.59347 z"
         inkscape:connector-curvature="0" />
      <path
         style="opacity:1;fill:none;fill-opacity:1;stroke:#000000;stroke-width:1;stroke-linecap:round;stroke-linejoin:miter;stroke-miterlimit:4;stroke-dasharray:none;stroke-dashoffset:0;stroke-opacity:1"
         id="path3791"
         d="m 25.176556,229.5832 c 1.050382,-0.51408 2.006463,-1.16814 2.793725,-2.03339 0.542303,-0.66325 0.818748,-1.46758 1.018543,-2.28785 0.01804,-0.0862 0.03671,-0.17221 0.05411,-0.25852 0.0089,-0.0443 0.05287,-0.27046 0.06092,-0.33493 0.0024,-0.0198 -0.01577,-0.0702 0.0013,-0.0599 0.566071,0.34047 0.483865,0.19129 0.399056,0.68774 -0.205489,1.22252 -0.313251,2.45801 -0.393843,3.69409 -0.05308,1.11775 -0.10903,2.23778 -0.07384,3.35693 0.0053,0.37968 0.08529,0.75055 0.130083,1.12566 0.0097,0.0953 -0.02262,0.1534 0.05466,0.21795 0.0096,0.008 -0.0011,0.0211 -0.01074,0.0135 v 0 c -0.08175,-0.0618 -0.173549,-0.0413 -0.252527,-0.11253 -0.33705,-0.30723 -0.393075,-0.78094 -0.456819,-1.21064 -0.106907,-1.1414 -0.03422,-2.28683 0.02212,-3.42957 0.08377,-1.25899 0.196088,-2.51794 0.437218,-3.75816 0.100092,-0.48612 -0.01506,-0.48047 0.662308,-0.55978 0.08984,-0.0105 -0.01548,0.18044 -0.03056,0.26962 -0.03873,0.22875 -0.04414,0.23718 -0.0986,0.48463 -0.230433,0.90095 -0.539607,1.78335 -1.145664,2.50786 -0.835327,0.90567 -1.833708,1.60504 -2.945734,2.13872 -0.319247,0.15962 -0.544989,-0.29186 -0.225742,-0.45149 z"
         inkscape:connector-curvature="0" />
      <path
         style="opacity:1;fill:none;fill-opacity:1;stroke:#000000;stroke-width:1;stroke-linecap:round;stroke-linejoin:miter;stroke-miterlimit:4;stroke-dasharray:none;stroke-dashoffset:0;stroke-opacity:1"
         id="path3793"
         d="m 26.487678,234.0097 c 1.59312,-0.52368 3.202334,-0.997 4.807733,-1.48136 0.403363,-0.0489 1.497256,-0.67058 1.72815,-0.0943 0.01072,0.006 0.0024,0.021 -0.0083,0.0152 v 0 c -0.286535,0.45098 -1.133903,0.386 -1.548481,0.64287 -1.598097,0.4896 -3.201464,0.96234 -4.792851,1.47351 -0.393045,0.13171 -0.579314,-0.42414 -0.186269,-0.55585 z"
         inkscape:connector-curvature="0" />
      <path
         style="opacity:1;fill:none;fill-opacity:1;stroke:#000000;stroke-width:1;stroke-linecap:round;stroke-linejoin:miter;stroke-miterlimit:4;stroke-dasharray:none;stroke-dashoffset:0;stroke-opacity:1"
         id="path3771-3"
         d="m 37.042978,54.590284 c -1.065116,1.960648 -2.219984,3.870382 -3.294891,5.825713 -0.708603,1.116369 -1.056784,2.438976 -1.779979,3.54232 -0.02693,0.06833 -0.05391,0.136577 -0.08084,0.204909 -0.0031,0.01234 -0.0199,0.0073 -0.0167,-0.0043 v 0 c 0.0096,-0.07442 0.01938,-0.148892 0.02908,-0.223343 0.08915,-1.348041 0.896335,-2.545422 1.455316,-3.735721 1.074582,-1.954472 2.227361,-3.863412 3.322291,-5.8063 0.139111,-0.258624 0.504866,-0.0619 0.365756,0.196727 z"
         inkscape:connector-curvature="0" />
      <path
         style="opacity:1;fill:none;fill-opacity:1;stroke:#000000;stroke-width:1;stroke-linecap:round;stroke-linejoin:miter;stroke-miterlimit:4;stroke-dasharray:none;stroke-dashoffset:0;stroke-opacity:1"
         id="path3773-6"
         d="m 35.966685,54.140397 c 1.0392,1.480715 2.042176,2.986154 3.024668,4.504939 0.93263,1.463248 1.844027,2.939895 2.771205,4.406594 0.08668,0.122412 0.749313,1.176467 0.737207,1.187979 -0.127654,0.121514 -0.300358,0.18445 -0.450542,0.276678 -1.156251,-0.440008 -2.394211,-0.461049 -3.614179,-0.451195 -1.718061,0.05491 -3.407353,0.397196 -5.124521,0.45352 -0.516356,0.01611 -0.955882,-0.224094 -1.444074,-0.343221 -0.01235,-0.0031 -0.0082,-0.01947 0.0041,-0.01677 v 0 c 0.487599,0.119109 0.913727,0.05887 1.412714,-0.0083 1.714948,-0.200085 3.41761,-0.532144 5.14882,-0.572292 1.265508,-0.0053 2.549308,0.02718 3.748494,0.481969 -0.03827,0.124537 -0.06752,0.252201 -0.114672,0.373653 -0.02604,0.0671 -0.07304,-0.123975 -0.112515,-0.184075 -0.205869,-0.309856 -0.404807,-0.624292 -0.601327,-0.940141 -0.920043,-1.468895 -1.81976,-2.950563 -2.755949,-4.409341 -0.978987,-1.514797 -1.981824,-3.013735 -3.00848,-4.496702 -0.18651,-0.267973 0.192489,-0.531733 0.37897,-0.263789 z"
         inkscape:connector-curvature="0" />
    </g>
    <g
       id="g3661"
       transform="rotate(36.51003,24.514851,-127.5217)">
      <g
         id="g3619">
        <path
           inkscape:connector-curvature="0"
           d="m 42.235588,75.068837 c -0.07148,3.075442 -0.24125,6.148072 -0.382199,9.220953 -0.313327,7.223718 -0.503576,14.451936 -0.716232,21.67909 -0.271703,9.6933 -0.581202,19.38549 -0.975839,29.07459 -0.412565,9.3739 -1.080598,18.73361 -1.556901,28.10412 -0.27491,5.56894 -0.423286,11.15643 0.16524,16.70873 0.05256,0.72964 0.238729,1.43842 0.340318,2.16027 0.112924,0.80239 -0.04598,0.34022 0.162372,0.84869 0.0043,0.01 -0.0096,0.0159 -0.01384,0.006 v 0 c -0.125714,-0.26949 -0.294081,-0.52022 -0.394739,-0.80004 -0.219007,-0.60882 -0.3755,-1.57263 -0.491353,-2.16561 -0.79275,-5.5636 -0.636378,-11.18826 -0.359577,-16.78818 0.476248,-9.36874 1.144479,-18.72651 1.572144,-28.09789 0.406688,-9.68664 0.728824,-19.3764 1.030245,-29.06685 0.233516,-7.229118 0.445365,-14.459638 0.796639,-21.684241 0.154776,-3.070741 0.33423,-6.139882 0.524738,-9.208598 0.0063,-0.211418 0.305284,-0.20252 0.298992,0.0089 z"
           id="path3611"
           style="opacity:1;fill:none;fill-opacity:1;stroke:#000000;stroke-width:1;stroke-linecap:round;stroke-linejoin:miter;stroke-miterlimit:4;stroke-dasharray:none;stroke-dashoffset:0;stroke-opacity:1" />
        <path
           inkscape:connector-curvature="0"
           d="m 41.467394,73.221114 c 2.356011,-0.02516 4.709525,0.124422 7.061152,0.247549 5.87166,0.315198 11.752024,0.396383 17.630611,0.466767 9.453382,0.05087 18.906093,0.14088 28.358144,0.307965 10.753459,0.214529 21.504959,0.51462 32.257059,0.786849 9.41188,0.23589 18.82457,0.437044 28.23736,0.632516 5.30506,0.107844 10.61115,0.223832 15.91745,0.15748 1.13624,-0.185605 2.54099,0.162552 3.6488,-0.244083 0.10035,-0.06761 0.0579,-0.02476 0.12545,-0.130429 0.001,-0.01064 0.0161,-0.0091 0.0151,0.0016 v 0 c 0.0437,0.18914 0.0411,0.08698 -0.0151,0.306197 -0.7486,0.725601 -2.84358,0.35954 -3.76858,0.506206 -5.31117,0.06869 -10.62221,-0.05052 -15.93219,-0.156062 C 145.5892,75.908182 136.17589,75.704561 126.76331,75.47 116.01231,75.197794 105.26202,74.893261 94.509624,74.679899 85.058398,74.510801 75.606555,74.418398 66.154017,74.360147 c -5.88418,-0.07441 -11.770204,-0.160041 -17.647158,-0.482076 -2.343073,-0.126595 -4.687708,-0.279178 -7.035303,-0.267306 -0.275476,0.0029 -0.279553,-0.386699 -0.0041,-0.389583 z"
           id="path3613"
           style="opacity:1;fill:none;fill-opacity:1;stroke:#000000;stroke-width:1;stroke-linecap:round;stroke-linejoin:miter;stroke-miterlimit:4;stroke-dasharray:none;stroke-dashoffset:0;stroke-opacity:1" />
        <path
           inkscape:connector-curvature="0"
           d="m 175.37508,74.648693 c 0.0119,2.389144 -0.24512,4.770603 -0.45262,7.149522 -0.47457,5.314755 -0.67724,10.645148 -0.85743,15.973928 -0.19627,7.659247 -0.39723,15.318207 -0.65241,22.975997 -0.32668,8.69122 -0.62281,17.3827 -0.65002,26.07957 -0.0378,7.353 0.61089,14.6797 1.70322,21.95678 0.70002,4.29212 1.66282,8.54159 2.48718,12.81372 0.056,0.32098 0.31156,1.69406 0.32912,2.10423 0.0163,0.38077 -0.0575,0.76034 -0.0769,1.14099 -5.3e-4,0.01 -0.0155,0.009 -0.0151,-4.9e-4 v 0 c 0.033,-1.02206 -0.56032,-2.14281 -0.66197,-3.16829 -0.97136,-4.25524 -1.95641,-8.51084 -2.63333,-12.81696 -1.09478,-7.30208 -1.74466,-14.65346 -1.70094,-22.03167 0.0349,-8.70179 0.33767,-17.39786 0.68316,-26.09343 0.26736,-7.65743 0.4864,-15.31596 0.69893,-22.974834 0.18841,-5.335857 0.40703,-10.673527 0.91852,-15.99292 0.22674,-2.368669 0.48661,-4.737776 0.55635,-7.116094 0,-0.211862 0.32424,-0.211862 0.32424,0 z"
           id="path3615"
           style="opacity:1;fill:none;fill-opacity:1;stroke:#000000;stroke-width:0.9612928;stroke-linecap:round;stroke-linejoin:miter;stroke-miterlimit:4;stroke-dasharray:none;stroke-dashoffset:0;stroke-opacity:1" />
        <path
           inkscape:connector-curvature="0"
           d="m 38.666471,184.95155 c 2.10518,-0.23434 4.19872,-0.57106 6.295847,-0.87333 5.088243,-0.73254 10.211216,-1.11603 15.332961,-1.45799 9.266533,-0.57599 18.548494,-0.71994 27.827486,-0.79611 11.809365,-0.0549 23.617825,0.10785 35.424955,0.29731 10.24239,0.12927 20.47854,0.48944 30.7063,1.04929 6.21491,0.36587 12.42643,0.79115 18.64579,1.07126 2.43903,0.0679 4.89255,0.19745 7.32786,-0.0433 0.17967,0.0821 0.30433,-0.0883 0.46027,-0.10988 0.0138,-0.002 -0.0164,0.0403 -0.0282,0.0325 -0.0328,-0.022 -0.0465,-0.0655 -0.0697,-0.0982 -0.009,-0.005 -0.002,-0.0184 0.008,-0.0128 v 0 c 0.62301,0.25363 -0.0459,0.51182 -0.33441,0.54391 -2.44539,0.31295 -4.92717,0.0961 -7.37974,0.0676 -6.22059,-0.27715 -12.43342,-0.69955 -18.64957,-1.06295 -10.2234,-0.55614 -20.45497,-0.91831 -30.69289,-1.04586 -11.80428,-0.18941 -23.609884,-0.35384 -35.416437,-0.29875 -9.272329,0.0729 -18.547503,0.21741 -27.807798,0.78282 -5.11424,0.33475 -10.228712,0.7172 -15.311868,1.42394 -2.10256,0.28813 -4.20232,0.61441 -6.315811,0.79992 -0.180903,0.0174 -0.203616,-0.25181 -0.02271,-0.2692 z"
           id="path3617"
           style="opacity:1;fill:none;fill-opacity:1;stroke:#000000;stroke-width:0.97473335;stroke-linecap:round;stroke-linejoin:miter;stroke-miterlimit:4;stroke-dasharray:none;stroke-dashoffset:0;stroke-opacity:1" />
      </g>
      <path
         style="opacity:1;fill:none;fill-opacity:1;stroke:#000000;stroke-width:1;stroke-linecap:round;stroke-linejoin:miter;stroke-miterlimit:4;stroke-dasharray:none;stroke-dashoffset:0;stroke-opacity:1"
         id="path3621"
         d="m 58.21939,116.09724 c 1.837195,1.35545 3.588506,2.82212 5.366803,4.25279 1.890418,1.50195 3.846012,2.91995 5.858123,4.25392 0.733796,0.45701 1.452084,0.9097 2.049534,1.5366 0.009,0.006 7.94e-4,0.0185 -0.0082,0.0127 v 0 c -0.822626,-0.28059 -1.591251,-0.63711 -2.303242,-1.15314 -2.028108,-1.33672 -3.993968,-2.76716 -5.891308,-4.28413 -1.771946,-1.4318 -3.513336,-2.9015 -5.30974,-4.30288 -0.223362,-0.1683 0.01466,-0.48417 0.238008,-0.31588 z"
         inkscape:connector-curvature="0" />
      <path
         style="opacity:1;fill:none;fill-opacity:1;stroke:#000000;stroke-width:1;stroke-linecap:round;stroke-linejoin:miter;stroke-miterlimit:4;stroke-dasharray:none;stroke-dashoffset:0;stroke-opacity:1"
         id="path3623"
         d="m 57.518307,114.94027 c 1.495595,-1.03293 2.986754,-2.07193 4.464794,-3.12986 1.966812,-1.41905 3.923167,-2.85286 5.841743,-4.33663 0.974487,-0.72278 1.844855,-1.56844 2.757561,-2.36369 0.112028,-0.10849 0.227913,-0.14895 0.375563,-0.17013 0.0061,-0.009 0.01852,-2.3e-4 0.01246,0.009 v 0 c 0.01379,0.1647 -0.02595,0.27894 -0.137038,0.40985 -0.80028,0.93462 -1.794727,1.68448 -2.741504,2.46069 -1.922939,1.48705 -3.884356,2.92321 -5.855539,4.34551 -1.48069,1.05759 -2.971323,2.10093 -4.483684,3.11291 -0.238451,0.16571 -0.4728,-0.17151 -0.234347,-0.33722 z"
         inkscape:connector-curvature="0" />
      <path
         style="opacity:1;fill:none;fill-opacity:1;stroke:#000000;stroke-width:1;stroke-linecap:round;stroke-linejoin:miter;stroke-miterlimit:4;stroke-dasharray:none;stroke-dashoffset:0;stroke-opacity:1"
         id="path3625"
         d="m 72.870773,105.02637 c 1.290768,1.60124 2.700386,3.09884 4.129625,4.57569 1.531297,1.56125 3.103102,3.08159 4.694333,4.58139 0.549891,0.63477 1.45365,1.12225 1.742979,1.95021 -6e-5,0.0624 -1.21e-4,0.12482 -1.85e-4,0.18723 0.0054,0.009 -0.0077,0.0168 -0.01307,0.008 v 0 c -0.05073,-0.025 -0.101455,-0.0501 -0.152181,-0.0751 -0.708477,-0.48092 -1.287076,-1.1366 -1.942531,-1.68217 -1.599493,-1.50368 -3.17745,-3.03052 -4.705863,-4.6068 -1.431864,-1.49628 -2.851409,-3.01091 -4.095221,-4.67054 -0.189153,-0.24192 0.152969,-0.50942 0.342125,-0.2675 z"
         inkscape:connector-curvature="0" />
      <path
         style="opacity:1;fill:none;fill-opacity:1;stroke:#000000;stroke-width:1;stroke-linecap:round;stroke-linejoin:miter;stroke-miterlimit:4;stroke-dasharray:none;stroke-dashoffset:0;stroke-opacity:1"
         id="path3627"
         d="m 74.368503,125.01277 c 1.636347,-1.15876 3.244178,-2.35754 4.844574,-3.56529 1.56523,-1.16463 3.090137,-2.38203 4.645276,-3.55981 0.534982,-0.35964 0.269687,-0.22161 0.783743,-0.43666 0.0081,-0.007 0.01799,0.004 0.0099,0.0114 v 0 c -0.289221,0.48409 -0.109217,0.24239 -0.564152,0.70651 -1.47074,1.29122 -3.052787,2.44682 -4.608854,3.63165 -1.607712,1.20854 -3.225207,2.40472 -4.868399,3.56471 -0.249262,0.1712 -0.491377,-0.18131 -0.242118,-0.35251 z"
         inkscape:connector-curvature="0" />
      <path
         style="opacity:1;fill:none;fill-opacity:1;stroke:#000000;stroke-width:1;stroke-linecap:round;stroke-linejoin:miter;stroke-miterlimit:4;stroke-dasharray:none;stroke-dashoffset:0;stroke-opacity:1"
         id="path3629"
         d="m 61.641598,130.37555 c 1.269846,1.06201 2.395767,2.28039 3.528033,3.48402 1.218883,1.31661 2.409457,2.66196 3.502848,4.08522 0.602062,0.69356 0.97691,1.48786 1.294114,2.33334 0.0052,0.009 -0.008,0.0167 -0.01323,0.007 v 0 c -0.532998,-0.69418 -1.145278,-1.33113 -1.646457,-2.05279 -1.118595,-1.38545 -2.272543,-2.74209 -3.488738,-4.04336 -1.117258,-1.19397 -2.223889,-2.40394 -3.455511,-3.48282 -0.234011,-0.19724 0.04492,-0.52818 0.278934,-0.33094 z"
         inkscape:connector-curvature="0" />
      <path
         style="opacity:1;fill:none;fill-opacity:1;stroke:#000000;stroke-width:1;stroke-linecap:round;stroke-linejoin:miter;stroke-miterlimit:4;stroke-dasharray:none;stroke-dashoffset:0;stroke-opacity:1"
         id="path3631"
         d="m 70.963652,139.06792 c 1.551953,-1.16589 3.20096,-2.19294 4.857972,-3.20068 1.114036,-0.62484 2.18264,-1.34643 3.341147,-1.88951 0.154948,-0.0953 0.310674,-0.0709 0.478727,-0.0892 0.0092,-0.005 0.01685,0.008 0.0076,0.0131 v 0 c -0.09904,0.13751 -0.155228,0.28462 -0.315428,0.37192 -1.046938,0.73095 -2.216039,1.27023 -3.288962,1.96074 -1.644187,0.99906 -3.281825,2.01482 -4.826955,3.16375 -0.233397,0.17969 -0.487513,-0.15039 -0.254116,-0.33007 z"
         inkscape:connector-curvature="0" />
      <path
         style="opacity:1;fill:none;fill-opacity:1;stroke:#000000;stroke-width:1;stroke-linecap:round;stroke-linejoin:miter;stroke-miterlimit:4;stroke-dasharray:none;stroke-dashoffset:0;stroke-opacity:1"
         id="path3633"
         d="m 77.864895,130.92887 c 1.000178,-0.0464 2.036993,-0.2526 2.98894,0.13445 0.855599,0.72739 0.348511,1.8817 0.03736,2.76756 -0.299924,0.7626 -0.572653,1.54572 -1.017728,2.23852 -0.003,0.0102 -0.01754,0.006 -0.0145,-0.004 v 0 c 0.0083,-0.83469 0.356039,-1.60061 0.647285,-2.36967 0.235363,-0.66768 0.71837,-1.63951 0.1925,-2.27068 -0.871688,-0.40045 -1.885839,-0.11648 -2.808684,-0.10894 -0.273609,0.0178 -0.298784,-0.36914 -0.02516,-0.38694 z"
         inkscape:connector-curvature="0" />
      <path
         style="opacity:1;fill:none;fill-opacity:1;stroke:#000000;stroke-width:1;stroke-linecap:round;stroke-linejoin:miter;stroke-miterlimit:4;stroke-dasharray:none;stroke-dashoffset:0;stroke-opacity:1"
         id="path3635"
         d="m 59.950288,133.24824 c -0.259762,-1.09135 -0.468836,-2.19406 -0.652922,-3.30046 -0.04132,-0.47722 -0.27803,-0.90299 0.03447,-1.30194 0.784648,-0.10867 1.618237,0.20986 2.382718,0.38778 1.236885,0.30905 2.517889,0.46475 3.699987,0.95639 0.01053,0.002 0.008,0.0167 -0.0026,0.0149 v 0 c -1.290228,0.0735 -2.549549,-0.24401 -3.800303,-0.52999 -0.657754,-0.15352 -1.39958,-0.27723 -2.01685,-0.48676 0.0432,-0.29259 0.05934,0.85146 0.133636,0.889 0.176583,1.0956 0.376055,2.18791 0.634436,3.26754 0.0732,0.29178 -0.339436,0.39531 -0.412641,0.10353 z"
         inkscape:connector-curvature="0" />
      <g
         id="g3717"
         transform="rotate(-29.938355,65.071775,92.628148)">
        <path
           inkscape:connector-curvature="0"
           d="m 58.459761,84.633024 c 0.01439,1.982335 0.0069,3.963818 0.09271,5.944666 0.08043,1.732899 0.358132,3.446706 0.798883,5.122513 0.15707,0.38299 0.220885,1.042419 0.549577,1.290749 -0.02291,-0.01611 -0.05739,-0.02275 -0.06878,-0.04837 -0.03885,-0.08733 0.109323,-0.156882 0.166788,-0.233267 0.263197,-0.349856 0.502443,-0.720151 0.747482,-1.08263 0.570767,-0.893448 1.252974,-1.675276 2.164038,-2.223209 0.86324,-0.418047 1.714791,-0.353481 2.495854,0.181488 0.825214,0.839121 0.625144,1.59508 0.0235,2.494208 -0.867238,0.997212 -2.06016,1.582119 -3.273859,2.045148 -0.501264,0.110331 -1.193475,0.510124 -1.698797,0.221596 0.05128,-0.09053 0.10256,-0.181062 0.153842,-0.271595 0.0068,-0.0083 0.01847,0.0013 0.01167,0.0096 v 0 c -0.02389,5.29e-4 -0.04778,0.0011 -0.07167,0.0019 0.468111,-0.148397 0.966832,-0.237363 1.42716,-0.423995 1.116732,-0.432612 2.225585,-0.960138 3.04075,-1.864875 0.423706,-0.597012 0.676447,-1.212213 0.103362,-1.811192 -0.601284,-0.446437 -1.279866,-0.477071 -1.959962,-0.160081 -0.852336,0.503883 -1.469718,1.251291 -2.000631,2.080313 -0.233545,0.349205 -0.795554,1.40282 -1.216501,1.539679 -0.09077,0.02951 -0.190899,2.64e-4 -0.286351,5.29e-4 -0.521382,-0.349067 -0.60476,-1.063699 -0.797903,-1.617186 -0.448123,-1.71123 -0.730362,-3.46107 -0.811356,-5.23013 -0.08058,-1.986431 -0.0739,-3.973288 -0.05102,-5.961012 -0.0034,-0.326134 0.457867,-0.330878 0.461222,-0.0047 z"
           id="path3653"
           style="opacity:1;fill:none;fill-opacity:1;stroke:#000000;stroke-width:1;stroke-linecap:round;stroke-linejoin:miter;stroke-miterlimit:4;stroke-dasharray:none;stroke-dashoffset:0;stroke-opacity:1" />
        <path
           inkscape:connector-curvature="0"
           d="m 69.400903,94.978258 c 1.056251,-0.408828 2.033614,-0.971126 2.909557,-1.68638 0.41823,-0.367876 0.779986,-0.799197 1.066927,-1.276598 0.0013,-0.0047 0.0024,-0.0094 0.0038,-0.0141 0.118205,0.124741 0.291325,0.214451 0.354613,0.374222 0.03667,0.09258 -0.06533,0.188209 -0.09406,0.283554 -0.139552,0.463015 -0.232871,0.931423 -0.321189,1.406342 -0.202549,1.233324 -0.123428,2.481996 0.01955,3.71592 0.07286,0.677635 0.257016,1.352206 0.0851,2.024298 0.0016,0.01058 -0.01341,0.01275 -0.01498,0.0021 v 0 c -0.359457,-0.59209 -0.465839,-1.289952 -0.584472,-1.963991 -0.16323,-1.286256 -0.233249,-2.591131 -0.01434,-3.876569 0.03406,-0.170852 0.356143,-1.709457 0.484598,-1.772994 0.153344,-0.07585 0.343328,-0.03121 0.513133,-0.01037 0.02529,0.0031 -0.02125,0.04629 -0.03188,0.06944 -0.311603,0.52831 -0.703403,1.003943 -1.16966,1.404385 -0.918191,0.742561 -1.937186,1.33196 -3.041552,1.756468 -0.30816,0.116777 -0.473308,-0.319027 -0.165147,-0.435803 z"
           id="path3655"
           style="opacity:1;fill:none;fill-opacity:1;stroke:#000000;stroke-width:1;stroke-linecap:round;stroke-linejoin:miter;stroke-miterlimit:4;stroke-dasharray:none;stroke-dashoffset:0;stroke-opacity:1" />
      </g>
    </g>
    <g
       id="g3713"
       transform="rotate(-92.906353,189.43006,52.951638)">
      <path
         style="opacity:1;fill:none;fill-opacity:1;stroke:#000000;stroke-width:1;stroke-linecap:round;stroke-linejoin:miter;stroke-miterlimit:4;stroke-dasharray:none;stroke-dashoffset:0;stroke-opacity:1"
         id="path3743"
         d="m 68.807491,-266.58545 c -2.490624,-0.32852 -4.994251,-0.54238 -7.497469,-0.74709 -3.386839,-0.29849 -6.783874,-0.40833 -10.182193,-0.34158 -1.626237,0.0604 -3.256525,0.11523 -4.871731,0.32539 -0.06555,0.17376 -1.510408,0.14818 -0.153554,-0.25503 0.01065,-0.003 0.802021,0.3673 0.897423,0.4117 1.460365,0.66463 2.588653,1.71246 3.505948,3.00725 0.907158,1.45865 1.271319,3.10273 1.284993,4.80061 -0.103271,1.28271 -0.39794,2.42116 -1.581249,3.07472 -1.540856,0.2884 -2.23974,-1.32553 -2.753887,-2.49054 -0.701578,-1.7903 -0.863563,-3.70091 -0.902734,-5.60401 0.0099,-1.2219 0.02853,-2.45387 0.240785,-3.66039 0.01407,-0.23548 0.08492,-0.35685 -0.08909,-0.52304 -0.0096,-0.008 0.0011,-0.0211 0.01065,-0.0136 v 0 c 0.224709,0.1471 0.401387,0.24447 0.433758,0.54195 0.16413,1.20366 -0.05295,2.43281 0.01025,3.64261 0.03741,1.82532 0.186159,3.65956 0.829472,5.38611 0.361804,0.85689 0.847072,2.27307 1.978935,2.25061 0.990286,-0.45579 1.201535,-1.60795 1.285422,-2.60027 -0.01169,-1.58565 -0.356947,-3.12209 -1.197931,-4.48659 -0.857373,-1.21857 -1.919977,-2.19075 -3.295618,-2.80461 -0.167074,-0.0764 -0.333567,-0.15407 -0.50122,-0.22918 -0.138166,-0.0619 -0.321598,-0.0636 -0.416205,-0.18183 -0.654483,-0.81767 -0.171432,-0.71178 0.346839,-0.81572 1.636504,-0.18671 3.282349,-0.26719 4.928185,-0.31839 3.416772,-0.0658 6.832029,0.0521 10.236486,0.36018 2.513893,0.21443 5.028656,0.44904 7.522716,0.83725 0.30652,0.0488 0.237523,0.48227 -0.06899,0.43348 z"
         inkscape:connector-curvature="0" />
      <path
         style="opacity:1;fill:none;fill-opacity:1;stroke:#000000;stroke-width:1;stroke-linecap:round;stroke-linejoin:miter;stroke-miterlimit:4;stroke-dasharray:none;stroke-dashoffset:0;stroke-opacity:1"
         id="path3745"
         d="m 45.484208,-255.30727 c -0.121427,1.66767 0.328443,3.23105 1.066978,4.70551 0.709123,1.2664 1.776752,2.19496 3.010178,2.92279 0.316617,0.16916 0.645519,0.31405 0.982674,0.43685 0.0796,0.029 0.292178,-0.002 0.244748,0.0685 -0.121219,0.17939 -0.277613,0.33232 -0.416418,0.49848 -1.247362,-0.26329 -2.512054,-0.43815 -3.771971,-0.62977 -1.506745,-0.23546 -3.016293,-0.45161 -4.531098,-0.62817 -0.677226,-0.0881 -1.372752,-0.0966 -2.030619,-0.29401 -0.229497,-0.24335 -0.104539,-0.16849 -0.348151,-0.26412 -0.01162,-0.004 -0.0063,-0.0202 0.0053,-0.0165 v 0 c 0.237314,0.0606 0.114036,0.0728 0.354959,-0.11007 0.691622,-0.16609 1.400128,-0.10371 2.100006,-0.0146 1.523942,0.17772 3.04273,0.39507 4.557217,0.64068 1.285297,0.20743 2.579519,0.39542 3.839643,0.72799 0.04618,0.22126 0.142808,0.43781 0.138527,0.6638 -9.4e-5,0.005 -0.424196,-0.11246 -0.623241,-0.19513 -0.363722,-0.15107 -0.427501,-0.19562 -0.800754,-0.38966 -1.305011,-0.80835 -2.454721,-1.80684 -3.206074,-3.17091 -0.776359,-1.57148 -1.246792,-3.23511 -1.08345,-5.00692 0.03903,-0.3617 0.550556,-0.3065 0.511518,0.0552 z"
         inkscape:connector-curvature="0" />
    </g>
  </g>
</svg>
