<?xml version="1.0" encoding="UTF-8" standalone="no"?>
<!-- Created with Inkscape (http://www.inkscape.org/) -->

<svg
   xmlns:dc="http://purl.org/dc/elements/1.1/"
   xmlns:cc="http://creativecommons.org/ns#"
   xmlns:rdf="http://www.w3.org/1999/02/22-rdf-syntax-ns#"
   xmlns:svg="http://www.w3.org/2000/svg"
   xmlns="http://www.w3.org/2000/svg"
   xmlns:sodipodi="http://sodipodi.sourceforge.net/DTD/sodipodi-0.dtd"
   xmlns:inkscape="http://www.inkscape.org/namespaces/inkscape"
   width="187.34756mm"
   height="171.15338mm"
   viewBox="0 0 187.34756 171.15338"
   version="1.1"
   id="svg1578"
   inkscape:version="0.92.2 5c3e80d, 2017-08-06"
   sodipodi:docname="intersection.svg">
  <defs
     id="defs1572" />
  <sodipodi:namedview
     id="base"
     pagecolor="#ffffff"
     bordercolor="#666666"
     borderopacity="1.0"
     inkscape:pageopacity="0.0"
     inkscape:pageshadow="2"
     inkscape:zoom="0.7"
     inkscape:cx="428.25997"
     inkscape:cy="281.10567"
     inkscape:document-units="mm"
     inkscape:current-layer="layer1"
     showgrid="false"
     fit-margin-top="0"
     fit-margin-left="0"
     fit-margin-right="0"
     fit-margin-bottom="0" />
  <metadata
     id="metadata1575">
    <rdf:RDF>
      <cc:Work
         rdf:about="">
        <dc:format>image/svg+xml</dc:format>
        <dc:type
           rdf:resource="http://purl.org/dc/dcmitype/StillImage" />
        <dc:title></dc:title>
      </cc:Work>
    </rdf:RDF>
  </metadata>
  <g
     inkscape:label="Layer 1"
     inkscape:groupmode="layer"
     id="layer1"
     transform="translate(-6.549999,-53.204869)">
    <path
       style="opacity:1;fill:none;fill-opacity:1;stroke:#000000;stroke-width:1;stroke-linecap:round;stroke-linejoin:miter;stroke-miterlimit:4;stroke-dasharray:none;stroke-dashoffset:0;stroke-opacity:1"
       id="path2123"
       d="m 41.054676,84.381048 c -0.02082,2.818889 -0.03065,5.63767 -0.02474,8.456636 -0.0042,6.01131 -0.151646,12.021116 -0.206581,18.032006 -0.06139,6.46571 0.129654,12.92893 0.503899,19.38303 0.247549,3.99554 0.740444,7.97029 0.997225,11.96484 0.03604,1.30399 0.0762,0.70358 -0.07324,1.80377 7.94e-4,0.0107 -0.01426,0.0118 -0.01508,0.001 v 0 c -0.312981,-1.05939 -0.1763,-0.47557 -0.371118,-1.7601 -0.521147,-3.97687 -0.914448,-7.97022 -1.17929,-11.9725 -0.374097,-6.46846 -0.56497,-12.9465 -0.484627,-19.4265 0.06721,-6.00971 0.22275,-12.017784 0.283361,-18.02758 0.02548,-2.821241 0.04881,-5.643057 0.154815,-8.4627 0.0056,-0.293717 0.421003,-0.285758 0.415375,0.008 z"
       inkscape:connector-curvature="0" />
    <path
       style="opacity:1;fill:none;fill-opacity:1;stroke:#000000;stroke-width:1;stroke-linecap:round;stroke-linejoin:miter;stroke-miterlimit:4;stroke-dasharray:none;stroke-dashoffset:0;stroke-opacity:1"
       id="path2129"
       d="m 39.646484,84.207026 c 4.169563,0.1387 8.34287,0.04141 12.512942,-0.02201 8.477821,-0.144918 16.955635,-0.290275 25.433427,-0.436838 7.271933,-0.12555 14.543915,-0.258334 21.816988,-0.288345 2.676159,0.135085 5.437659,-0.197602 8.083809,0.34458 0.45658,0.20389 0.25524,0.103126 0.60874,0.292682 0.01,0.0039 0.004,0.01799 -0.006,0.01408 v 0 c -0.36919,-0.09487 -0.15979,-0.06254 -0.63253,-0.06293 -2.68295,-0.09265 -5.36827,-0.09069 -8.052465,-0.09909 -7.270993,0.02998 -14.540954,0.160044 -21.810828,0.284588 -8.478407,0.13902 -16.956911,0.271701 -25.43555,0.39587 -4.178159,0.0503 -8.360928,0.141716 -12.537357,-0.03155 -0.276493,-0.01299 -0.258133,-0.404 0.01836,-0.391017 z"
       inkscape:connector-curvature="0" />
    <path
       style="opacity:1;fill:none;fill-opacity:1;stroke:#000000;stroke-width:1;stroke-linecap:round;stroke-linejoin:miter;stroke-miterlimit:4;stroke-dasharray:none;stroke-dashoffset:0;stroke-opacity:1"
       id="path2135"
       d="m 106.87982,83.96026 c 0.12562,2.963489 -0.1441,5.928653 -0.32981,8.884309 -0.4286,6.378765 -0.61275,12.769231 -0.75095,19.159691 -0.1309,6.83308 -0.29005,13.66561 -0.53092,20.49575 -0.16275,4.15926 -0.34843,8.34004 -1.21766,12.42098 -0.43822,1.32286 -0.22549,0.7121 -0.63069,1.83487 -0.003,0.0102 -0.0177,0.006 -0.0144,-0.005 v 0 c 0.32083,-1.13823 0.18207,-0.51526 0.37918,-1.8768 0.5637,-4.10877 0.82114,-8.24919 0.95691,-12.393 0.2408,-6.82791 0.39903,-13.65821 0.54144,-20.48882 0.15017,-6.39719 0.33946,-12.794906 0.78803,-19.179463 0.20089,-2.94037 0.4684,-5.884664 0.43597,-8.834398 -0.0131,-0.263676 0.35981,-0.282173 0.37289,-0.01849 z"
       inkscape:connector-curvature="0" />
    <path
       style="opacity:1;fill:none;fill-opacity:1;stroke:#000000;stroke-width:1;stroke-linecap:round;stroke-linejoin:miter;stroke-miterlimit:4;stroke-dasharray:none;stroke-dashoffset:0;stroke-opacity:1"
       id="path2137"
       d="m 39.53057,141.16533 c -0.911807,-0.15056 -1.825654,-0.28623 -2.74293,-0.39872 -0.59291,-0.10508 -0.636418,0.18443 -0.430525,-0.33726 1.58854,0.0904 3.182895,0.0182 4.771919,-0.027 5.324203,-0.21278 10.650445,-0.3535 15.977661,-0.46294 7.717004,-0.1442 15.434262,-0.27426 23.151393,-0.41167 4.887587,-0.0782 9.773772,-0.21215 14.658562,-0.39277 0.996376,-0.0386 1.98713,-0.0987 2.979068,0.0185 0.01066,-7.9e-4 0.01185,0.0142 0.0011,0.0151 v 0 c -0.967066,0.27145 -1.963939,0.30537 -2.962921,0.36413 -4.886084,0.24524 -9.776552,0.36218 -14.667997,0.43998 -7.71679,0.13662 -15.433752,0.26266 -23.150475,0.40279 -5.326404,0.10605 -10.651702,0.24403 -15.975777,0.4352 -1.617723,0.0388 -3.246144,0.11278 -4.860772,-0.0215 -0.06292,-0.12292 -0.155532,-0.23473 -0.188756,-0.36876 -0.0087,-0.0349 0.724675,-0.0502 0.740008,0.0181 0.922049,0.12616 1.840312,0.28154 2.749529,0.48099 0.17386,0.0348 0.124685,0.28065 -0.04918,0.24588 z"
       inkscape:connector-curvature="0" />
    <path
       style="opacity:1;fill:none;fill-opacity:1;stroke:#000000;stroke-width:1;stroke-linecap:round;stroke-linejoin:miter;stroke-miterlimit:4;stroke-dasharray:none;stroke-dashoffset:0;stroke-opacity:1"
       id="path2139"
       d="m 74.114611,114.77724 c 0.425771,3.82811 0.270518,7.69789 0.180798,11.54033 -0.248311,7.44974 -0.542435,14.89736 -0.716473,22.34937 -0.152601,7.1407 -0.09634,14.28326 -0.149799,21.42485 -0.0923,4.07109 -0.135271,8.15857 -0.611746,12.20739 -0.03104,0.26736 -0.06208,0.53471 -0.09312,0.80206 -5.29e-4,0.0107 -0.01558,0.01 -0.01511,-7.9e-4 v 0 c -0.0067,-0.26909 -0.01344,-0.53817 -0.02016,-0.80726 -0.103986,-4.06836 0.198461,-8.13657 0.175122,-12.20557 0.04925,-7.14474 -0.0053,-14.29053 0.155112,-21.43422 0.183685,-7.45212 0.488712,-14.89951 0.761159,-22.34875 0.100899,-3.81886 0.258175,-7.65504 -0.07012,-11.46711 -0.04271,-0.2859 0.361612,-0.3463 0.404323,-0.0604 z"
       inkscape:connector-curvature="0" />
    <path
       style="opacity:1;fill:none;fill-opacity:1;stroke:#000000;stroke-width:1;stroke-linecap:round;stroke-linejoin:miter;stroke-miterlimit:4;stroke-dasharray:none;stroke-dashoffset:0;stroke-opacity:1"
       id="path2141"
       d="m 75.552275,113.95484 c 3.099684,-0.36392 6.232747,-0.35274 9.349388,-0.40364 7.65301,-0.0946 15.305847,-0.20218 22.958827,-0.29944 9.86997,-0.12847 19.74036,-0.21488 29.61114,-0.2351 6.89785,0.005 13.80088,0.0534 20.68103,0.58545 1.2577,0.0706 2.48629,0.32429 3.70831,0.60866 0.0105,0.002 0.008,0.0169 -0.003,0.0148 v 0 c -1.23542,-0.18505 -2.47889,-0.21711 -3.72589,-0.28733 -6.8826,-0.30366 -13.76935,-0.49121 -20.65965,-0.453 -9.86916,0.0202 -19.73802,0.10155 -29.60652,0.21661 -7.65271,0.0924 -15.305311,0.19257 -22.958162,0.2721 -3.096519,0.0409 -6.208075,0.0175 -9.290608,0.34661 -0.258638,0.046 -0.323665,-0.31979 -0.06503,-0.36577 z"
       inkscape:connector-curvature="0" />
    <path
       style="opacity:1;fill:none;fill-opacity:1;stroke:#000000;stroke-width:1;stroke-linecap:round;stroke-linejoin:miter;stroke-miterlimit:4;stroke-dasharray:none;stroke-dashoffset:0;stroke-opacity:1"
       id="path2143"
       d="m 163.87891,115.10328 c -0.004,2.54816 -0.25479,5.08568 -0.51951,7.61717 -0.63145,5.21824 -1.45536,10.40939 -2.09483,15.62682 -0.68978,5.81749 -0.95667,11.67184 -1.12077,17.52405 -0.10695,3.71806 -0.0788,7.43732 -0.0327,11.15593 -0.0747,1.09054 0.27894,2.33118 -0.25171,3.34186 -0.002,0.0104 -0.017,0.007 -0.0148,-0.003 v 0 c -0.0939,-1.1075 -0.17671,-2.21643 -0.22231,-3.32708 -0.13042,-3.72627 -0.10067,-7.45542 -0.0108,-11.18249 0.16547,-5.86894 0.43503,-11.73978 1.13705,-17.57292 0.65095,-5.2143 1.50793,-10.39792 2.16843,-15.61074 0.28056,-2.51963 0.54183,-5.04245 0.63301,-7.57744 0.006,-0.23259 0.33461,-0.22456 0.32893,0.008 z"
       inkscape:connector-curvature="0" />
    <path
       style="opacity:1;fill:none;fill-opacity:1;stroke:#000000;stroke-width:1;stroke-linecap:round;stroke-linejoin:miter;stroke-miterlimit:4;stroke-dasharray:none;stroke-dashoffset:0;stroke-opacity:1"
       id="path2145"
       d="m 77.840913,178.24566 c 2.092362,-0.49084 4.247298,-0.62679 6.384531,-0.78112 4.840319,-0.29142 9.68644,-0.47251 14.532427,-0.63785 7.211209,-0.23565 14.426479,-0.26936 21.640799,-0.24405 6.86291,0.012 13.7212,0.2507 20.5718,0.64697 3.85529,0.23473 7.70237,0.58349 11.5577,0.81653 0.51505,-0.10219 1.80542,0.29235 2.2945,0.0213 0.10153,-0.0364 0.0446,-0.009 0.16309,-0.0959 0.001,-0.0106 0.0164,-0.009 0.015,0.002 v 0 c 0.0955,0.22316 0.083,0.10566 0.0272,0.35345 -0.64458,0.55663 -1.78037,0.0733 -2.52625,0.16044 -3.85523,-0.22935 -7.70185,-0.58068 -11.55685,-0.815 -6.8426,-0.39585 -13.6928,-0.64222 -20.54777,-0.65619 -7.20903,-0.0274 -14.41881,0.0106 -21.625011,0.2342 -4.841261,0.15933 -9.682207,0.33941 -14.518642,0.61162 -2.116418,0.14516 -4.249124,0.27743 -6.323304,0.74998 -0.259037,0.0631 -0.34825,-0.30325 -0.08921,-0.36633 z"
       inkscape:connector-curvature="0" />
    <path
       style="opacity:1;fill:none;fill-opacity:1;stroke:#000000;stroke-width:1;stroke-linecap:round;stroke-linejoin:miter;stroke-miterlimit:4;stroke-dasharray:none;stroke-dashoffset:0;stroke-opacity:1"
       id="path2147"
       d="m 81.786856,115.28145 c -1.679197,1.51006 -3.236362,3.14641 -4.709057,4.8565 -0.916432,1.20293 -2.015479,2.41337 -2.407041,3.91125 -0.0087,0.11512 -0.01738,0.23023 -0.02609,0.34535 -2.65e-4,0.0107 -0.01548,0.0102 -0.01511,-5.3e-4 v 0 c -5.29e-4,-0.11785 -0.0013,-0.23569 -0.0019,-0.35354 0.245062,-1.67696 1.113531,-2.84706 2.145943,-4.16108 1.463558,-1.74413 3.041004,-3.38833 4.735184,-4.91111 0.221438,-0.1966 0.499473,0.11656 0.278035,0.31316 z"
       inkscape:connector-curvature="0" />
    <path
       style="opacity:1;fill:none;fill-opacity:1;stroke:#000000;stroke-width:1;stroke-linecap:round;stroke-linejoin:miter;stroke-miterlimit:4;stroke-dasharray:none;stroke-dashoffset:0;stroke-opacity:1"
       id="path2149"
       d="m 87.670901,116.54458 c -1.313482,1.68828 -2.787489,3.24054 -4.262707,4.78612 -1.812513,1.85086 -3.545269,3.77516 -5.213377,5.75643 -0.194006,0.22515 -0.388011,0.4503 -0.582017,0.67545 -0.0063,0.009 -0.01852,-2.6e-4 -0.01217,-0.009 v 0 c 0.158284,-0.25282 0.316571,-0.50564 0.474856,-0.75847 1.50073,-2.12909 3.245183,-4.05947 5.075078,-5.91067 1.47346,-1.53959 2.931594,-3.09304 4.310955,-4.71835 0.126195,-0.14806 0.335576,0.0304 0.20938,0.17847 z"
       inkscape:connector-curvature="0" />
    <path
       style="opacity:1;fill:none;fill-opacity:1;stroke:#000000;stroke-width:1;stroke-linecap:round;stroke-linejoin:miter;stroke-miterlimit:4;stroke-dasharray:none;stroke-dashoffset:0;stroke-opacity:1"
       id="path2151"
       d="m 96.455139,115.26548 c -1.805456,1.51274 -3.508513,3.14004 -5.195562,4.782 -2.62105,2.54196 -5.116028,5.20699 -7.544374,7.93218 -1.498018,1.75361 -3.053265,3.4709 -4.412951,5.33695 -0.0059,0.009 -0.01852,5.2e-4 -0.01262,-0.008 v 0 c 1.186545,-1.99895 2.612806,-3.82952 4.152003,-5.57061 2.414754,-2.75034 4.928219,-5.41181 7.556019,-7.96038 1.700067,-1.64176 3.411259,-3.28172 5.282676,-4.72996 0.154252,-0.12361 0.329067,0.0945 0.174815,0.21814 z"
       inkscape:connector-curvature="0" />
    <path
       style="opacity:1;fill:none;fill-opacity:1;stroke:#000000;stroke-width:1;stroke-linecap:round;stroke-linejoin:miter;stroke-miterlimit:4;stroke-dasharray:none;stroke-dashoffset:0;stroke-opacity:1"
       id="path2153"
       d="m 98.66446,118.84181 c -1.880127,1.92505 -3.817337,3.79284 -5.703554,5.71216 -2.242016,2.30468 -4.349509,4.73531 -6.375252,7.23086 -0.631936,0.81687 -1.275487,1.62519 -1.894705,2.45177 -0.0057,0.009 -0.01849,10e-4 -0.01278,-0.008 v 0 c 0.484081,-0.92321 1.007964,-1.82145 1.658202,-2.64107 1.973032,-2.55509 4.112299,-4.97677 6.361578,-7.29225 1.889344,-1.91771 3.815159,-3.79815 5.764897,-5.65444 0.142161,-0.14257 0.343781,0.0585 0.201621,0.20104 z"
       inkscape:connector-curvature="0" />
    <path
       style="opacity:1;fill:none;fill-opacity:1;stroke:#000000;stroke-width:1;stroke-linecap:round;stroke-linejoin:miter;stroke-miterlimit:4;stroke-dasharray:none;stroke-dashoffset:0;stroke-opacity:1"
       id="path2155"
       d="m 103.08515,121.74461 c -1.70908,1.83394 -3.502163,3.58764 -5.295326,5.33871 -1.93906,1.88258 -3.863152,3.78053 -5.810559,5.6545 -0.577948,0.57917 -1.222907,1.08417 -1.82159,1.63994 -0.0072,0.008 -0.01836,-0.002 -0.01114,-0.0102 v 0 c 0.504486,-0.64592 1.013891,-1.28826 1.595532,-1.86831 1.886302,-1.93733 3.829114,-3.81796 5.768332,-5.70205 1.789616,-1.74759 3.574671,-3.50004 5.334391,-5.27781 0.15927,-0.16996 0.39963,0.0553 0.24036,0.22524 z"
       inkscape:connector-curvature="0" />
    <path
       style="opacity:1;fill:none;fill-opacity:1;stroke:#000000;stroke-width:1;stroke-linecap:round;stroke-linejoin:miter;stroke-miterlimit:4;stroke-dasharray:none;stroke-dashoffset:0;stroke-opacity:1"
       id="path2157"
       d="m 104.71098,126.97514 c -1.1994,1.59952 -2.59888,3.03709 -3.96073,4.4969 -1.156489,1.15739 -2.120853,2.50205 -3.320095,3.6162 -0.0063,0.009 -0.01852,-2.6e-4 -0.01222,-0.009 v 0 c 0.706088,-1.50375 1.944436,-2.6598 3.032575,-3.88693 1.35419,-1.45159 2.72705,-2.8892 3.9961,-4.41687 0.14113,-0.18695 0.40551,0.0126 0.26437,0.19959 z"
       inkscape:connector-curvature="0" />
    <path
       style="opacity:1;fill:none;fill-opacity:1;stroke:#000000;stroke-width:1;stroke-linecap:round;stroke-linejoin:miter;stroke-miterlimit:4;stroke-dasharray:none;stroke-dashoffset:0;stroke-opacity:1"
       id="path2159"
       d="m 28.866346,207.08273 c 4.352218,-0.12906 8.704585,-0.25041 13.056137,-0.40431 12.180784,-0.49859 24.366103,-0.84628 36.554361,-1.09292 17.059019,-0.34755 34.120576,-0.14904 51.175646,0.27673 13.31099,0.34543 26.60875,1.04304 39.87813,2.14348 3.3119,0.27239 6.61119,0.66239 9.90543,1.09316 0.0106,0.001 0.009,0.0161 -0.002,0.0151 v 0 c -3.31188,-0.23582 -6.62223,-0.49109 -9.93123,-0.76473 -13.2685,-1.00958 -26.5579,-1.72457 -39.86115,-2.0731 -17.04886,-0.42564 -34.104145,-0.6237 -51.156985,-0.2789 -12.186235,0.24659 -24.369493,0.59468 -36.548396,1.08944 -4.348308,0.15078 -8.697219,0.27313 -13.046593,0.38462 -0.274714,0.0169 -0.298553,-0.37165 -0.02384,-0.3885 z"
       inkscape:connector-curvature="0" />
    <path
       style="opacity:1;fill:none;fill-opacity:1;stroke:#000000;stroke-width:1;stroke-linecap:round;stroke-linejoin:miter;stroke-miterlimit:4;stroke-dasharray:none;stroke-dashoffset:0;stroke-opacity:1"
       id="path2161"
       d="m 178.1906,205.32796 c -0.44996,1.28262 -0.73435,2.6119 -0.89504,3.95943 -0.007,0.55817 -0.12924,1.16374 0.0139,1.71646 -0.12815,-0.0832 -0.31002,-0.1162 -0.38446,-0.24964 -0.0527,-0.0945 0.0477,-0.21107 0.0682,-0.31729 0.0274,-0.14194 0.0515,-0.28448 0.0754,-0.42704 0.10289,-0.61351 0.18752,-1.22875 0.26741,-1.8456 0.1386,-1.09152 0.22587,-2.18812 0.28013,-3.28677 0.0362,-0.44408 -0.1049,-0.64795 0.26856,-0.93552 0.8649,0.15021 1.68012,0.61341 2.49048,0.95156 1.6021,0.65746 3.26923,1.13174 4.93692,1.58868 0.66923,0.26373 1.44628,0.26962 2.0962,0.58525 -0.0215,0.1442 0.0129,0.30909 -0.0646,0.43258 -0.0479,0.0764 -0.72737,0.30886 -0.73311,0.31082 -0.74985,0.25604 -1.51359,0.47611 -2.26907,0.71466 -1.95163,0.60862 -3.82171,1.43018 -5.60612,2.42276 -0.72986,0.45872 -1.62626,0.89132 -1.95107,1.74316 -0.002,0.0105 -0.0168,0.008 -0.0149,-0.003 v 0 c 5.3e-4,-1.14213 0.85096,-1.59827 1.72932,-2.16292 1.80782,-1.01988 3.71224,-1.85347 5.70135,-2.4553 0.75349,-0.23052 1.51237,-0.44366 2.26478,-0.67748 0.135,-0.042 0.26907,-0.0869 0.40304,-0.13199 0.0672,-0.0226 0.13641,-0.10165 0.20056,-0.0713 0.0856,0.0405 0.10256,0.15922 0.15384,0.23883 -0.59281,-0.34173 -1.40761,-0.24656 -2.01911,-0.54624 -1.68717,-0.45551 -3.37721,-0.91802 -5.00255,-1.56709 -0.72355,-0.29673 -1.47993,-0.61003 -2.17531,-0.93407 0.0304,-0.0443 0.0813,-0.19467 0.0781,-0.14103 -0.0129,0.21945 0.009,0.44188 -0.016,0.6611 -0.0574,1.11068 -0.15253,2.21896 -0.29113,3.3226 -0.0809,0.62387 -0.16601,1.24628 -0.26991,1.86681 -0.0119,0.0708 -0.13189,0.7717 -0.15312,0.79205 -0.13594,0.13035 -0.34644,0.14787 -0.51966,0.22181 -0.1224,-0.61414 -0.0626,-1.25432 -0.0249,-1.87304 0.16589,-1.38253 0.4582,-2.74642 0.92012,-4.06237 0.11228,-0.31233 0.55397,-0.15355 0.4417,0.15878 z"
       inkscape:connector-curvature="0" />
    <path
       style="opacity:1;fill:none;fill-opacity:1;stroke:#000000;stroke-width:1;stroke-linecap:round;stroke-linejoin:miter;stroke-miterlimit:4;stroke-dasharray:none;stroke-dashoffset:0;stroke-opacity:1"
       id="path2163"
       d="m 181.84786,220.1154 c 0.98834,-0.73803 2.08729,-1.31121 3.2362,-1.7529 1.10938,-0.37241 1.41499,0.10266 1.25438,1.17223 -0.30019,1.05872 -0.78667,2.05213 -1.2212,3.0601 -0.0659,0.31087 -0.33364,0.6002 -0.35375,0.92484 -0.004,0.0676 -0.0475,-0.1276 -0.082,-0.18585 0.67435,-0.54718 1.34411,-1.20841 1.97969,-1.82866 0.66885,-0.66853 1.32728,-1.34924 1.93586,-2.07359 0.18711,-0.21814 0.24783,-0.48769 0.42455,0.16183 0.0144,0.0531 -0.0796,0.0762 -0.11557,0.11772 -0.0544,0.0628 -0.10358,0.12998 -0.15536,0.19497 -0.46511,0.63037 -0.47922,1.26373 -0.0714,1.9144 0.85919,0.88929 2.13677,1.0904 3.3025,1.30303 0.48172,0.0507 0.94565,0.18443 1.40801,0.32067 0.0107,2e-4 0.0104,0.0153 -2.6e-4,0.0151 v 0 c -0.48837,0.11971 -0.96927,0.18523 -1.4749,0.11271 -1.34811,-0.16022 -2.76785,-0.39523 -3.69869,-1.48095 -0.53082,-0.95848 -0.48738,-1.60969 0.13509,-2.51171 0.006,-0.007 0.33313,-0.42504 0.40064,-0.41773 0.76489,0.0828 0.43374,0.32777 0.22094,0.59228 -0.6328,0.72198 -1.30259,1.4108 -1.98094,2.08984 -0.66638,0.65023 -1.52073,1.66412 -2.41016,1.95584 -0.088,-0.0694 -0.20026,-0.11612 -0.26404,-0.20832 -0.19594,-0.28324 0.35542,-0.9199 0.36506,-1.18282 0.41566,-0.97509 0.8842,-1.9336 1.18715,-2.95165 0.12904,-0.68924 0.22238,-0.9235 -0.61602,-0.65857 -1.1009,0.43359 -2.15748,0.98492 -3.10903,1.69228 -0.26524,0.20978 -0.56191,-0.16532 -0.29667,-0.3751 z"
       inkscape:connector-curvature="0" />
    <path
       style="opacity:1;fill:none;fill-opacity:1;stroke:#000000;stroke-width:1;stroke-linecap:round;stroke-linejoin:miter;stroke-miterlimit:4;stroke-dasharray:none;stroke-dashoffset:0;stroke-opacity:1"
       id="path2165"
       d="m 26.414869,75.630785 c 0.451377,3.459051 0.851983,6.924212 1.219868,10.393037 0.878594,8.550415 1.173657,17.145768 1.481965,25.731228 0.459936,12.84618 0.653484,25.6991 0.664012,38.55289 0.01561,12.08407 -0.559017,24.15477 -1.320671,36.21108 -0.382516,6.5951 -1.102963,13.20681 -0.567515,19.81137 0.09229,0.44326 0.184576,0.88652 0.276865,1.32978 0.0024,0.0105 -0.01249,0.0137 -0.01476,0.003 v 0 c -0.101905,-0.44257 -0.203809,-0.88514 -0.305713,-1.32771 -0.103558,-0.63945 -0.242586,-1.27416 -0.310677,-1.91836 -0.185237,-1.75254 -0.193286,-3.80393 -0.165645,-5.54313 0.0657,-4.1337 0.381328,-8.25838 0.614908,-12.38425 0.721061,-12.04811 1.291772,-24.10819 1.275839,-36.18159 -0.01048,-12.84802 -0.207587,-25.69477 -0.645988,-38.53582 -0.292809,-8.57595 -0.579376,-17.160418 -1.415759,-25.704496 -0.340571,-3.470765 -0.721405,-6.93764 -1.040112,-10.410441 -0.01896,-0.179176 0.234431,-0.205989 0.253391,-0.02682 z"
       inkscape:connector-curvature="0" />
    <path
       style="opacity:1;fill:none;fill-opacity:1;stroke:#000000;stroke-width:1;stroke-linecap:round;stroke-linejoin:miter;stroke-miterlimit:4;stroke-dasharray:none;stroke-dashoffset:0;stroke-opacity:1"
       id="path2167"
       d="m 25.555081,73.091386 c 1.706469,-0.286322 3.417087,-0.556408 5.141467,-0.706866 0.752586,-0.0034 0.409368,0.01894 1.030737,-0.04742 0.01058,-0.0016 0.01267,0.01349 0.0021,0.01498 v 0 c -0.615199,0.106487 -0.279945,0.03184 -1.000657,0.2457 -1.689547,0.36463 -3.397123,0.633571 -5.10217,0.914492 -0.297608,0.05054 -0.369079,-0.370345 -0.07147,-0.42088 z"
       inkscape:connector-curvature="0" />
    <path
       style="opacity:1;fill:none;fill-opacity:1;stroke:#000000;stroke-width:1;stroke-linecap:round;stroke-linejoin:miter;stroke-miterlimit:4;stroke-dasharray:none;stroke-dashoffset:0;stroke-opacity:1"
       id="path2169"
       d="m 23.264313,74.100324 c 1.209826,-1.56129 2.329732,-3.184454 3.390444,-4.849786 0.969367,-1.534917 1.821016,-3.138456 2.58259,-4.785191 0.856496,-1.772041 0.594627,1.326801 0.592381,1.462511 -0.01937,1.495711 0.258768,2.966006 0.60013,4.414888 0.223526,1.064345 0.709094,2.060361 0.889077,3.132838 0.02418,0.09945 0.04836,0.198896 0.07254,0.298342 0.0042,0.0098 -0.0098,0.01574 -0.01392,0.0059 v 0 c -0.05467,-0.08685 -0.10935,-0.173696 -0.164023,-0.260543 -0.646436,-0.909402 -0.938017,-2.007386 -1.223971,-3.072641 -0.351104,-1.485823 -0.629269,-2.993704 -0.601781,-4.527822 0.003,-0.122288 0.0013,-1.423048 0.06503,-1.507979 0.08332,-0.111223 0.249325,-0.131316 0.385609,-0.158504 0.145564,-0.02904 -0.837737,0.680103 -0.20914,0.393125 -0.762,1.668725 -1.627068,3.287316 -2.60831,4.83852 -1.066935,1.672466 -2.184765,3.310591 -3.429902,4.857073 -0.170219,0.231053 -0.496976,-0.0097 -0.326757,-0.240726 z"
       inkscape:connector-curvature="0" />
    <path
       style="opacity:1;fill:none;fill-opacity:1;stroke:#000000;stroke-width:1;stroke-linecap:round;stroke-linejoin:miter;stroke-miterlimit:4;stroke-dasharray:none;stroke-dashoffset:0;stroke-opacity:1"
       id="path2171"
       d="m 10.245627,54.019034 c -0.4065244,1.169823 -0.6384594,2.383279 -0.39746,3.60811 0.315492,0.892415 1.04348,1.175027 1.928264,1.072739 0.933467,-0.211328 1.472104,-0.894336 1.903227,-1.695995 0.332066,-0.714689 0.503366,-1.484431 0.611348,-2.260732 -0.10895,-0.521787 0.494901,-0.664411 0.453998,0.113168 0.01208,1.350314 0.139395,2.696067 0.192324,4.045212 0.08686,1.719921 -0.160707,3.370368 -0.931569,4.911161 -0.803896,1.324607 -2.050091,2.128988 -3.478102,2.639817 -1.0641307,0.327395 -2.0786532,0.294873 -2.9666044,-0.401572 -0.5142312,-0.607483 -0.7391903,-1.201809 -0.2130502,-1.866079 0.00441,-0.0097 0.018182,-0.0035 0.013774,0.0062 v 0 c -0.076379,0.529442 0.1800614,1.067842 0.516613,1.464389 0.7266138,0.60117 1.6052416,0.582472 2.4880386,0.338953 1.31599,-0.454983 2.465934,-1.187673 3.215318,-2.395652 0.745088,-1.463585 0.968934,-3.041531 0.889894,-4.679008 -0.05334,-1.363525 -0.181637,-2.723978 -0.186816,-4.088815 0.04921,-0.857017 0.7084,-0.704675 0.477977,-0.0245 -0.108198,0.835167 -0.302032,1.660411 -0.660501,2.426689 -0.515186,0.942451 -1.175497,1.718038 -2.279325,1.942328 -1.136466,0.09537 -2.0486055,-0.31686 -2.4192984,-1.464173 -0.2390696,-1.307438 -0.024125,-2.596102 0.4187597,-3.843605 0.1070084,-0.299241 0.5301997,-0.14791 0.4231907,0.151332 z"
       inkscape:connector-curvature="0" />
    <path
       style="opacity:1;fill:none;fill-opacity:1;stroke:#000000;stroke-width:1;stroke-linecap:round;stroke-linejoin:miter;stroke-miterlimit:4;stroke-dasharray:none;stroke-dashoffset:0;stroke-opacity:1"
       id="path2192"
       d="m 47.857809,92.299543 c -0.223935,1.811586 -0.267102,3.631956 -0.166651,5.452615 0.09013,1.229651 0.271495,2.452242 0.602086,3.640632 0.07621,0.15571 0.0751,0.38175 0.19658,0.51878 0.01696,0.0191 -0.02985,-0.05 -0.02058,-0.0739 0.01381,-0.0356 0.06004,-0.0471 0.09006,-0.0707 0.727197,-0.61082 1.376167,-1.3063 2.092997,-1.930302 0.717812,-0.610299 1.502108,-0.988733 2.449661,-0.864217 0.811493,0.237514 1.172376,0.850638 1.122915,1.664049 -0.363479,1.13749 -1.413322,1.81168 -2.377776,2.4128 -0.787265,0.44956 -1.620808,0.82629 -2.500408,1.05213 -0.238654,0.0273 -0.136292,0.0124 -0.307723,0.0401 -0.115123,0.0528 -0.189765,-0.11003 -0.07464,-0.16281 v 0 c 0.158422,-0.11904 0.0672,-0.0572 0.278244,-0.17853 0.799449,-0.35371 1.619308,-0.66798 2.366224,-1.12978 0.838263,-0.53232 1.775566,-1.11379 2.161048,-2.07431 0.07405,-0.56543 -0.175927,-0.994034 -0.732251,-1.176639 -0.805987,-0.129675 -1.475078,0.256111 -2.081014,0.764799 -0.740957,0.65228 -1.401778,1.39011 -2.169665,2.00998 -0.701349,0.31752 -0.786355,-0.10651 -0.951947,-0.67555 -0.33225,-1.22256 -0.52342,-2.477416 -0.614309,-3.74086 -0.100256,-1.846202 -0.06015,-3.693866 0.183919,-5.529188 0.03594,-0.320488 0.489175,-0.269666 0.45324,0.05082 z"
       inkscape:connector-curvature="0" />
    <path
       style="opacity:1;fill:none;fill-opacity:1;stroke:#000000;stroke-width:1;stroke-linecap:round;stroke-linejoin:miter;stroke-miterlimit:4;stroke-dasharray:none;stroke-dashoffset:0;stroke-opacity:1"
       id="path2194"
       d="m 55.404178,102.74625 c 1.050269,-0.63299 2.054947,-1.32988 2.985569,-2.12838 0.623493,-0.57371 1.1694,-1.225023 1.638765,-1.929235 0.02392,-0.02736 0.361649,-0.630968 0.36653,-0.628134 0.166262,0.09654 0.300355,0.240072 0.450536,0.360108 -0.03265,0.886431 -0.127823,1.769461 -0.183145,2.654821 -0.07239,0.70971 0.03807,1.41683 0.04656,2.12556 -0.09063,0.32532 -0.08918,0.1718 -0.03511,0.45926 0.0028,0.0103 -0.0118,0.0143 -0.0146,0.004 v 0 c -0.09901,-0.27918 -0.02215,-0.1417 -0.256368,-0.39695 -0.301146,-0.70728 -0.305697,-1.46564 -0.251296,-2.22414 0.05585,-0.87133 0.143372,-1.740052 0.202938,-2.610883 0.793964,-0.201084 0.34059,-0.02731 0.07699,0.527333 -0.499041,0.736557 -1.07251,1.42115 -1.730047,2.02244 -0.951177,0.81266 -1.975612,1.5241 -3.049074,2.16697 -0.284756,0.17553 -0.532998,-0.22717 -0.248243,-0.40271 z"
       inkscape:connector-curvature="0" />
    <path
       style="opacity:1;fill:none;fill-opacity:1;stroke:#000000;stroke-width:1;stroke-linecap:round;stroke-linejoin:miter;stroke-miterlimit:4;stroke-dasharray:none;stroke-dashoffset:0;stroke-opacity:1"
       id="path2196"
       d="m 136.02857,153.6846 c -0.45055,1.68537 -0.81652,3.38984 -1.10227,5.11041 -0.12331,1.11018 -0.36133,2.28814 -0.0503,3.38864 0.21326,0.40309 0.764,0.0345 1.06159,-0.0991 0.89968,-0.47866 1.79466,-0.9544 2.75471,-1.30101 0.73731,-0.25396 1.44793,-0.33644 2.07577,0.17602 0.51253,0.58927 0.41382,1.20536 -0.0402,1.78403 -0.75077,0.67333 -1.74658,0.87962 -2.71327,1.03252 -0.63643,0.0551 -1.29458,0.14376 -1.92859,0.0194 -0.13967,-0.0587 -0.0864,-0.0147 -0.16796,-0.12142 -0.047,-0.005 -0.0397,-0.0716 0.007,-0.0664 v 0 c 0.0789,-0.0923 0.0281,-0.0527 0.16185,-0.10535 0.60991,-0.11848 1.24067,-0.081 1.85277,-0.1896 0.85192,-0.14 1.73994,-0.30561 2.42637,-0.86724 0.31815,-0.35901 0.42521,-0.73428 0.10575,-1.14186 -0.46214,-0.43254 -1.07182,-0.26502 -1.62294,-0.0883 -0.94708,0.34615 -1.82864,0.82212 -2.71189,1.3054 -0.61711,0.28719 -1.40036,0.61496 -1.73856,-0.20934 -0.30113,-1.17841 -0.1112,-2.40976 0.0431,-3.59688 0.28896,-1.73776 0.65629,-3.46044 1.13558,-5.1565 0.0895,-0.31905 0.54072,-0.19245 0.4512,0.1266 z"
       inkscape:connector-curvature="0" />
    <path
       style="opacity:1;fill:none;fill-opacity:1;stroke:#000000;stroke-width:1;stroke-linecap:round;stroke-linejoin:miter;stroke-miterlimit:4;stroke-dasharray:none;stroke-dashoffset:0;stroke-opacity:1"
       id="path2198"
       d="m 142.36901,158.03206 c 0.85409,-0.0807 1.9088,-0.27011 2.67045,0.26139 0.12561,0.0876 0.21855,0.21464 0.32783,0.32196 0.5471,1.10856 -0.0814,2.29257 -0.53998,3.32408 -0.41839,0.87527 -0.83094,1.75461 -1.09259,2.69093 -0.0931,0.38665 -0.0871,0.71141 0.26557,0.93064 0.88499,0.30719 1.8794,0.0298 2.76616,-0.138 1.37651,-0.28361 2.72582,-0.67979 4.09299,-1.00213 0.37279,-0.0212 0.20904,-0.001 0.49264,-0.0464 0.009,-0.005 0.0169,0.008 0.008,0.013 v 0 c -0.20143,0.23859 -0.0796,0.10918 -0.37933,0.37488 -1.29402,0.61672 -2.71639,0.91489 -4.10351,1.24411 -1.04413,0.19772 -2.22828,0.52234 -3.23041,0.0157 -0.49287,-0.41837 -0.59031,-0.9182 -0.41292,-1.53722 0.28611,-0.95343 0.7054,-1.85471 1.13837,-2.74941 0.38217,-0.84747 0.94816,-1.848 0.6541,-2.79579 -0.63493,-0.74125 -1.71187,-0.55873 -2.58403,-0.46168 -0.31543,0.0516 -0.38843,-0.39447 -0.073,-0.44609 z"
       inkscape:connector-curvature="0" />
  </g>
</svg>
